<svg width="21" height="21" viewBox="0 0 21 21" fill="none" xmlns="http://www.w3.org/2000/svg">
<path d="M19.9883 4.77221C19.8533 3.49202 19.2293 2.34222 18.2313 1.53468L17.657 1.0699C16.8044 0.37993 15.7306 0 14.6331 0C13.1694 0 11.8039 0.65016 10.8865 1.78388L2.05705 12.6951C1.24816 13.6945 0.876891 14.9492 1.01172 16.228C1.14656 17.5066 1.77136 18.6563 2.77097 19.4653L3.34523 19.9301C4.19769 20.6201 5.27147 21 6.3687 21C6.53811 21 6.70949 20.9909 6.87806 20.9731C8.14903 20.8391 9.29343 20.2215 10.0971 19.2379C10.0998 19.2348 10.1014 19.2329 16.0539 11.878C17.114 10.5678 16.9106 8.6392 15.6005 7.57898L15.2996 7.33557C14.7582 6.89744 14.0762 6.65617 13.3794 6.65617C12.4502 6.65617 11.5831 7.06905 11.0006 7.78887L5.05505 15.136C4.66657 15.6162 4.74108 16.323 5.22126 16.7116C5.41997 16.8723 5.67001 16.9609 5.92529 16.9609C6.26535 16.9609 6.58298 16.8096 6.79681 16.5454L12.7423 9.19827C12.8978 9.00614 13.1294 8.89594 13.3777 8.89594C13.5664 8.89594 13.7436 8.95863 13.8902 9.07722L14.1912 9.32091C14.3603 9.45776 14.466 9.65265 14.4889 9.8698C14.5117 10.087 14.4491 10.2997 14.3121 10.4687L8.37349 17.8075C7.88313 18.4131 7.15318 18.7603 6.37078 18.7603C5.78421 18.7603 5.21024 18.5573 4.75457 18.1885L4.18032 17.7238C3.64593 17.2912 3.31188 16.6765 3.23986 15.993C3.16777 15.3095 3.3662 14.6386 3.79865 14.1044L12.6282 3.19322C13.1185 2.58731 13.8487 2.23977 14.6315 2.23977C15.2181 2.23977 15.7921 2.44281 16.2477 2.81155L16.8219 3.27621C17.925 4.16894 18.0962 5.79262 17.2036 6.8957C17.0153 7.12837 16.929 7.4203 16.9603 7.71791C16.9918 8.01547 17.1372 8.28306 17.3697 8.4712C17.5684 8.63201 17.8185 8.72062 18.0738 8.72062C18.4138 8.72062 18.7314 8.5692 18.9452 8.3051C19.7529 7.30706 20.1234 6.05234 19.9883 4.77221Z" fill="#212C43" fill-opacity="0.8"/>
</svg>
