<svg width="18" height="18" viewBox="0 0 18 18" fill="none" xmlns="http://www.w3.org/2000/svg">
<g clip-path="url(#clip0)">
<path d="M17.5964 14.2254L14.8166 11.4453C14.2629 10.8938 13.346 10.9106 12.7731 11.4838L11.5962 12.6604C11.4637 12.7928 11.2596 12.8219 11.0962 12.7302C10.2118 12.2402 9.00139 11.5685 7.72765 10.2939C6.45014 9.01652 5.77788 7.80422 5.28635 6.91926C5.198 6.75957 5.22535 6.55976 5.35449 6.43081L6.07564 5.71073L6.53774 5.24806C7.1116 4.67405 7.12742 3.75739 6.57503 3.20432L3.79521 0.423888C3.24282 -0.128404 2.32549 -0.111649 1.75163 0.462362L0.979445 1.23898C0.973227 1.24524 0.973259 1.25535 0.979519 1.26156C0.985263 1.26726 0.985832 1.27635 0.980861 1.28274C0.722026 1.61535 0.505558 1.998 0.344011 2.41028C0.193423 2.80712 0.0996683 3.18581 0.0567985 3.56528C-0.310258 6.60826 1.0803 9.38932 4.85408 13.1632C10.0706 18.3793 14.2744 17.9853 14.4558 17.966C14.8508 17.9188 15.2293 17.8244 15.614 17.675C16.0238 17.515 16.4071 17.2981 16.7401 17.0389C16.745 17.035 16.752 17.0353 16.7567 17.0394C16.7618 17.0439 16.7695 17.0438 16.7744 17.039L17.5594 16.2703C18.1321 15.6964 18.1486 14.7794 17.5964 14.2254Z" fill="#7A9E24"/>
</g>
<defs>
<clipPath id="clip0">
<rect width="18" height="18" fill="white"/>
</clipPath>
</defs>
</svg>
