<?xml version="1.0" encoding="utf-8"?>
<!-- Generator: Adobe Illustrator 23.0.1, SVG Export Plug-In . SVG Version: 6.00 Build 0)  -->
<svg version="1.1" id="Layer_1" xmlns="http://www.w3.org/2000/svg" xmlns:xlink="http://www.w3.org/1999/xlink" x="0px" y="0px"
	 width="60px" height="60.1px" viewBox="0 0 60 60.1" enable-background="new 0 0 60 60.1" xml:space="preserve">
<g>
	<path fill="#F8BDC3" d="M0,60.2C0,60.2-0.1,60.2,0,60.2c-0.1-0.1-0.1-0.2-0.1-0.3c0-19.9,0-39.8,0-59.7C-0.1,0.2,0,0.1,0,0
		c0,0,0,0,0,0.1c0,0.1,0,0.3,0,0.4C0,20,0,39.6,0,59.2c0,0.3,0,0.6,0,0.9C0,60.1,0,60.1,0,60.2C0,60.2,0,60.2,0,60.2z"/>
	<path fill="#F8C1C8" d="M59.9,0C60,0,60,0,59.9,0C60,0.1,60,0.2,60,0.3c0,19.9,0,39.8,0,59.7c0,0.1,0,0.2-0.1,0.3c0,0,0,0,0-0.1
		c0-0.1,0-0.3,0-0.4c0-19.8,0-39.6,0-59.3C59.9,0.3,59.9,0.2,59.9,0C59.9,0,59.9,0,59.9,0z"/>
	<path fill="#DE6568" d="M59.9,0C59.9,0,59.9,0,59.9,0c-0.2,0.1-0.4,0.1-0.7,0.1c-19.6,0-39.3,0-58.9,0c-0.1,0-0.3,0-0.4,0
		C0,0,0,0,0,0C20,0,40,0,59.9,0z"/>
	<path fill="#F8BABB" d="M59.9,60.1C59.9,60.2,59.9,60.2,59.9,60.1c-20,0.1-40,0.1-60,0.1c0,0,0,0,0-0.1c0,0,0,0,0.1,0
		c0,0,0.1,0,0.1,0c0,0,0,0,0.1,0c0.1,0,0.3,0,0.4,0c19.6,0,39.2,0,58.8,0c0.1,0,0.3,0,0.4,0c0,0,0,0,0.1,0
		C59.9,60.1,59.9,60.1,59.9,60.1z"/>
	<path fill="#C0232A" d="M0.1,60.1c0,0-0.1,0-0.1,0c0,0,0,0-0.1,0c0-0.3,0-0.6,0-0.9C0,39.6,0,20,0,0.5c0-0.1,0-0.3,0-0.4
		c0.1,0,0.3,0,0.4,0c19.6,0,39.3,0,58.9,0c0.2,0,0.4,0,0.6,0c0,0.1,0,0.2,0,0.3c0,19.8,0,39.6,0,59.3c0,0.1,0,0.3,0,0.4
		c0,0-0.1,0-0.1,0c0,0,0,0-0.1,0c-0.1,0-0.3,0-0.4,0c-19.6,0-39.2,0-58.8,0C0.5,60.1,0.3,60.1,0.1,60.1C0.2,60.1,0.2,60.1,0.1,60.1z
		 M41.1,22.8c0-2.3,0-4.6,0-6.9c0-1.1-0.4-1.6-1.5-1.9c-3.3-0.8-6.6-1.1-9.9-1c-2.4,0-4.7,0.2-7,0.6c-0.9,0.2-1.9,0.4-2.8,0.6
		c-0.6,0.2-1,0.6-1,1.3c0,0.7,0,1.4,0,2.1c0,4.1,0,8.1,0,12.2c0,1.1,0.4,1.6,1.5,1.9c3,0.7,6,1,9.1,1c1.6,0,3.2-0.1,4.7-0.2
		c1.9-0.1,3.8-0.4,5.7-0.9c0.9-0.2,1.2-0.6,1.3-1.5c0-0.1,0-0.3,0-0.4C41.1,27.3,41.1,25.1,41.1,22.8z M15.7,43.6c0-0.5,0-1,0-1.4
		c0-1.4,0-2.8,0-4.2c0-0.5-0.2-0.7-0.6-0.7c-1.3,0-2.5,0-3.8,0c-0.9,0-1,0.2-1,1c0,1,0,2,0,3c0,0.5-0.1,1-0.2,1.6
		c-0.1,0.6-0.3,0.7-0.9,0.7c-0.3,0-0.5,0.1-0.5,0.4c0,0.9,0,1.8,0,2.7c0,0.3,0.3,0.5,0.6,0.5c0.3,0,0.6-0.2,0.6-0.5c0-0.5,0-1,0-1.5
		c0-0.1,0-0.2,0-0.4c2,0,3.9,0,5.9,0c0,0.2,0,0.4,0,0.6c0,0.4,0,0.8,0,1.2c0,0.4,0.2,0.6,0.7,0.6c0.4,0,0.5-0.2,0.6-0.5
		c0-0.8,0-1.7,0-2.5c0-0.3-0.1-0.5-0.4-0.5C16.3,43.6,16,43.6,15.7,43.6z M49.3,44c0.1,0.4,0.1,0.8,0.5,0.9c0.6,0.2,1.3,0.2,1.4-0.8
		c0-0.1,0-0.2,0-0.3c0-0.9,0-1.7,0-2.6c0-1,0-2.1,0-3.1c0-0.6-0.4-1-0.9-1c-0.7-0.1-1.1,0.4-1.1,1.1c0,1.3,0,2.7,0,4
		c0,0.1,0,0.2-0.1,0.3c-0.3,0.4-1,0.7-1.6,0.5c-0.4-0.1-0.6-0.4-0.6-1.1c0-0.1,0-0.1,0-0.2c0-1.2,0-2.3,0-3.5c0-0.6-0.4-1.1-1-1.1
		c-0.6,0-1,0.5-1,1.1c0,1,0,2.1,0,3.1c0,0.6,0,1.1,0,1.7c0.1,0.8,0.4,1.4,1.1,1.8c0.5,0.3,1.1,0.3,1.6,0.2
		C48.4,44.8,48.9,44.5,49.3,44z M31.2,40.3C31.2,40.3,31.2,40.3,31.2,40.3c0.1,0.1,0.1,0.2,0.1,0.3c0,1.3,0,2.5,0,3.8
		c0,0.4,0.2,0.7,0.6,0.8c0.5,0.1,0.8-0.3,0.8-0.8c0-1.6,0-3.2,0-4.7c0-0.6,0-1.2,0-1.8c0-0.4-0.2-0.6-0.5-0.7
		c-0.3-0.1-0.6,0-0.8,0.3c-0.1,0.2-0.2,0.3-0.3,0.5c-0.6,1.1-1.2,2.3-1.7,3.4c-0.1,0.2-0.2,0.3-0.3,0.5c-0.5-0.9-0.9-1.8-1.3-2.7
		c-0.3-0.6-0.6-1.1-0.9-1.7c-0.2-0.3-0.5-0.4-0.8-0.3c-0.3,0.1-0.5,0.3-0.6,0.6c0,0.1,0,0.2,0,0.3c0,2.1,0,4.1,0,6.2
		c0,0.1,0,0.3,0,0.4c0.1,0.3,0.4,0.5,0.7,0.5c0.3,0,0.5-0.2,0.6-0.5c0-0.1,0-0.2,0-0.3c0-1.2,0-2.4,0-3.6c0-0.1,0-0.2,0-0.3
		c0.5,1,1,2,1.4,3c0.1,0.3,0.4,0.5,0.7,0.5c0.4,0,0.6-0.2,0.7-0.5c0.4-0.9,0.8-1.8,1.2-2.7C31.1,40.5,31.1,40.4,31.2,40.3z
		 M17.5,41.1c0,0.9,0.2,1.8,0.9,2.6c1.3,1.6,3.7,1.6,5,0c1.1-1.5,1.1-3.9,0-5.4c-1.2-1.6-3.8-1.6-5-0.1C17.8,39,17.5,39.9,17.5,41.1
		z M41.1,38c-0.3-0.7-0.7-1-1.4-0.9c-0.5,0.1-0.7,0.4-0.7,1.1c0,1.8,0,3.7,0,5.5c0,0.2,0,0.4,0.1,0.6c0.2,0.5,0.6,0.7,1.1,0.6
		c0.5-0.1,0.8-0.5,0.8-1c0-1.3,0-2.6,0-3.9c0-0.5,0.3-0.9,0.8-1c0.4-0.1,0.8-0.1,1.1,0c0.6,0.1,1-0.2,1.2-0.8c0.1-0.6-0.2-1-0.7-1.2
		c-0.8-0.2-1.5-0.1-2.1,0.6C41.3,37.8,41.2,37.9,41.1,38z M35.8,44.9c0.7,0,1.3-0.6,1.3-1.3c0-0.7-0.6-1.3-1.3-1.3
		c-0.8,0-1.3,0.5-1.3,1.3C34.5,44.3,35.1,44.9,35.8,44.9z"/>
	<path fill="#E16161" d="M0,60.1C0,60.1,0,60.1,0,60.1C0,60.1,0,60.1,0,60.1C0,60.1,0,60.1,0,60.1z"/>
	<path fill="#E16161" d="M0.1,60.1C0.2,60.1,0.2,60.1,0.1,60.1C0.2,60.1,0.2,60.1,0.1,60.1z"/>
	<path fill="#E16161" d="M59.8,60.1C59.8,60.1,59.8,60.1,59.8,60.1C59.8,60.1,59.8,60.1,59.8,60.1z"/>
	<path fill="#FDFCFB" d="M41.1,22.8c0,2.3,0,4.5,0,6.8c0,0.1,0,0.3,0,0.4c-0.1,0.9-0.4,1.3-1.3,1.5c-1.9,0.5-3.8,0.8-5.7,0.9
		c-1.6,0.1-3.1,0.2-4.7,0.2c-3.1,0-6.1-0.3-9.1-1c-1.1-0.2-1.5-0.8-1.5-1.9c0-4.1,0-8.1,0-12.2c0-0.7,0-1.4,0-2.1
		c0-0.6,0.4-1.1,1-1.3c0.9-0.2,1.9-0.4,2.8-0.6c2.3-0.4,4.7-0.5,7-0.6c3.3,0,6.6,0.3,9.9,1c1.1,0.3,1.4,0.7,1.5,1.9
		C41.1,18.2,41.1,20.5,41.1,22.8z M39.9,22.8c0-2.3,0-4.7,0-7c0-0.4-0.1-0.5-0.4-0.6c-0.3-0.1-0.5-0.1-0.8-0.2
		c-1.7-0.4-3.4-0.6-5.2-0.7c-1.8-0.1-3.7-0.1-5.5-0.1c-2.5,0.1-4.9,0.4-7.3,0.9c-0.6,0.1-0.6,0.2-0.6,0.8c0,1.4,0,2.8,0,4.2
		c0,3.2,0,6.3,0,9.5c0,0.5,0,0.6,0.6,0.7c1.1,0.2,2.3,0.5,3.4,0.6c1.8,0.2,3.7,0.4,5.6,0.4c1.5,0,3.1-0.1,4.6-0.2
		c1.8-0.1,3.5-0.4,5.3-0.8c0.4-0.1,0.4-0.2,0.4-0.6C39.9,27.5,39.9,25.1,39.9,22.8z"/>
	<path fill="#FEFDFC" d="M15.7,43.6c0.3,0,0.6,0,0.9,0c0.3,0,0.4,0.2,0.4,0.5c0,0.8,0,1.7,0,2.5c0,0.4-0.2,0.5-0.6,0.5
		c-0.4,0-0.6-0.2-0.7-0.6c0-0.4,0-0.8,0-1.2c0-0.2,0-0.4,0-0.6c-2,0-3.9,0-5.9,0c0,0.1,0,0.2,0,0.4c0,0.5,0,1,0,1.5
		c0,0.3-0.3,0.5-0.6,0.5c-0.3,0-0.6-0.2-0.6-0.5c0-0.9,0-1.8,0-2.7c0-0.3,0.2-0.4,0.5-0.4c0.6,0,0.8-0.1,0.9-0.7
		c0.1-0.5,0.2-1,0.2-1.6c0-1,0-2,0-3c0-0.9,0.1-1,1-1c1.3,0,2.5,0,3.8,0c0.5,0,0.6,0.2,0.6,0.7c0,1.4,0,2.8,0,4.2
		C15.7,42.6,15.7,43.1,15.7,43.6z M14.3,38.4c-0.6,0-1.3,0-1.9,0c-0.7,0-0.7,0-0.7,0.7c0,1.1,0,2.1-0.1,3.2c0,0.4-0.2,0.8-0.2,1.3
		c1,0,1.9,0,2.9,0C14.3,41.8,14.3,40.1,14.3,38.4z"/>
	<path fill="#FDFCFC" d="M49.3,44c-0.4,0.6-0.9,0.9-1.5,1c-0.6,0.1-1.1,0-1.6-0.2c-0.7-0.4-1.1-1-1.1-1.8c-0.1-0.6,0-1.1,0-1.7
		c0-1,0-2.1,0-3.1c0-0.7,0.4-1.1,1-1.1c0.6,0,1,0.5,1,1.1c0,1.2,0,2.3,0,3.5c0,0.1,0,0.1,0,0.2c0,0.7,0.2,0.9,0.6,1.1
		c0.6,0.2,1.3-0.1,1.6-0.5c0.1-0.1,0.1-0.2,0.1-0.3c0-1.3,0-2.7,0-4c0-0.7,0.5-1.1,1.1-1.1c0.5,0.1,0.9,0.5,0.9,1c0,1,0,2.1,0,3.1
		c0,0.9,0,1.7,0,2.6c0,0.1,0,0.2,0,0.3c-0.1,1-0.9,1-1.4,0.8C49.5,44.8,49.4,44.4,49.3,44z"/>
	<path fill="#FDFBFB" d="M31.2,40.3c0,0.1-0.1,0.2-0.1,0.4c-0.4,0.9-0.8,1.8-1.2,2.7c-0.1,0.3-0.4,0.5-0.7,0.5
		c-0.4,0-0.6-0.2-0.7-0.5c-0.5-1-0.9-2-1.4-3c0,0.1,0,0.2,0,0.3c0,1.2,0,2.4,0,3.6c0,0.1,0,0.2,0,0.3c-0.1,0.3-0.3,0.5-0.6,0.5
		c-0.3,0-0.6-0.2-0.7-0.5c0-0.1,0-0.3,0-0.4c0-2.1,0-4.1,0-6.2c0-0.1,0-0.2,0-0.3c0.1-0.3,0.3-0.6,0.6-0.6c0.3-0.1,0.6,0,0.8,0.3
		c0.3,0.6,0.6,1.1,0.9,1.7c0.4,0.9,0.9,1.8,1.3,2.7c0.1-0.2,0.2-0.3,0.3-0.5c0.6-1.1,1.1-2.3,1.7-3.4c0.1-0.2,0.2-0.3,0.3-0.5
		c0.2-0.3,0.5-0.4,0.8-0.3c0.3,0.1,0.5,0.3,0.5,0.7c0,0.6,0,1.2,0,1.8c0,1.6,0,3.2,0,4.7c0,0.5-0.3,0.8-0.8,0.8
		c-0.4,0-0.6-0.3-0.6-0.8c0-1.3,0-2.5,0-3.8C31.3,40.4,31.3,40.4,31.2,40.3C31.2,40.3,31.2,40.3,31.2,40.3z"/>
	<path fill="#FDFCFC" d="M17.5,41.1c0-1.2,0.3-2.1,0.9-2.9c1.2-1.5,3.8-1.5,5,0.1c1.1,1.5,1.1,3.9,0,5.4c-1.3,1.6-3.7,1.6-5,0
		C17.8,42.8,17.5,41.9,17.5,41.1z M18.9,40.9c0,0.7,0.1,1.3,0.4,1.8c0.7,1.2,2.4,1.3,3.1,0.1c0.6-1,0.6-2.7-0.1-3.7
		c-0.7-1.1-2.3-1.1-3,0C19,39.7,18.9,40.3,18.9,40.9z"/>
	<path fill="#FEFDFD" d="M41.1,38c0.1-0.1,0.2-0.2,0.3-0.3c0.6-0.6,1.3-0.7,2.1-0.6c0.6,0.1,0.9,0.6,0.7,1.2
		c-0.1,0.6-0.6,0.8-1.2,0.8c-0.4,0-0.8,0-1.1,0c-0.5,0.1-0.8,0.5-0.8,1c0,1.3,0,2.6,0,3.9c0,0.5-0.4,0.9-0.8,1
		c-0.5,0.1-1-0.2-1.1-0.6c-0.1-0.2-0.1-0.4-0.1-0.6c0-1.8,0-3.7,0-5.5c0-0.7,0.2-1,0.7-1.1C40.5,37,40.9,37.3,41.1,38z"/>
	<path fill="#FDFCFC" d="M35.8,44.9c-0.7,0-1.3-0.6-1.3-1.3c0-0.8,0.6-1.3,1.3-1.3c0.7,0,1.3,0.6,1.3,1.3
		C37.1,44.3,36.6,44.9,35.8,44.9z"/>
	<path fill="#C0232A" d="M39.9,22.8c0,2.3,0,4.7,0,7c0,0.4-0.1,0.5-0.4,0.6c-1.7,0.4-3.5,0.7-5.3,0.8c-1.5,0.1-3.1,0.2-4.6,0.2
		c-1.9,0-3.7-0.2-5.6-0.4c-1.1-0.1-2.3-0.4-3.4-0.6c-0.5-0.1-0.6-0.2-0.6-0.7c0-3.2,0-6.3,0-9.5c0-1.4,0-2.8,0-4.2
		c0-0.6,0-0.7,0.6-0.8c2.4-0.5,4.8-0.9,7.3-0.9c1.8,0,3.7,0,5.5,0.1c1.7,0.1,3.5,0.3,5.2,0.7c0.3,0.1,0.5,0.1,0.8,0.2
		c0.4,0.1,0.4,0.2,0.4,0.6C39.9,18.2,39.9,20.5,39.9,22.8z M34,18.7c0,1,0.8,1.9,1.9,1.9c1,0,1.8-0.8,1.9-1.9c0-1-0.9-1.9-1.9-1.9
		C34.8,16.9,34,17.7,34,18.7z"/>
	<path fill="#C0282D" d="M14.3,38.4c0,1.7,0,3.4,0,5.2c-1,0-2,0-2.9,0c0.1-0.4,0.2-0.8,0.2-1.3c0.1-1.1,0.1-2.1,0.1-3.2
		c0-0.7,0-0.7,0.7-0.7C13,38.4,13.7,38.4,14.3,38.4z"/>
	<path fill="#C1252B" d="M18.9,40.9c0-0.6,0.1-1.2,0.5-1.8c0.7-1.1,2.2-1.1,3,0c0.7,1,0.7,2.7,0.1,3.7c-0.7,1.2-2.5,1.1-3.1-0.1
		C19.1,42.2,18.9,41.6,18.9,40.9z"/>
	<path fill="#FDFCFC" d="M34,18.7c0-1,0.8-1.9,1.9-1.9c1,0,1.9,0.9,1.9,1.9c0,1-0.8,1.8-1.9,1.9C34.8,20.6,34,19.8,34,18.7z"/>
</g>
</svg>
