<?xml version="1.0" encoding="utf-8"?>
<!-- Generator: Adobe Illustrator 23.0.1, SVG Export Plug-In . SVG Version: 6.00 Build 0)  -->
<svg version="1.1" id="Layer_1" xmlns="http://www.w3.org/2000/svg" xmlns:xlink="http://www.w3.org/1999/xlink" x="0px" y="0px"
	 width="60px" height="60.1px" viewBox="0 0 60 60.1" enable-background="new 0 0 60 60.1" xml:space="preserve">
<g opacity="0.8">
	<path fill="#212C43" d="M45.6,19.9c0,3.2,0,6.3,0,9.5c0,0.2,0,0.4,0,0.6c-0.1,1.3-0.6,1.8-1.8,2.1c-2.6,0.7-5.3,1.1-8,1.3
		c-2.2,0.1-4.4,0.2-6.6,0.2c-4.3,0-8.5-0.5-12.7-1.4c-1.5-0.3-2-1.1-2-2.6c0-5.7,0-11.4,0-17.2c0-1,0-1.9,0.1-2.9
		C14.5,8.6,15,8,15.9,7.8c1.3-0.3,2.6-0.6,3.9-0.8c3.3-0.5,6.5-0.8,9.8-0.8c4.7,0,9.3,0.4,13.9,1.4c1.5,0.4,2,1,2,2.6
		C45.6,13.4,45.6,16.7,45.6,19.9z M43.9,19.9c0-3.3,0-6.5,0-9.8c0-0.6-0.1-0.7-0.6-0.8c-0.4-0.1-0.7-0.1-1.1-0.2
		c-2.4-0.5-4.8-0.9-7.3-1c-2.6-0.1-5.2-0.2-7.7-0.1C23.7,8,20.3,8.5,16.9,9.2c-0.8,0.2-0.9,0.3-0.9,1.1c0,2,0,4,0,5.9
		c0,4.4,0,8.8,0,13.3c0,0.7,0.1,0.8,0.8,1c1.6,0.3,3.2,0.6,4.8,0.8c2.6,0.3,5.2,0.5,7.8,0.6c2.1,0.1,4.3-0.1,6.5-0.2
		c2.5-0.2,5-0.6,7.4-1.2c0.5-0.1,0.6-0.3,0.6-0.8C43.9,26.4,43.9,23.2,43.9,19.9z"/>
	<path fill="#212C43" d="M9.9,49c0.5,0,0.9,0,1.2,0c0.4,0,0.6,0.3,0.6,0.7c0,1.2,0,2.4,0,3.5c0,0.5-0.3,0.7-0.8,0.7
		c-0.6,0-0.9-0.3-0.9-0.8c0-0.5,0-1.1,0-1.6c0-0.3,0-0.5,0-0.8c-2.8,0-5.5,0-8.2,0c0,0.2,0,0.3,0,0.5c0,0.7,0,1.4,0,2.1
		c0,0.4-0.4,0.7-0.9,0.7c-0.4,0-0.8-0.3-0.8-0.7c0-1.2,0-2.5,0-3.7c0-0.4,0.3-0.5,0.6-0.5c0.8,0,1.1-0.2,1.3-1
		c0.2-0.7,0.3-1.5,0.3-2.2c0.1-1.4,0-2.8,0-4.2c0-1.2,0.1-1.4,1.3-1.4c1.8-0.1,3.5,0,5.3,0c0.6,0,0.9,0.3,0.9,1c0,2,0,4,0,5.9
		C9.9,47.7,9.9,48.3,9.9,49z M8,41.8c-0.9,0-1.8,0-2.7,0c-1,0-1,0-1,1c0,1.5,0,3-0.1,4.5c0,0.6-0.2,1.2-0.3,1.8c1.3,0,2.7,0,4.1,0
		C8,46.6,8,44.2,8,41.8z"/>
	<path fill="#212C43" d="M57.1,49.6c-0.6,0.8-1.3,1.2-2.2,1.4c-0.8,0.1-1.6,0.1-2.3-0.3c-1-0.5-1.5-1.4-1.6-2.5
		C51,47.3,51,46.5,51,45.8c0-1.4,0-2.9,0-4.3c0-0.9,0.6-1.5,1.4-1.5c0.8,0,1.4,0.6,1.4,1.6c0,1.6,0,3.3,0,4.9c0,0.1,0,0.2,0,0.3
		c0,0.9,0.3,1.3,0.9,1.5c0.8,0.2,1.8-0.1,2.2-0.7C57,47.4,57,47.2,57,47c0-1.9,0-3.7,0-5.6c0-1,0.7-1.6,1.6-1.5
		c0.7,0.1,1.2,0.7,1.2,1.4c0,1.5,0,2.9,0,4.4c0,1.2,0,2.4,0,3.7c0,0.1,0,0.3,0,0.4c-0.2,1.3-1.2,1.3-2,1.1
		C57.3,50.7,57.2,50.2,57.1,49.6z"/>
	<path fill="#212C43" d="M31.6,44.4c-0.1,0.2-0.1,0.3-0.2,0.5c-0.6,1.3-1.1,2.5-1.7,3.8c-0.2,0.4-0.5,0.7-1,0.7
		c-0.5,0-0.8-0.3-1-0.7c-0.6-1.4-1.3-2.8-2-4.2c0,0.1,0,0.3,0,0.4c0,1.7,0,3.4,0,5c0,0.2,0,0.3,0,0.5c-0.1,0.4-0.5,0.7-0.9,0.7
		c-0.4,0-0.8-0.3-0.9-0.7c-0.1-0.2-0.1-0.4-0.1-0.6c0-2.9,0-5.8,0-8.7c0-0.1,0-0.3,0-0.4c0.1-0.5,0.4-0.8,0.8-0.9
		c0.5-0.1,0.9,0,1.1,0.5c0.4,0.8,0.8,1.6,1.2,2.4c0.6,1.2,1.2,2.5,1.8,3.8c0.1-0.3,0.3-0.5,0.4-0.7c0.8-1.6,1.6-3.2,2.4-4.8
		c0.1-0.2,0.2-0.5,0.4-0.7c0.3-0.4,0.7-0.6,1.1-0.5c0.4,0.1,0.7,0.5,0.7,1c0,0.9,0,1.7,0,2.6c0,2.2,0,4.4,0,6.6
		c0,0.7-0.5,1.1-1.1,1.1c-0.5-0.1-0.9-0.5-0.9-1.1c0-1.8,0-3.5,0-5.3c0-0.1,0-0.2,0-0.3C31.7,44.4,31.7,44.4,31.6,44.4z"/>
	<path fill="#212C43" d="M12.5,45.5c0-1.6,0.4-2.9,1.3-4.1c1.7-2.2,5.3-2.2,7,0.1c1.6,2.1,1.6,5.5-0.1,7.6c-1.8,2.3-5.2,2.3-7,0
		C12.8,48,12.5,46.7,12.5,45.5z M14.5,45.2c0,1,0.2,1.8,0.6,2.5c0.9,1.7,3.3,1.8,4.4,0.2c0.9-1.4,0.9-3.8-0.1-5.2
		c-1-1.5-3.2-1.5-4.2,0C14.6,43.5,14.5,44.4,14.5,45.2z"/>
	<path fill="#212C43" d="M45.6,41.2c0.1-0.2,0.2-0.3,0.4-0.4c0.8-0.9,1.8-1,2.9-0.8c0.8,0.2,1.2,0.8,1,1.6c-0.2,0.8-0.8,1.2-1.6,1.1
		c-0.5-0.1-1.1-0.1-1.6,0c-0.7,0.1-1.1,0.7-1.1,1.4c0,1.8,0,3.7,0,5.5c0,0.7-0.5,1.3-1.1,1.4c-0.7,0.1-1.4-0.2-1.6-0.9
		c-0.1-0.3-0.1-0.6-0.1-0.9c0-2.6,0-5.2,0-7.7c0-1,0.3-1.4,0.9-1.5C44.7,39.8,45.3,40.2,45.6,41.2z"/>
	<path fill="#212C43" d="M38.2,50.8c-1,0-1.9-0.8-1.9-1.8c0-1.2,0.8-1.8,1.9-1.9c1,0,1.8,0.8,1.8,1.8C40,50,39.2,50.8,38.2,50.8z"/>
	<path fill="#212C43" d="M35.6,14.2c0-1.5,1.2-2.6,2.6-2.6c1.4,0,2.6,1.3,2.6,2.6c0,1.4-1.2,2.6-2.6,2.6
		C36.7,16.8,35.6,15.7,35.6,14.2z"/>
</g>
</svg>
