<svg width="18" height="18" viewBox="0 0 18 18" fill="none" xmlns="http://www.w3.org/2000/svg">
<g clip-path="url(#clip0)">
<path d="M1.72764 6.28807C1.95534 6.44875 2.64171 6.92595 3.78677 7.71945C4.93188 8.51294 5.8091 9.12391 6.41849 9.55239C6.48544 9.59936 6.62768 9.70146 6.84528 9.85883C7.06292 10.0163 7.24375 10.1436 7.38765 10.2406C7.53165 10.3377 7.70573 10.4465 7.91006 10.567C8.11433 10.6874 8.30688 10.778 8.48768 10.8379C8.66852 10.8983 8.83591 10.9283 8.9899 10.9283H9H9.01013C9.16412 10.9283 9.33159 10.8983 9.51242 10.8379C9.69315 10.778 9.88588 10.6873 10.09 10.567C10.2942 10.4464 10.4682 10.3376 10.6122 10.2406C10.7562 10.1436 10.9369 10.0163 11.1546 9.85883C11.3722 9.70132 11.5146 9.59936 11.5816 9.55239C12.1975 9.12391 13.7647 8.0357 16.2824 6.28786C16.7712 5.94649 17.1796 5.53458 17.5077 5.05241C17.836 4.57045 18 4.06485 18 3.53589C18 3.09387 17.8409 2.71548 17.5228 2.40078C17.2047 2.08601 16.8279 1.92871 16.3928 1.92871H1.60708C1.09148 1.92871 0.694703 2.10279 0.416801 2.45095C0.138934 2.79918 0 3.23445 0 3.75673C0 4.1786 0.184213 4.63575 0.552462 5.12791C0.920676 5.62011 1.31253 6.00686 1.72764 6.28807Z" fill="#7A9E24"/>
<path d="M16.9954 7.36262C14.7992 8.84909 13.1316 10.0043 11.9933 10.8281C11.6117 11.1092 11.302 11.3287 11.0642 11.4859C10.8264 11.6433 10.5102 11.804 10.115 11.968C9.72 12.1322 9.35185 12.2141 9.01027 12.2141H9.00003H8.98994C8.64843 12.2141 8.28007 12.1322 7.88505 11.968C7.49002 11.804 7.17356 11.6433 6.93584 11.4859C6.69818 11.3287 6.38844 11.1092 6.00679 10.8281C5.10272 10.1652 3.43868 9.00987 1.01461 7.36262C0.622018 7.10113 0 7.35966 0 7.83137V14.464C0 14.9062 0.157298 15.2844 0.472071 15.5991C0.786774 15.914 1.16519 16.0713 1.60718 16.0713H16.393C16.8348 16.0713 17.2132 15.914 17.528 15.5991C17.8428 15.2843 18 14.9063 18 14.464V7.82348C18 7.35498 17.3822 7.09821 16.9954 7.36262Z" fill="#7A9E24"/>
</g>
<defs>
<clipPath id="clip0">
<rect width="18" height="18" fill="white"/>
</clipPath>
</defs>
</svg>
