<svg width="50" height="50" viewBox="0 0 50 50" fill="none" xmlns="http://www.w3.org/2000/svg">
<g clip-path="url(#clip0)">
<path d="M45.9677 9.67742H36.5821L27.3776 2.00628C27.1807 0.869456 26.1927 0 25 0C23.8073 0 22.8193 0.869456 22.6224 2.00628L13.4179 9.67742H4.03226C1.809 9.67742 0 11.4864 0 13.7097V33.0645C0 35.2878 1.809 37.0968 4.03226 37.0968H28.1396V35.4839H4.03226C2.69854 35.4839 1.6129 34.3982 1.6129 33.0645V13.7097C1.6129 12.376 2.69854 11.2903 4.03226 11.2903H45.9677C47.3015 11.2903 48.3871 12.376 48.3871 13.7097V33.0645C48.3871 34.3982 47.3015 35.4839 45.9677 35.4839H39.6032V37.0968H45.9677C48.191 37.0968 50 35.2878 50 33.0645V13.7097C50 11.4864 48.191 9.67742 45.9677 9.67742ZM25 1.6129C25.4442 1.6129 25.8065 1.97439 25.8065 2.41935C25.8065 2.86432 25.4442 3.22581 25 3.22581C24.5558 3.22581 24.1935 2.86432 24.1935 2.41935C24.1935 1.97439 24.5558 1.6129 25 1.6129ZM23.0063 3.78615C23.4434 4.42091 24.1735 4.83871 25 4.83871C25.8265 4.83871 26.5566 4.42091 26.9937 3.78615L34.0627 9.67742H15.9373L23.0063 3.78615Z" fill="#212C43"/>
<path d="M45.1613 14.5162V32.2582H41.8733V33.8711H45.1613C46.0509 33.8711 46.7742 33.1477 46.7742 32.2582V14.5162C46.7742 13.6267 46.0509 12.9033 45.1613 12.9033H4.83873C3.9492 12.9033 3.22583 13.6267 3.22583 14.5162V32.2582C3.22583 33.1477 3.9492 33.8711 4.83873 33.8711H25.8711V32.2582H4.83873V14.5162H45.1613Z" fill="#212C43"/>
<path d="M24.1936 16.9355H43.5484V20.9678H24.1936V16.9355Z" fill="#9FC033"/>
<path d="M37.9031 50.0001L33.8709 46.9759L29.8386 50.0001V37.6348H31.4515V46.7743L33.8709 44.9598L36.2902 46.7743V37.6348H37.9031V50.0001Z" fill="#212C43"/>
<path d="M19.4478 26.7546L16.129 25.8063V24.5522C17.0894 23.9934 17.7419 22.9653 17.7419 21.7741V20.3289C17.7419 18.6274 16.5 17.096 14.8048 16.9484C12.8934 16.7822 11.2903 18.2844 11.2903 20.1612V21.7741C11.2903 22.9653 11.9428 23.9934 12.9032 24.5522V25.8063L9.58448 26.7546C8.20705 27.1483 7.25806 28.4064 7.25806 29.8386H21.7742C21.7742 28.4064 20.8252 27.1483 19.4478 26.7546Z" fill="#9FC033"/>
<path d="M33.871 41.9354C32.7728 41.9354 32.3357 40.7025 31.9128 39.509C31.7687 39.1014 31.534 38.441 31.3694 38.2233C31.154 38.2587 30.4735 38.5812 30.0565 38.7781C28.9386 39.3081 27.7825 39.8539 27.0276 39.0998C26.2727 38.345 26.8201 37.1896 27.3493 36.0709C27.5371 35.674 27.8388 35.0361 27.8849 34.7435C27.6486 34.5797 27.0146 34.3556 26.6193 34.215C25.4265 33.7933 24.1936 33.3562 24.1936 32.258C24.1936 31.1597 25.4265 30.7227 26.62 30.2997C27.0276 30.1556 27.688 29.9209 27.9057 29.7563C27.8703 29.5409 27.5478 28.8605 27.3509 28.4435C26.8217 27.3248 26.2743 26.1694 27.0292 25.4146C27.784 24.6605 28.9406 25.207 30.0581 25.7363C30.455 25.9241 31.0929 26.2257 31.3855 26.2718C31.5493 26.0355 31.7734 25.4016 31.914 25.0062C32.3357 23.8135 32.7728 22.5806 33.871 22.5806C34.9693 22.5806 35.4064 23.8135 35.8293 25.007C35.9734 25.4146 36.2081 26.0749 36.3727 26.2927C36.5881 26.2572 37.2685 25.9347 37.6855 25.7379C38.8035 25.2086 39.9604 24.6628 40.7144 25.4161C41.4693 26.171 40.922 27.3263 40.3927 28.4451C40.2049 28.842 39.9033 29.4799 39.8572 29.7725C40.0935 29.9363 40.7274 30.1603 41.1228 30.3009C42.3155 30.7227 43.5484 31.1597 43.5484 32.258C43.5484 33.3562 42.3155 33.7933 41.122 34.2162C40.7144 34.3603 40.0541 34.595 39.8363 34.7596C39.8718 34.975 40.1943 35.6555 40.3912 36.0725C40.9204 37.1912 41.4677 38.3465 40.7129 39.1014C39.958 39.8555 38.8015 39.3097 37.6839 38.7797C37.287 38.5919 36.6491 38.2902 36.3565 38.2442C36.1927 38.4804 35.9687 39.1144 35.8281 39.5097C35.4064 40.7025 34.9693 41.9354 33.871 41.9354Z" fill="#9FC033"/>
<path d="M24.1936 16.1292H43.5484V17.7421H24.1936V16.1292Z" fill="#212C43"/>
<path d="M24.1936 19.3547H40.3226V20.9676H24.1936V19.3547Z" fill="#212C43"/>
<path d="M33.8711 35.4838C32.092 35.4838 30.6453 34.0371 30.6453 32.258C30.6453 30.479 32.092 29.0322 33.8711 29.0322C35.6501 29.0322 37.0969 30.479 37.0969 32.258C37.0969 34.0371 35.6501 35.4838 33.8711 35.4838ZM33.8711 30.6451C32.9815 30.6451 32.2582 31.3685 32.2582 32.258C32.2582 33.1476 32.9815 33.8709 33.8711 33.8709C34.7606 33.8709 35.484 33.1476 35.484 32.258C35.484 31.3685 34.7606 30.6451 33.8711 30.6451Z" fill="#212C43"/>
<path d="M41.9355 19.3547H43.5484V20.9676H41.9355V19.3547Z" fill="#212C43"/>
</g>
<defs>
<clipPath id="clip0">
<rect width="50" height="50" fill="white"/>
</clipPath>
</defs>
</svg>
