<svg width="50" height="50" viewBox="0 0 50 50" fill="none" xmlns="http://www.w3.org/2000/svg">
<path d="M37.9032 27.4193C33.0121 27.4193 29.0322 23.4394 29.0322 18.5483C29.0322 13.6573 33.0121 9.67737 37.9032 9.67737C42.7943 9.67737 46.7742 13.6573 46.7742 18.5483C46.7742 23.4394 42.7943 27.4193 37.9032 27.4193Z" fill="#9FC033"/>
<path d="M38.7096 45.9677C38.7096 46.4131 38.3485 46.7742 37.9031 46.7742C37.4578 46.7742 37.0967 46.4131 37.0967 45.9677C37.0967 45.5223 37.4578 45.1613 37.9031 45.1613C38.3485 45.1613 38.7096 45.5223 38.7096 45.9677Z" fill="#212C43"/>
<path d="M16.1291 40.3226H3.22583V29.0322H16.1291V40.3226Z" fill="#9FC033"/>
<path d="M16.1291 25H3.22583V13.7097H16.1291V25Z" fill="#9FC033"/>
<path d="M50 18.5484C50 12.1499 45.0042 6.91036 38.7097 6.49257V0H0V43.5484H33.871V45.9677C33.871 48.191 35.68 50 37.9032 50C40.1265 50 41.9355 48.191 41.9355 45.9677V33.871H40.3226V30.4018C45.837 29.2776 50 24.3904 50 18.5484ZM48.3871 18.5484C48.3871 24.329 43.6838 29.0323 37.9032 29.0323C32.1226 29.0323 27.4194 24.329 27.4194 18.5484C27.4194 12.7678 32.1226 8.06452 37.9032 8.06452C43.6838 8.06452 48.3871 12.7678 48.3871 18.5484ZM33.871 33.871V41.9355H1.6129V1.6129H37.0968V6.49257C30.8023 6.91036 25.8065 12.1499 25.8065 18.5484C25.8065 24.3904 29.9694 29.2776 35.4839 30.4018V33.871H33.871ZM40.3226 45.9677C40.3226 47.3015 39.2369 48.3871 37.9032 48.3871C36.5695 48.3871 35.4839 47.3015 35.4839 45.9677V35.4839H40.3226V45.9677ZM38.7097 33.871H37.0968V30.6042C37.3645 30.6219 37.6307 30.6452 37.9032 30.6452C38.1757 30.6452 38.4419 30.6219 38.7097 30.6042V33.871Z" fill="#212C43"/>
<path d="M35.1252 20.2968L34.2297 21.6388L37.4099 23.7581L41.8509 14.8765L40.4073 14.1559L36.7838 21.4033L35.1252 20.2968Z" fill="#212C43"/>
<path d="M9.39598 34.8684L7.82836 33.3008L6.68799 34.4412L9.95908 37.7122L14.454 26.9232L12.9656 26.3026L9.39598 34.8684Z" fill="#212C43"/>
<path d="M9.39598 19.5458L7.82836 17.9782L6.68799 19.1185L9.95908 22.3896L14.454 11.6006L12.9656 10.98L9.39598 19.5458Z" fill="#212C43"/>
<path d="M22.5806 6.45166H24.1935V8.06456H22.5806V6.45166Z" fill="#212C43"/>
<path d="M3.22583 6.45166H20.9678V8.06456H3.22583V6.45166Z" fill="#212C43"/>
<path d="M17.7419 29.0322H27.4194V30.6451H17.7419V29.0322Z" fill="#212C43"/>
<path d="M17.7419 32.2581H27.4194V33.871H17.7419V32.2581Z" fill="#212C43"/>
<path d="M17.7419 35.4839H27.4194V37.0968H17.7419V35.4839Z" fill="#212C43"/>
<path d="M17.7419 38.7097H27.4194V40.3226H17.7419V38.7097Z" fill="#212C43"/>
<path d="M17.7419 13.7097H24.1936V15.3226H17.7419V13.7097Z" fill="#212C43"/>
<path d="M17.7419 16.9354H24.1936V18.5483H17.7419V16.9354Z" fill="#212C43"/>
<path d="M17.7419 20.1613H24.1936V21.7742H17.7419V20.1613Z" fill="#212C43"/>
<path d="M17.7419 23.3871H24.1936V25H17.7419V23.3871Z" fill="#212C43"/>
<path d="M3.22583 3.22583H24.1936V4.83873H3.22583V3.22583Z" fill="#212C43"/>
</svg>
