<svg width="50" height="50" viewBox="0 0 50 50" fill="none" xmlns="http://www.w3.org/2000/svg">
<g clip-path="url(#clip0)">
<path d="M17.742 0C11.0719 0 5.64526 5.42662 5.64526 12.0968V18.5484H6.45172C6.45172 16.7669 7.89608 15.3226 9.67752 15.3226H9.71769C9.92087 13.5104 11.4405 12.0968 13.3066 12.0968C14.0921 12.0968 14.8557 12.3515 15.4841 12.8225L17.742 14.5161L19.9999 12.8225C20.6284 12.3515 21.3919 12.0968 22.1775 12.0968C24.0436 12.0968 25.5632 13.5104 25.7664 15.3226H25.8066C27.588 15.3226 29.0324 16.7669 29.0324 18.5484H29.8388V12.0968C29.8388 5.42662 24.4122 0 17.742 0Z" fill="#9FC033"/>
<path d="M14.5162 16.9356C14.5162 17.381 14.1551 17.7421 13.7098 17.7421C13.2644 17.7421 12.9033 17.381 12.9033 16.9356C12.9033 16.4902 13.2644 16.1292 13.7098 16.1292C14.1551 16.1292 14.5162 16.4902 14.5162 16.9356Z" fill="#212C43"/>
<path d="M22.5807 16.9356C22.5807 17.381 22.2196 17.7421 21.7742 17.7421C21.3289 17.7421 20.9678 17.381 20.9678 16.9356C20.9678 16.4902 21.3289 16.1292 21.7742 16.1292C22.2196 16.1292 22.5807 16.4902 22.5807 16.9356Z" fill="#212C43"/>
<path d="M46.7742 46.774H38.7097V38.7095H46.7742V46.774Z" fill="#9FC033"/>
<path d="M37.0969 46.774H30.6453V38.7095H37.0969V46.774Z" fill="#9FC033"/>
<path d="M41.9356 33.8708V27.4192H30.6453V35.4837H45.9678V33.8708H41.9356Z" fill="#9FC033"/>
<path d="M41.129 22.5806C36.2379 22.5806 32.2581 18.6007 32.2581 13.7096C32.2581 8.81851 36.2379 4.83862 41.129 4.83862C46.0201 4.83862 50 8.81851 50 13.7096C50 18.6007 46.0201 22.5806 41.129 22.5806Z" fill="#9FC033"/>
<path d="M17.7419 25C19.521 25 20.9677 23.5532 20.9677 21.7742H19.3548C19.3548 22.6637 18.6315 23.3871 17.7419 23.3871C16.8524 23.3871 16.129 22.6637 16.129 21.7742H14.5161C14.5161 23.5532 15.9628 25 17.7419 25Z" fill="#212C43"/>
<path d="M44.6888 24.1935H27.4194V30.6014L23.3871 29.2571V26.9984C24.7669 25.8572 25.7887 24.3042 26.2813 22.5322C28.279 22.2943 29.8387 20.609 29.8387 18.5483C29.8387 16.5484 28.3711 14.8961 26.4581 14.5822C25.9518 12.6902 24.2266 11.2903 22.1774 11.2903C21.2233 11.2903 20.279 11.6057 19.5163 12.1782L17.7419 13.508L15.9684 12.1782C15.2048 11.6057 14.2606 11.2903 13.3065 11.2903C11.2572 11.2903 9.53212 12.6902 9.02572 14.5822C7.11276 14.8961 5.64516 16.5484 5.64516 18.5483C5.64516 20.609 7.20491 22.2943 9.20253 22.5322C9.69514 24.3042 10.717 25.8572 12.0968 26.9984V29.2571L3.85978 32.004C1.55147 32.7727 0 34.9251 0 37.3582V45.1613H27.4194V50H50V29.5048L44.6888 24.1935ZM28.2258 18.5483C28.2258 19.6104 27.5332 20.5054 26.579 20.8299C26.596 20.6082 26.6129 20.3869 26.6129 20.1613V16.2774C27.5493 16.6114 28.2258 17.4985 28.2258 18.5483ZM7.25806 18.5483C7.25806 17.4985 7.93457 16.6114 8.87097 16.2774V20.1613C8.87097 20.3869 8.8879 20.6082 8.90483 20.8299C7.95072 20.5054 7.25806 19.6104 7.25806 18.5483ZM45.1613 26.9468L47.2467 29.0322H45.1613V26.9468ZM24.0695 31.1846L22.8401 37.3283L18.9855 34.5742L22.7984 30.7613L24.0695 31.1846ZM10.4839 20.1613V15.7258C10.4839 14.1692 11.7499 12.9032 13.3065 12.9032C13.9137 12.9032 14.5146 13.104 15.0009 13.4679L17.7419 15.5242L20.4838 13.4679C20.9693 13.104 21.5702 12.9032 22.1774 12.9032C23.734 12.9032 25 14.1692 25 15.7258V20.1613C25 24.1636 21.7443 27.4193 17.7419 27.4193C13.7396 27.4193 10.4839 24.1636 10.4839 20.1613ZM17.7419 29.0322C19.1942 29.0322 20.5629 28.6743 21.7742 28.0533V29.5048L17.7419 33.537L13.7097 29.5048V28.0533C14.9209 28.6743 16.2897 29.0322 17.7419 29.0322ZM12.6855 30.7613L16.4984 34.5742L12.6437 37.3283L11.4144 31.1846L12.6855 30.7613ZM8.06452 43.5484V38.7096H6.45161V43.5484H1.6129V37.3582C1.6129 35.6201 2.72099 34.0824 4.37012 33.5331L9.87273 31.6993L11.551 40.091L17.7419 35.6685L23.9341 40.091L25.6119 31.6993L27.4194 32.3009V43.5484H8.06452ZM29.0323 48.3871V25.8064H43.5484V30.6451H48.3871V48.3871H29.0323Z" fill="#212C43"/>
<path d="M30.6453 45.1614H37.0969V46.7743H30.6453V45.1614Z" fill="#212C43"/>
<path d="M30.6453 41.9355H37.0969V43.5484H30.6453V41.9355Z" fill="#212C43"/>
<path d="M30.6453 38.7097H37.0969V40.3226H30.6453V38.7097Z" fill="#212C43"/>
<path d="M30.6453 27.4194H32.2582V29.0323H30.6453V27.4194Z" fill="#212C43"/>
<path d="M33.8708 27.4194H41.9354V29.0323H33.8708V27.4194Z" fill="#212C43"/>
<path d="M30.6453 30.6453H41.9356V32.2582H30.6453V30.6453Z" fill="#212C43"/>
<path d="M45.1614 33.8708H46.7743V35.4838H45.1614V33.8708Z" fill="#212C43"/>
<path d="M30.6453 33.8708H43.5485V35.4838H30.6453V33.8708Z" fill="#212C43"/>
<path d="M49.7878 6.99671L48.5994 5.90674L40.238 15.0281L36.7944 12.2737L35.7864 13.533L40.4073 17.2301L49.7878 6.99671Z" fill="#212C43"/>
</g>
<defs>
<clipPath id="clip0">
<rect width="50" height="50" fill="white"/>
</clipPath>
</defs>
</svg>
