<svg width="50" height="50" viewBox="0 0 50 50" fill="none" xmlns="http://www.w3.org/2000/svg">
<g clip-path="url(#clip0)">
<path d="M12.3323 33.6343L13.473 32.4939L17.5049 36.5262L16.3645 37.6665L12.3323 33.6343Z" fill="#9FC033"/>
<path d="M41.129 24.1935H25V20.1759C25 18.3846 26.2026 16.791 27.9242 16.2976L30.6452 15.521V15.3056C29.6402 14.5484 29.0323 13.3572 29.0323 12.0968V10.4839C29.0323 9.35727 29.5087 8.27321 30.3404 7.51047C31.1701 6.75009 32.2896 6.3693 33.4232 6.46696C35.4831 6.64613 37.0968 8.48466 37.0968 10.6516V12.0968C37.0968 13.3572 36.4888 14.5484 35.4839 15.3056V15.521L38.2041 16.2976C39.9264 16.7902 41.129 18.3846 41.129 20.1759V24.1935Z" fill="#9FC033"/>
<path d="M4.83873 45.9677C4.83873 46.4131 4.47764 46.7742 4.03228 46.7742C3.58692 46.7742 3.22583 46.4131 3.22583 45.9677C3.22583 45.5223 3.58692 45.1613 4.03228 45.1613C4.47764 45.1613 4.83873 45.5223 4.83873 45.9677Z" fill="#212C43"/>
<path d="M33.0645 0C23.7265 0 16.129 7.59671 16.129 16.9355C16.129 20.7331 17.4009 24.2306 19.5202 27.0591L16.6016 29.9773L15.3226 28.6983L1.23724 42.7829C0.439453 43.5823 0 44.6435 0 45.7716C0 48.1032 1.89682 50 4.22757 50C5.35731 50 6.41932 49.5605 7.21711 48.7612L21.3017 34.6774L20.0227 33.3984L22.941 30.4798C25.7694 32.5991 29.2669 33.871 33.0645 33.871C42.4025 33.871 50 26.2743 50 16.9355C50 7.59671 42.4025 0 33.0645 0ZM6.07595 47.6216C5.58294 48.1154 4.92652 48.3871 4.22757 48.3871C2.78557 48.3871 1.6129 47.2136 1.6129 45.7716C1.6129 45.0735 1.88461 44.4171 2.3784 43.9225L15.3226 30.9791L19.0209 34.6774L6.07595 47.6216ZM18.8823 32.2581L17.7419 31.1177L20.5515 28.3073C20.9138 28.7058 21.2942 29.0854 21.6927 29.4485L18.8823 32.2581ZM33.0645 32.2581C24.6153 32.2581 17.7419 25.3847 17.7419 16.9355C17.7419 8.48625 24.6153 1.6129 33.0645 1.6129C41.5138 1.6129 48.3871 8.48625 48.3871 16.9355C48.3871 25.3847 41.5138 32.2581 33.0645 32.2581Z" fill="#212C43"/>
<path d="M43.329 7.87L42.1209 8.9387C46.3442 13.7144 46.1241 20.9847 41.6185 25.4887C37.1137 29.9943 29.845 30.2144 25.0685 25.9911L24.001 27.1992C26.5952 29.4934 29.8379 30.6306 33.0751 30.6306C36.5912 30.6306 40.1009 29.2878 42.7596 26.6291C47.8661 21.5234 48.1162 13.2832 43.329 7.87Z" fill="#212C43"/>
<path d="M24.5112 8.38225C29.0168 3.87746 36.2855 3.65655 41.0612 7.87979L42.1291 6.67169C36.7167 1.88535 28.4773 2.1354 23.3701 7.24187C18.2628 12.3484 18.012 20.5877 22.7999 26.0017L24.008 24.933C19.7848 20.1565 20.0057 12.8862 24.5112 8.38225Z" fill="#212C43"/>
<path d="M11.2903 0H12.9032V1.6129H11.2903V0Z" fill="#212C43"/>
<path d="M11.2903 3.22583H12.9032V4.83873H11.2903V3.22583Z" fill="#212C43"/>
<path d="M12.9033 1.61292H14.5162V3.22582H12.9033V1.61292Z" fill="#212C43"/>
<path d="M9.67749 1.61292H11.2904V3.22582H9.67749V1.61292Z" fill="#212C43"/>
<path d="M1.61279 11.2903H3.2257V12.9032H1.61279V11.2903Z" fill="#212C43"/>
<path d="M1.61279 14.5161H3.2257V16.129H1.61279V14.5161Z" fill="#212C43"/>
<path d="M3.22583 12.9032H4.83873V14.5161H3.22583V12.9032Z" fill="#212C43"/>
<path d="M0 12.9032H1.6129V14.5161H0V12.9032Z" fill="#212C43"/>
<path d="M10.4839 22.5807H12.0968V24.1936H10.4839V22.5807Z" fill="#212C43"/>
<path d="M10.4839 25.8064H12.0968V27.4193H10.4839V25.8064Z" fill="#212C43"/>
<path d="M12.0967 24.1936H13.7096V25.8065H12.0967V24.1936Z" fill="#212C43"/>
<path d="M8.87085 24.1936H10.4838V25.8065H8.87085V24.1936Z" fill="#212C43"/>
<path d="M46.7742 37.0968H48.3871V38.7097H46.7742V37.0968Z" fill="#212C43"/>
<path d="M46.7742 40.3226H48.3871V41.9355H46.7742V40.3226Z" fill="#212C43"/>
<path d="M48.3872 38.7097H50.0001V40.3226H48.3872V38.7097Z" fill="#212C43"/>
<path d="M45.1614 38.7097H46.7743V40.3226H45.1614V38.7097Z" fill="#212C43"/>
<path d="M32.2581 45.1613H33.871V46.7742H32.2581V45.1613Z" fill="#212C43"/>
<path d="M32.2581 48.3871H33.871V50H32.2581V48.3871Z" fill="#212C43"/>
<path d="M33.8708 46.7742H35.4838V48.3871H33.8708V46.7742Z" fill="#212C43"/>
<path d="M30.6453 46.7742H32.2582V48.3871H30.6453V46.7742Z" fill="#212C43"/>
<path d="M24.1936 34.6774H25.8065V36.2903H24.1936V34.6774Z" fill="#212C43"/>
<path d="M24.1936 37.9032H25.8065V39.5161H24.1936V37.9032Z" fill="#212C43"/>
<path d="M25.8064 36.2903H27.4193V37.9032H25.8064V36.2903Z" fill="#212C43"/>
<path d="M22.5806 36.2903H24.1935V37.9032H22.5806V36.2903Z" fill="#212C43"/>
</g>
<defs>
<clipPath id="clip0">
<rect width="50" height="50" fill="white"/>
</clipPath>
</defs>
</svg>
