<?xml version="1.0" encoding="utf-8"?>
<!-- Generator: Adobe Illustrator 23.0.1, SVG Export Plug-In . SVG Version: 6.00 Build 0)  -->
<svg version="1.1" id="Layer_1" xmlns="http://www.w3.org/2000/svg" xmlns:xlink="http://www.w3.org/1999/xlink" x="0px" y="0px"
	 width="50px" height="50px" viewBox="0 0 50 50" enable-background="new 0 0 50 50" xml:space="preserve">
<path fill="#212C43" fill-opacity="0.8" d="M25.1,49.3c13.3,0,24.2-10.8,24.2-24.2c0-13.4-10.8-24.2-24.2-24.2
	C11.8,0.9,1,11.7,1,25.1C1,38.5,11.8,49.3,25.1,49.3z"/>
<path fill="#FEFEFE" d="M14.6,21.5c0.4-0.1,0.5-0.3,0.7-0.5c1.8-1.5,3.7-1.9,5.9-1.1c1.5,0.5,2.4,1.7,2.7,3.3c0.2,1,0.2,1.9,0.2,2.9
	c0,2.7,0,5.4,0,8c0,0.7-0.2,0.9-0.9,0.9c-0.8-0.1-1.6,0-2.3,0c-0.6,0-0.7-0.2-0.7-0.7c0-2.8,0-5.6,0-8.4c0-0.3,0-0.5,0-0.8
	c-0.1-1.4-0.6-2.1-1.7-2.4c-1.3-0.3-2.7,0.3-3.3,1.4c-0.5,0.9-0.6,1.8-0.6,2.8c0,2.4,0,4.8,0,7.2c0,0.9,0,0.9-1,0.9
	c-0.7,0-1.5,0-2.3,0c-0.5,0-0.7-0.2-0.7-0.7c0-3,0-6,0-9c0-3.7,0-7.3,0-11c0-0.6,0.1-0.9,0.8-0.8c0.8,0.1,1.7,0,2.5,0
	c0.5,0,0.7,0.2,0.7,0.7c0,2.2,0,4.4,0,6.6C14.6,21,14.6,21.2,14.6,21.5z"/>
<path fill="#FEFEFE" d="M30.2,21.5c1-1,2.1-1.8,3.5-2c3.2-0.5,5.5,1.3,5.7,4.5c0.2,3.5,0,6.9,0.1,10.4c0,0.4-0.2,0.6-0.6,0.5
	c-0.8,0-1.7,0-2.5,0c-0.6,0-0.8-0.1-0.8-0.8c0-2.5,0-4.9,0-7.4c0-0.8,0-1.6-0.1-2.3c-0.2-1-0.7-1.6-1.7-1.8
	c-1.6-0.3-3.1,0.6-3.5,2.2C30,25.7,30,26.6,30,27.5c0,2.3,0,4.5,0,6.8c0,0.5-0.1,0.7-0.7,0.7c-0.7,0-1.5,0-2.3,0c-1,0-1,0-1-0.9
	c0-4.7,0-9.4,0-14.1c0-1.9,0-3.8,0-5.8c0-0.5,0.1-0.7,0.7-0.7c0.8,0,1.7,0,2.5,0c0.6,0,0.8,0.1,0.8,0.8c0,2.1,0,4.3,0,6.4
	C30,20.9,30,21.2,30.2,21.5z"/>
</svg>
