<svg width="60" height="60" viewBox="0 0 60 60" fill="none" xmlns="http://www.w3.org/2000/svg">
<path d="M30 59.1176C46.0383 59.1176 59.04 46.0812 59.04 30C59.04 13.9187 46.0383 0.882324 30 0.882324C13.9616 0.882324 0.959961 13.9187 0.959961 30C0.959961 46.0812 13.9616 59.1176 30 59.1176Z" fill="#212C43" fill-opacity="0.8"/>
<path d="M17.3806 25.6764C17.8382 25.5882 17.9966 25.2705 18.2254 25.0764C20.3374 23.2235 22.7134 22.7823 25.3358 23.7176C27.1838 24.3705 28.2222 25.7294 28.6094 27.6352C28.8382 28.7999 28.8382 29.9647 28.8382 31.147C28.8558 34.3764 28.803 37.5882 28.8558 40.8176C28.8734 41.6999 28.5918 41.9294 27.7646 41.8764C26.8318 41.8058 25.899 41.8235 24.9662 41.8764C24.2974 41.9117 24.1214 41.6646 24.1214 41.0294C24.139 37.6588 24.1214 34.2882 24.1038 30.9176C24.1038 30.5999 24.0862 30.2647 24.0686 29.947C23.963 28.2176 23.3646 27.3705 22.027 27.0705C20.4782 26.7176 18.8414 27.3882 18.1022 28.7117C17.539 29.7529 17.4158 30.8823 17.4158 32.0294C17.3806 34.9235 17.3982 37.8352 17.3982 40.7294C17.3982 41.8411 17.3982 41.8411 16.2366 41.8588C15.339 41.8588 14.4238 41.8235 13.5262 41.8764C12.875 41.9117 12.6814 41.6823 12.6814 41.0294C12.7166 37.4294 12.699 33.8294 12.699 30.2117C12.699 25.8176 12.7166 21.4235 12.6814 17.0294C12.6814 16.2882 12.8222 15.9705 13.6494 16.0235C14.635 16.0941 15.6382 16.0764 16.6238 16.0235C17.2398 15.9882 17.4334 16.2176 17.4158 16.8176C17.3806 19.447 17.3982 22.0941 17.3982 24.7235C17.3806 25.0235 17.3806 25.3235 17.3806 25.6764Z" fill="#FEFEFE"/>
<path d="M36.0896 25.6765C37.304 24.4235 38.6416 23.5588 40.3488 23.3118C44.168 22.7647 46.9488 24.8647 47.2304 28.7118C47.5296 32.8588 47.2832 37.0235 47.3536 41.1882C47.3536 41.7 47.16 41.8588 46.6848 41.8412C45.664 41.8235 44.6432 41.7882 43.6224 41.8588C42.8656 41.9118 42.6192 41.6824 42.6368 40.8882C42.6896 37.9235 42.6544 34.9765 42.6544 32.0118C42.6544 31.0765 42.6544 30.1412 42.496 29.2059C42.3024 27.9882 41.616 27.2647 40.4192 27.0176C38.4832 26.6294 36.7232 27.7412 36.1952 29.6824C35.9136 30.7059 35.896 31.7647 35.896 32.8235C35.896 35.5412 35.8784 38.2765 35.896 40.9941C35.896 41.6294 35.7376 41.8941 35.0688 41.8588C34.1712 41.8059 33.256 41.8412 32.3584 41.8412C31.1968 41.8412 31.1968 41.8412 31.1968 40.7118C31.1968 35.0647 31.1968 29.4 31.1968 23.7529C31.1968 21.4412 31.2144 19.1294 31.1792 16.8176C31.1792 16.2176 31.3552 15.9882 31.9712 16.0059C32.9568 16.0412 33.96 16.0588 34.9456 16.0059C35.6672 15.9706 35.9136 16.1824 35.896 16.9235C35.8608 19.5 35.8784 22.0765 35.8784 24.6529C35.896 24.9529 35.808 25.2882 36.0896 25.6765Z" fill="#FEFEFE"/>
</svg>
