<svg width="13" height="13" viewBox="0 0 13 13" fill="#FAFCFE" xmlns="http://www.w3.org/2000/svg">
<path class="st0" d="M9.5,0H3.5C1.7,0,0,1.7,0,3.5v5.9c0,2,1.7,3.5,3.5,3.5h5.9c2,0,3.5-1.7,3.5-3.5V3.5C13,1.7,11.3,0,9.5,0z
		 M11,9c0,1.1-0.9,2-2,2H4c-1.1,0-2-0.9-2-2V4c0-1.1,0.9-2,2-2h5c1.1,0,2,0.9,2,2V9L11,9z"/>
	<path class="st0" d="M6.5,3.2c-1.9,0-3.3,1.5-3.3,3.3c0,1.9,1.5,3.3,3.3,3.3s3.3-1.5,3.3-3.3C9.8,4.6,8.4,3.2,6.5,3.2z M6.5,8
		C5.7,8,5,7.4,5,6.5C5,5.7,5.6,5,6.5,5S8,5.6,8,6.5C8,7.3,7.3,8,6.5,8z"/>
	<circle class="st0" cx="9.4" cy="3.2" r="0.9"/>
</svg>
