<?xml version="1.0" encoding="utf-8"?>
<!-- Generator: Adobe Illustrator 23.0.1, SVG Export Plug-In . SVG Version: 6.00 Build 0)  -->
<svg version="1.1" id="Layer_1" xmlns="http://www.w3.org/2000/svg" xmlns:xlink="http://www.w3.org/1999/xlink" x="0px" y="0px"
	 viewBox="0 0 11 11" style="enable-background:new 0 0 11 11;" xml:space="preserve">
<style type="text/css">
	.st0{fill:#FFFFFF;}
</style>
<g>
	<path class="st0" d="M8,0H3C1.4,0,0,1.4,0,3V8c0,1.7,1.4,3,3,3H8c1.7,0,3-1.4,3-3V3C11,1.4,9.6,0,8,0z M10,8C10,9.1,9.1,10,8,10H3
		C1.9,10,1,9.1,1,8V3C1,1.9,1.9,1,3,1H8C9.1,1,10,1.9,10,3L10,8L10,8z"/>
	<path class="st0" d="M5.5,2.7c-1.6,0-2.8,1.3-2.8,2.8c0,1.6,1.3,2.8,2.8,2.8s2.8-1.3,2.8-2.8C8.3,3.9,7.1,2.7,5.5,2.7z M5.5,7.4
		c-1,0-1.9-0.8-1.9-1.9c0-1,0.8-1.9,1.9-1.9s1.9,0.8,1.9,1.9C7.4,6.5,6.5,7.4,5.5,7.4z"/>
	<path class="st0" d="M8.5,1.8C8.3,1.8,8.1,1.9,7.9,2C7.8,2.2,7.7,2.4,7.7,2.6c0,0.2,0.1,0.4,0.2,0.5c0.1,0.1,0.3,0.2,0.5,0.2
		c0.2,0,0.4-0.1,0.5-0.2c0.1-0.1,0.2-0.3,0.2-0.5C9.2,2.4,9.1,2.2,9,2C8.8,1.9,8.6,1.8,8.5,1.8z"/>
</g>
</svg>
