<svg width="105" height="62" viewBox="0 0 105 62" fill="none" xmlns="http://www.w3.org/2000/svg">
<g clip-path="url(#clip0)">
<path d="M56.3318 20.1769C55.5875 20.5151 55.3665 21.2382 54.9828 21.8213C54.913 21.9263 55.1805 22.3228 55.3665 22.5211C56.6457 23.8973 57.9482 25.2502 59.2274 26.6148C60.5415 28.0027 61.8673 29.3906 63.1465 30.8134C64.2978 31.8748 63.2279 33.4259 60.6462 33.251C59.8321 33.2743 59.2391 32.9594 59.1228 32.0264C59.0762 31.6765 58.9134 31.3149 58.739 31C58.1924 30.0087 56.4829 28.4109 56.4364 28.3759C55.2968 27.2796 50.1101 21.938 49.5985 21.2732L49.6101 21.2615C49.5287 21.1799 49.4473 21.0982 49.3659 21.0166L49.3891 21.0283C49.238 20.795 49.0984 20.5734 48.9472 20.3402L48.9589 20.3635C48.8774 20.3635 48.7844 20.3635 48.703 20.3635L48.7146 20.3402C47.9355 19.2905 47.889 19.0572 47.9122 19.0689C47.889 19.0572 47.8657 19.0339 47.8425 19.0222C46.4004 18.1825 45.2724 18.2292 43.9932 19.3022C43.0396 20.1069 42.1325 20.9933 41.272 21.903C40.8417 22.3578 40.4928 22.3928 40.0509 22.0313C38.8298 21.0166 37.5274 20.0836 36.411 18.9639C32.2826 14.8353 28.1659 10.6833 24.712 5.94813C23.2002 3.87213 23.5026 4.23368 25.2702 3.32397C27.4216 2.216 29.6777 1.2713 31.8756 0.233304C32.5268 -0.0815945 32.9803 -0.0116171 33.5269 0.536539C37.7134 4.81683 41.9232 9.07379 46.1446 13.3307C47.4238 14.6137 48.7146 15.8733 50.0404 17.1095C50.4823 17.5177 50.3195 17.7743 49.9822 18.0892C49.7613 18.3341 49.5287 18.5674 49.3077 18.8123C49.5868 18.6257 49.8659 18.4508 50.1334 18.2642C50.7381 17.7743 51.1568 18.0309 51.6219 18.5441C52.4592 19.4654 52.4825 19.4421 53.3663 18.5441C54.1338 17.7627 54.1338 17.7626 55.0409 18.4158C55.2735 18.5791 55.541 18.719 55.7852 18.8706L55.8666 18.894L55.8433 18.8006C55.5875 18.5324 55.3782 18.2175 55.0874 18.0192C54.5525 17.646 54.7037 17.3778 55.0874 16.9812C60.5764 11.488 66.0538 5.99478 71.5195 0.478225C72.0079 -0.02328 72.4614 -0.139909 73.0894 0.151664C75.6595 1.36461 78.2295 2.55422 80.7879 3.79049C81.5671 4.1637 81.5787 4.25701 81.0554 4.93345C79.4622 6.97446 77.8923 9.02713 76.2177 10.9865C73.0778 14.672 69.589 18.0309 65.9956 21.2732C65.7979 21.4481 65.6119 21.6231 65.4025 21.763C65.1002 21.9613 64.7629 22.2879 64.4606 22.2762C64.1931 22.2645 63.9489 21.8563 63.693 21.6231C62.8208 20.83 61.9719 20.0136 61.0765 19.2322C60.1578 18.4391 59.1228 18.2758 57.9947 18.754C57.7854 18.859 57.5761 18.9523 57.3668 19.0572C57.5645 19.0339 57.0528 19.8503 56.3318 20.1769ZM32.6896 2.77582C32.3989 2.68251 32.0849 2.76415 31.8756 2.99741C31.7825 3.10238 31.7011 3.21901 31.6662 3.3473C31.5383 3.80215 32.1663 4.3853 32.7129 4.3853C33.1083 4.37364 33.4106 4.19869 33.4455 3.74384C33.4688 3.31231 33.1897 2.9391 32.6896 2.77582ZM71.7986 3.77883C71.973 4.25701 72.5545 4.42029 72.9848 4.1637C73.3104 3.9771 73.5313 3.67386 73.5313 3.38229C73.5313 2.92744 73.2522 2.7175 72.8452 2.68251C72.2638 2.63586 71.6823 3.11404 71.7637 3.65054C71.7753 3.69719 71.787 3.74384 71.7986 3.77883ZM59.3902 29.099C59.5647 28.9824 59.5647 28.7258 59.4019 28.5975C59.3321 28.5392 59.2623 28.5042 59.1925 28.4692C59.1809 28.4692 59.1693 28.4692 59.1577 28.4809C59.0181 28.5975 59.0181 28.8191 59.146 28.9357C59.2042 28.994 59.3553 29.099 59.3553 29.099C59.3553 29.099 59.367 29.1107 59.3902 29.099ZM52.8197 22.3228C52.9826 22.2645 53.0058 22.0429 52.8663 21.9496C52.6802 21.8213 52.5755 21.7514 52.4709 21.728C52.4476 21.728 52.436 21.728 52.4127 21.7514C52.2732 21.8563 52.2732 22.0663 52.4011 22.1829C52.4709 22.2529 52.5523 22.3112 52.6337 22.3462C52.6918 22.3695 52.75 22.3578 52.8197 22.3228ZM55.9713 25.7051C56.1689 25.6584 56.2504 25.4019 56.1224 25.2386C56.0759 25.1803 56.0294 25.1336 55.9829 25.1219C55.9596 25.1103 55.9247 25.1219 55.9015 25.1336C55.7154 25.2152 55.6689 25.4835 55.8201 25.6234C55.8433 25.6468 55.8782 25.6818 55.9131 25.6934C55.9131 25.7168 55.9364 25.7168 55.9713 25.7051Z" fill="#212C43" fill-opacity="0.8"/>
<path d="M0 54.1392C0 51.9232 0 49.6956 0 47.4797C0 46.43 0.0116292 46.4183 1.02337 46.4183C1.75601 46.4183 2.7096 46.2201 3.16314 46.5933C3.60505 46.9548 3.57016 47.9345 3.68645 48.6576C4.12836 51.2118 4.53539 53.7543 4.96567 56.3085C4.98892 56.4718 5.09359 56.6234 5.15173 56.775C5.22151 56.6117 5.32617 56.4484 5.36106 56.2852C5.57038 55.0139 5.76808 53.731 5.96578 52.4481C6.23325 50.7336 6.46583 49.0075 6.75656 47.2931C6.90774 46.4183 6.94263 46.4183 7.82645 46.4067C8.26836 46.395 8.71027 46.395 9.15217 46.4067C10.0941 46.43 10.129 46.4533 10.129 47.4447C10.1407 51.8882 10.1407 56.3318 10.129 60.7754C10.129 61.8134 10.1174 61.8134 9.09403 61.8367C8.94285 61.8367 8.8033 61.8367 8.65212 61.8484C8.10555 61.895 7.94274 61.6151 7.97763 61.1136C8.00089 60.6354 7.97763 60.1456 7.97763 59.6674C7.97763 57.2998 7.97763 54.9323 7.97763 52.5647C7.97763 52.3431 7.95437 52.1215 7.93111 51.8999C7.91948 51.8299 7.86134 51.7716 7.82645 51.7133C7.77993 51.7716 7.72179 51.8183 7.71016 51.8766C7.67527 52.0165 7.67527 52.1682 7.65201 52.3198C7.2101 55.2472 6.75656 58.1629 6.33791 61.0903C6.25651 61.6384 6.03555 61.895 5.48898 61.8717C3.89578 61.8017 4.04696 62.1866 3.76786 60.4722C3.32595 57.813 2.88404 55.1539 2.44213 52.4947C2.41887 52.3548 2.3491 52.2265 2.30258 52.0982C2.24443 52.2498 2.13977 52.4014 2.13977 52.553C2.12814 55.0722 2.12814 57.5914 2.11651 60.1106C2.11651 60.3322 2.11651 60.5538 2.11651 60.7754C2.10488 61.825 2.02348 61.895 0.976852 61.8717C0.0814043 61.8484 0.0232584 61.8251 0.0232584 60.9387C0 58.6527 0 56.3901 0 54.1392Z" fill="#212C43" fill-opacity="0.8"/>
<path d="M81.4275 46.4417C82.0903 46.4417 82.7648 46.3951 83.4161 46.4534C84.8813 46.5933 85.8001 47.4797 85.9163 48.9376C85.9978 49.8473 86.0559 50.8037 85.8582 51.6784C85.6954 52.3781 85.1256 52.9846 84.7418 53.6377C85.2884 54.1276 85.9163 54.5824 86.0675 55.3522C86.3466 56.7751 86.4397 58.2213 86.0675 59.6441C85.7768 60.7754 85.0209 61.5685 83.8463 61.6852C82.3811 61.8251 80.9041 61.7784 79.4272 61.8251C78.9853 61.8368 78.869 61.5685 78.8807 61.1836C78.8923 60.2623 78.8807 59.3292 78.8807 58.4079C78.8807 54.8973 78.8807 51.3868 78.8807 47.8646C78.8807 47.608 78.8923 47.3514 78.8807 47.0832C78.869 46.6283 79.09 46.4067 79.5435 46.4067C80.1715 46.4184 80.7995 46.4067 81.4275 46.4067C81.4275 46.4184 81.4275 46.4301 81.4275 46.4417ZM81.2065 57.2299C81.2065 57.8597 81.1833 58.4778 81.2181 59.1076C81.2298 59.3059 81.3112 59.5858 81.4507 59.6675C82.3694 60.204 83.7649 59.5392 83.9045 58.4778C83.9859 57.8247 83.9859 57.1483 83.9278 56.4952C83.8231 55.1889 83.2765 54.7574 81.7415 54.8157C81.3809 54.8274 81.2065 55.0023 81.2065 55.3522C81.2065 55.982 81.2065 56.6001 81.2065 57.2299ZM81.2065 50.6054C81.2065 51.1186 81.1949 51.6434 81.2181 52.1566C81.2298 52.3198 81.3112 52.5414 81.4275 52.6114C82.0903 53.0079 83.4161 52.5414 83.5324 51.795C83.6603 51.0136 83.6603 50.1855 83.544 49.3924C83.4277 48.611 82.7997 48.3894 81.6833 48.4944C80.846 48.576 81.2879 49.2058 81.2065 49.6024C81.1484 49.9406 81.2065 50.2788 81.2065 50.6054Z" fill="#212C43" fill-opacity="0.8"/>
<path d="M36.4807 54.1627C36.4807 56.3903 36.4807 58.6063 36.4807 60.8339C36.4807 61.8252 36.4691 61.8252 35.5271 61.8486C35.4108 61.8486 35.3062 61.8486 35.1899 61.8486C34.1316 61.8369 34.1316 61.8369 34.12 60.8222C34.1084 59.2711 34.12 57.7082 34.1084 56.1571C34.0967 55.2124 34.0851 55.1774 33.2129 55.1891C30.9103 55.2124 31.2127 54.8392 31.1894 57.1601C31.1778 58.4197 31.2011 59.6793 31.1778 60.9389C31.1662 61.8136 31.1545 61.8136 30.3289 61.8486C30.073 61.8602 29.8172 61.8486 29.5497 61.8369C29.1078 61.8252 28.8636 61.6153 28.852 61.1488C28.852 60.9972 28.8403 60.8572 28.8403 60.7056C28.852 56.297 28.852 51.8884 28.8752 47.4799C28.8752 47.1066 28.6775 46.5352 29.2357 46.4535C29.7939 46.3602 30.3986 46.4419 30.9685 46.5585C31.0848 46.5818 31.1545 47.0833 31.1545 47.3632C31.1778 48.8794 31.1662 50.3956 31.1778 51.9234C31.1894 53.0197 31.2127 53.0547 32.2942 53.0664C34.3642 53.0781 34.0735 53.1714 34.0967 51.2936C34.1084 49.9641 34.0851 48.6228 34.1084 47.2933C34.12 46.4535 34.1549 46.4419 35.0038 46.4069C36.4575 46.3486 36.4575 46.3486 36.4691 47.8297C36.4924 49.9407 36.4924 52.0517 36.4807 54.1627Z" fill="#212C43" fill-opacity="0.8"/>
<path d="M19.4555 54.2443C19.4555 56.4719 19.4672 58.6878 19.4555 60.9155C19.4555 61.8252 19.4323 61.8252 18.5136 61.8368C18.4438 61.8368 18.3624 61.8368 18.2926 61.8368C17.2344 61.8018 17.153 61.7319 17.1297 60.6939C17.1181 60.3207 17.1413 59.9474 17.1413 59.5859C17.153 58.6179 17.1762 57.6615 17.1413 56.6935C17.1181 56.2736 17.3855 55.6672 16.6762 55.5039C16.0133 55.3406 15.083 55.6788 14.8504 56.2386C14.6876 56.6352 14.6062 57.09 14.5829 57.5216C14.5364 58.338 14.5945 59.1544 14.5248 59.9591C14.4201 61.347 12.8618 62.2917 11.5709 61.8019C11.4779 61.7669 11.3732 61.6969 11.3151 61.6152C11.0825 61.242 11.2802 59.9708 11.664 59.7025C12.0826 59.4109 12.1757 59.0261 12.1873 58.5596C12.2106 57.8598 12.2687 57.16 12.3385 56.4602C12.4082 55.6905 12.699 55.014 13.3618 54.5708C13.6758 54.3609 13.6293 54.186 13.3735 53.9877C12.5245 53.3462 12.3036 52.4132 12.292 51.4218C12.2803 50.5005 12.2803 49.5674 12.4082 48.6577C12.5827 47.4681 13.4432 46.5934 14.6178 46.5001C16.0133 46.3835 17.4204 46.4418 18.8276 46.4185C19.2346 46.4185 19.4323 46.6284 19.4323 47.0249C19.4323 47.2815 19.4439 47.5381 19.4439 47.8063C19.4555 49.9523 19.4555 52.0983 19.4555 54.2443ZM17.153 50.8504C17.153 50.2905 17.1646 49.7424 17.1413 49.1826C17.1297 48.9726 17.0832 48.7044 16.9436 48.5878C16.4668 48.2029 15.0016 48.5761 14.8039 49.1592C14.4201 50.3139 14.4317 51.5035 14.8155 52.6465C15.0132 53.2413 15.8156 53.4745 16.6529 53.3346C17.4088 53.2063 17.0948 52.5998 17.1413 52.1799C17.1995 51.7484 17.153 51.2936 17.153 50.8504Z" fill="#212C43" fill-opacity="0.8"/>
<path d="M54.9247 54.1742C54.9247 56.3902 54.9247 58.6178 54.9247 60.8337C54.9247 61.8251 54.913 61.8251 53.9478 61.8368C52.6802 61.8368 52.5988 61.7551 52.5988 60.4372C52.5988 59.1776 52.6454 57.918 52.6105 56.6584C52.5988 56.2386 52.8547 55.6321 52.122 55.4921C51.4127 55.3522 50.5405 55.7021 50.3311 56.2852C50.1567 56.7634 50.0869 57.2882 50.052 57.8014C50.0055 58.4312 50.0637 59.061 50.0404 59.6908C49.9939 61.2536 48.61 62.245 47.1099 61.8134C47.0168 61.7901 46.9005 61.7318 46.8424 61.6618C46.6331 61.4052 46.7377 59.924 47.0285 59.7957C47.7029 59.4692 47.7029 58.886 47.7378 58.2912C47.7727 57.6964 47.7843 57.1133 47.8425 56.5185C47.9123 55.7604 48.1565 55.0606 48.831 54.6174C49.1682 54.3842 49.1682 54.1976 48.8542 53.9526C48.1681 53.4161 47.8541 52.658 47.8309 51.8183C47.8076 50.757 47.7844 49.6723 47.9239 48.6227C48.0751 47.4214 49.0287 46.5583 50.2614 46.4767C51.5871 46.3951 52.9128 46.4417 54.2502 46.4067C54.913 46.3951 54.9363 46.8149 54.9363 47.2931C54.9363 49.1825 54.9363 51.0719 54.9363 52.9613C54.9247 53.3578 54.9247 53.766 54.9247 54.1742ZM52.6221 50.8969C52.6221 50.3021 52.6454 49.719 52.6221 49.1242C52.6105 48.9259 52.5291 48.646 52.3895 48.5644C51.5871 48.0862 50.273 48.716 50.1916 49.649C50.1218 50.3488 50.1334 51.0486 50.1567 51.7483C50.1916 52.9846 50.6568 53.3695 51.8778 53.3578C52.4942 53.3578 52.6454 53.0896 52.6337 52.5531C52.6105 52.0049 52.6221 51.4568 52.6221 50.8969Z" fill="#212C43" fill-opacity="0.8"/>
<path d="M68.4145 54.1159C68.4145 56.3785 68.4145 58.6411 68.4145 60.8921C68.4145 61.7901 68.4029 61.7901 67.4958 61.8251C67.3795 61.8251 67.2748 61.8368 67.1586 61.8368C66.0887 61.8484 66.077 61.8484 66.077 60.7288C66.077 57.02 66.077 53.3229 66.0654 49.6141C66.0654 49.2642 65.9956 48.6577 65.8445 48.6227C65.3328 48.4944 64.7629 48.5061 64.228 48.5877C64.1117 48.5994 63.9838 49.0776 63.9838 49.3342C63.9605 51.2235 64.0303 53.1129 63.9489 55.0023C63.8908 56.4019 63.7861 57.8247 63.4721 59.1776C63.0883 60.8804 61.8789 61.7435 60.2043 61.8251C59.5414 61.8601 59.4368 61.7668 59.4135 61.102C59.4019 60.8454 59.4251 60.5889 59.4135 60.3206C59.4019 59.9824 59.5182 59.7724 59.8903 59.7025C61.0881 59.4809 61.4486 58.5362 61.5998 57.5098C61.7394 56.6351 61.7859 55.7371 61.7975 54.8507C61.8208 52.4015 61.7975 49.964 61.8091 47.5147C61.8091 46.3951 61.8324 46.3834 62.9139 46.3718C64.3908 46.3601 65.8677 46.3601 67.3446 46.3718C68.3912 46.3834 68.4029 46.3834 68.4145 47.4098C68.4145 49.6724 68.4145 51.8883 68.4145 54.1159Z" fill="#212C43" fill-opacity="0.8"/>
<path d="M87.5212 54.151C87.5212 51.8884 87.5096 49.6258 87.5328 47.3749C87.5328 47.0367 87.3933 46.5235 87.905 46.4652C88.4748 46.4069 89.0912 46.4419 89.6261 46.6051C89.7773 46.6518 89.8238 47.2699 89.8238 47.6315C89.8354 48.961 89.7773 50.3023 89.8122 51.6318C89.8238 52.075 89.4865 52.7398 90.2773 52.8914C91.2774 53.078 92.1729 52.7048 92.4287 51.9701C92.545 51.6318 92.5799 51.247 92.5915 50.8854C92.6148 50.069 92.5799 49.2526 92.6148 48.4362C92.6962 46.9434 94.1615 45.952 95.5337 46.4535C95.6965 46.5118 95.8477 46.7568 95.8826 46.9317C95.9407 47.2583 95.9524 47.6081 95.8942 47.923C95.8593 48.133 95.6733 48.4245 95.5105 48.4595C94.7778 48.6112 94.7197 49.136 94.7081 49.7191C94.6964 50.2789 94.6964 50.8271 94.6383 51.3753C94.5569 52.2033 94.2661 52.9614 93.58 53.4979C93.3242 53.6962 93.2893 53.9178 93.58 54.1277C94.5918 54.8391 94.6034 55.9471 94.6964 57.0084C94.7429 57.5216 94.6964 58.0464 94.7081 58.5596C94.7197 59.1077 94.836 59.5626 95.4872 59.7375C95.9059 59.8542 96.057 60.6939 95.9059 61.3937C95.7896 61.9418 95.3593 61.8135 95.022 61.8135C93.4405 61.8252 92.6381 61.0438 92.6032 59.4576C92.5799 58.6062 92.6381 57.7549 92.5683 56.9035C92.4752 55.6205 91.7891 55.0257 90.5797 55.0024C89.9982 54.9908 89.8005 55.224 89.8005 55.7838C89.8122 57.3 89.7889 58.8162 89.7773 60.344C89.7656 61.8719 89.7075 61.9068 88.2306 61.8369C87.6375 61.8135 87.4863 61.5686 87.4863 61.0205C87.5096 59.2827 87.498 57.5333 87.498 55.7955C87.5212 55.259 87.5212 54.6992 87.5212 54.151Z" fill="#212C43" fill-opacity="0.8"/>
<path d="M41.7489 46.4067C43.5049 46.4067 43.4932 46.4067 43.7607 48.1561C44.4003 52.2381 45.0516 56.3201 45.7144 60.4022C45.947 61.86 45.9586 61.86 44.4352 61.8367C43.563 61.8134 43.5863 61.8134 43.4235 60.927C43.0164 58.781 43.5281 59.0726 41.2023 59.0493C40.0743 59.0376 40.0743 59.0609 39.8766 60.1689C39.83 60.4255 39.8184 60.6821 39.7835 60.9387C39.6556 61.79 39.6091 61.8367 38.7253 61.86C37.5158 61.895 37.4809 61.895 37.6786 60.6587C38.3531 56.3201 39.0509 51.9815 39.7603 47.643C39.958 46.4067 39.9928 46.4067 41.2953 46.395C41.4581 46.395 41.5977 46.4067 41.7489 46.4067ZM41.5395 56.9733C41.5395 56.9733 41.5395 56.9616 41.5395 56.9733C41.6558 56.9616 41.7605 56.9733 41.8768 56.9616C42.8071 56.9383 42.8304 56.9033 42.6908 56.0052C42.5629 55.1655 42.4466 54.3258 42.3187 53.4861C42.1442 52.3548 41.9698 51.2235 41.7721 50.0922C41.7489 49.9872 41.5977 49.9056 41.493 49.8123C41.4465 49.9172 41.3884 50.0105 41.3767 50.1155C41.2488 50.9552 41.1209 51.7949 40.993 52.6347C40.8185 53.8359 40.6441 55.0489 40.4696 56.2502C40.3882 56.7517 40.5162 57.0549 41.0976 56.9733C41.2372 56.9616 41.3884 56.9733 41.5395 56.9733Z" fill="#212C43" fill-opacity="0.8"/>
<path d="M73.6246 46.4067C75.4503 46.4067 75.4271 46.4067 75.7062 48.2028C76.3342 52.2498 76.9854 56.2969 77.6366 60.3439C77.8808 61.8601 77.9041 61.8717 76.3225 61.8251C75.4969 61.8018 75.5317 61.8018 75.3689 60.9737C74.9503 58.7577 75.4969 59.061 73.0896 59.0377C72.0314 59.026 72.0314 59.0493 71.822 60.099C71.7988 60.2389 71.7755 60.3905 71.7523 60.5422C71.5895 61.7901 71.0661 62.14 69.8335 61.8484C69.473 61.7668 69.4962 61.5452 69.5311 61.2653C69.7172 60.099 69.8683 58.9327 70.0544 57.7664C70.5894 54.4075 71.1127 51.0602 71.6709 47.713C71.8802 46.4184 71.9034 46.4301 73.171 46.4184C73.3222 46.3951 73.4734 46.4067 73.6246 46.4067ZM73.392 56.9733C73.392 56.9617 73.392 56.9617 73.392 56.9733C73.4618 56.9617 73.5432 56.9617 73.6129 56.9617C74.7526 56.95 74.741 56.95 74.5665 55.8537C74.5316 55.6321 74.5084 55.4105 74.4735 55.2006C74.2293 53.5561 73.9967 51.9116 73.7409 50.2671C73.7176 50.1039 73.5664 49.9756 73.4734 49.824C73.4036 49.9756 73.2989 50.1155 73.2757 50.2671C73.0547 51.62 72.8454 52.9613 72.6477 54.3142C72.5547 54.9323 72.4849 55.5621 72.3802 56.1802C72.2988 56.7167 72.4035 57.0666 73.0547 56.9733C73.171 56.9617 73.2873 56.9733 73.392 56.9733Z" fill="#212C43" fill-opacity="0.8"/>
<path d="M103.907 61.8484C102.86 61.86 102.814 61.7901 102.628 60.787C102.256 58.781 102.651 59.0493 100.639 59.0259C100.604 59.0259 100.569 59.0259 100.523 59.0259C99.2785 59.0376 99.2785 59.0376 99.0692 60.2739C99.0227 60.5305 99.011 60.787 98.9878 61.0436C98.9296 61.5568 98.7203 61.8134 98.1388 61.8367C96.8364 61.8717 96.7085 61.7901 96.9178 60.4955C97.5806 56.2618 98.2668 52.0282 98.9412 47.7946C98.9878 47.538 99.0692 47.293 99.0924 47.0365C99.1273 46.5583 99.3948 46.4067 99.8251 46.4067C100.569 46.4183 101.302 46.4183 102.046 46.4067C102.558 46.395 102.732 46.6283 102.814 47.1298C103.151 49.3574 103.523 51.585 103.884 53.8126C104.221 55.9353 104.558 58.0463 104.895 60.1689C104.919 60.3555 104.965 60.5305 104.988 60.7171C105.07 61.7317 104.977 61.8367 103.907 61.8484ZM100.755 56.9733C101.93 56.9499 102.151 57.1715 101.825 55.702C101.79 55.5271 101.79 55.3288 101.755 55.1539C101.523 53.5444 101.29 51.9349 101.034 50.3254C101.011 50.1855 100.848 50.0572 100.744 49.9289C100.686 50.0572 100.593 50.1738 100.569 50.3021C100.43 51.1418 100.302 51.9815 100.174 52.8213C99.9995 53.9526 99.8367 55.0839 99.6739 56.2152C99.6041 56.705 99.7437 57.0199 100.302 56.9733C100.453 56.9616 100.604 56.9733 100.755 56.9733Z" fill="#212C43" fill-opacity="0.8"/>
<path d="M20.6185 54.0342C20.6185 52.6697 20.5952 51.2935 20.6185 49.9289C20.6766 46.7449 22.735 45.8236 25.3748 46.3251C26.5145 46.5467 27.282 47.3281 27.5495 48.4477C27.7356 49.2291 27.7239 50.0572 27.8053 50.8619C27.8402 51.2701 27.6658 51.4917 27.2355 51.4917C27.0843 51.4917 26.9448 51.5034 26.7936 51.5034C25.5842 51.5151 25.5609 51.5034 25.526 50.2905C25.5144 49.9989 25.526 49.6956 25.4911 49.4041C25.3981 48.7626 25.0143 48.4011 24.4096 48.3428C23.7467 48.2728 23.2351 48.5877 23.049 49.2058C22.9792 49.4507 22.956 49.719 22.956 49.9756C22.9443 52.7163 22.956 55.4571 22.956 58.1862C22.956 58.4078 22.956 58.6294 23.0025 58.851C23.1537 59.5625 23.6421 59.9007 24.3747 59.854C25.0957 59.8074 25.4446 59.4925 25.5144 58.7577C25.5609 58.2096 25.526 57.6497 25.5493 57.0899C25.5958 56.2735 25.6539 56.2152 26.4564 56.1802C26.6773 56.1686 26.8983 56.1919 27.1192 56.1802C27.6425 56.1452 27.8519 56.3901 27.817 56.915C27.7472 57.8014 27.7705 58.6994 27.6076 59.5625C27.3285 60.9853 26.3517 61.7784 24.9213 61.9417C24.7352 61.965 24.5492 61.9883 24.3747 61.9883C22.0373 62.07 20.6999 60.822 20.6301 58.4661C20.5952 56.9966 20.6185 55.5154 20.6185 54.0342Z" fill="#212C43" fill-opacity="0.8"/>
<path d="M48.4238 28.5276C47.8656 29.0174 47.2376 29.4373 46.7841 29.9971C46.412 30.4636 46.1445 31.0701 45.9933 31.6532C45.5979 33.1577 44.9583 33.6126 43.3884 33.3677C43.1674 33.3327 42.9465 33.2977 42.7371 33.2277C41.3533 32.8312 41.016 31.6999 41.9929 30.6502C44.4815 27.9677 47.0051 25.3203 49.4821 22.6378C49.8659 22.2296 50.0868 22.2412 50.4241 22.6494C50.6218 22.8944 50.8776 23.0343 51.1334 23.2326L51.1451 23.2443C51.587 23.7691 52.0289 24.2823 52.4824 24.8071L52.4941 24.8187C52.5638 24.8887 52.6336 24.9587 52.7034 25.0287C53.7151 26.4282 56.7155 29.0407 56.8899 29.1923C57.9249 30.0904 58.6226 31.175 58.8901 32.5163C58.9948 33.0528 59.332 33.3327 59.8437 33.4376C60.274 33.5193 60.7159 33.6709 61.1346 33.6476C61.8439 33.6126 62.4835 33.6242 63.1232 33.1811L63.2278 33.0761C63.2743 33.0294 63.4371 32.9011 63.4371 32.9011C63.6116 32.6912 63.8791 32.6329 63.8325 32.2247L63.8442 32.0964C64.2396 32.8312 64.0419 33.251 63.2394 33.5776C62.5068 33.8692 61.7044 33.9625 60.8903 34.0091C60.5415 34.0091 60.3903 33.9508 60.1344 33.8808C59.1925 33.6592 58.6343 33.321 58.4366 32.318C58.204 31.1284 57.5179 30.172 56.5992 29.3673C55.3897 28.2943 54.2035 27.1863 53.0406 26.055C52.6452 25.6701 52.401 25.6002 51.9591 26.0317C50.6101 27.3379 49.2262 28.6209 47.8307 29.8688C47.1679 30.4636 46.7609 31.1167 46.6097 32.0264C46.3655 33.496 45.7956 34.0091 44.3187 34.0558C43.5279 34.0791 42.7139 33.9042 41.9464 33.6942C41.6091 33.6009 41.3184 33.216 41.0858 32.9011C40.9695 32.7612 41.0277 32.4813 41.0044 32.2713C41.1207 32.423 41.2486 32.5746 41.3649 32.7262C42.1673 33.7175 44.4932 34.1024 45.5398 33.3677C45.8073 33.1694 46.0864 32.7845 46.1096 32.4696C46.2375 30.9301 47.133 29.9154 48.261 29.0174C48.3773 28.9241 48.4471 28.7958 48.5401 28.6792C49.1332 28.1543 49.7147 27.6295 50.3078 27.1047C50.4589 26.9531 50.6101 26.8131 50.7613 26.6615C50.8311 26.5798 50.9009 26.4982 50.959 26.4166C51.0288 26.3466 51.1102 26.2649 51.18 26.195C51.366 26.02 51.5637 25.8567 51.7382 25.6701C51.7847 25.6235 51.7847 25.5418 51.7963 25.4719C51.7033 25.4719 51.5637 25.4252 51.5172 25.4602C51.3893 25.6701 49.0169 28.0144 48.4238 28.5276ZM46.0747 28.9008C46.1794 28.8308 46.2027 28.6792 46.1096 28.5859C46.0282 28.4926 45.9584 28.4342 45.9352 28.4459C45.8654 28.4809 45.7607 28.5509 45.6793 28.6209C45.5398 28.7375 45.5282 28.9474 45.6561 29.064C45.6677 29.0757 45.691 29.0874 45.691 29.0874C45.8189 29.0524 45.9352 28.9941 46.0747 28.9008ZM49.4007 25.5535C49.517 25.4602 49.517 25.2853 49.4007 25.1803C49.3309 25.122 49.3076 25.1336 49.2262 25.1453C49.1332 25.157 49.11 25.2036 49.0402 25.2736C48.9239 25.3902 48.9471 25.6002 49.0867 25.6818C49.11 25.6935 49.1332 25.7051 49.1565 25.6935C49.2379 25.6701 49.3193 25.6235 49.4007 25.5535Z" fill="#212C43" fill-opacity="0.8"/>
<path d="M66.4026 24.4221C65.8677 23.9556 65.3793 23.5358 64.9141 23.0809C64.8908 23.0576 65.0537 22.7893 65.1699 22.6844C67.1818 20.8533 69.2518 19.0689 71.2288 17.1795C75.0082 13.529 78.5203 9.65691 81.5671 5.3533C81.7648 5.08505 82.1718 4.66519 82.3346 4.7235C82.8347 4.89845 83.2766 5.27166 83.7185 5.59822C83.7766 5.64487 83.7069 5.93645 83.6255 6.0764C83.4394 6.3913 83.2068 6.68287 82.9975 6.98611C78.6133 13.1208 73.3336 18.4158 67.7284 23.4191C67.333 23.769 66.9027 24.0489 66.4026 24.4221Z" fill="#212C43" fill-opacity="0.8"/>
<path d="M22.9793 4.59521C23.1421 4.77016 23.2932 4.91011 23.4212 5.07339C24.0957 5.99476 24.7353 6.95112 25.433 7.86083C28.9799 12.4793 33.0036 16.6663 37.2599 20.62C38.0158 21.3198 38.8066 21.9846 39.609 22.6377C39.923 22.8943 39.9811 23.0693 39.6555 23.3258C39.5974 23.3725 39.5392 23.4191 39.4927 23.4775C38.4112 24.4921 38.3298 24.5038 37.2367 23.5241C32.7478 19.4887 28.5613 15.1618 24.7702 10.4617C23.7235 9.16707 22.7816 7.79085 21.8047 6.44962C21.2116 5.62155 21.2349 5.60989 22.142 5.05007C22.3978 4.89845 22.6653 4.77016 22.9793 4.59521Z" fill="#212C43" fill-opacity="0.8"/>
<path d="M48.9472 20.3752C48.8658 20.3752 48.7844 20.3752 48.703 20.3752L48.6914 20.3986C48.7728 20.3986 48.8658 20.3986 48.9472 20.3986C48.9589 20.3869 48.9472 20.3752 48.9472 20.3752Z" fill="#212C43" fill-opacity="0.8"/>
<path d="M49.6217 21.2849L49.6101 21.2966L49.6217 21.2849Z" fill="#212C43" fill-opacity="0.8"/>
</g>
<defs>
<clipPath id="clip0">
<rect width="105" height="62" fill="white"/>
</clipPath>
</defs>
</svg>
