<?xml version="1.0" encoding="utf-8"?>
<!-- Generator: Adobe Illustrator 23.0.1, SVG Export Plug-In . SVG Version: 6.00 Build 0)  -->
<svg version="1.1" id="Layer_1" xmlns="http://www.w3.org/2000/svg" xmlns:xlink="http://www.w3.org/1999/xlink" x="0px" y="0px"
	 viewBox="0 0 105 54" style="enable-background:new 0 0 105 54;" xml:space="preserve">
<style type="text/css">
	.st0{opacity:0.8;}
	.st1{fill:#212C43;}
	.st2{opacity:0.8;fill:#212C43;}
</style>
<g class="st0">
	<path class="st1" d="M56.3,22.2c-0.7,0.3-0.9,1-1.3,1.6s0.2,0.5,0.4,0.7s2.5,2.8,3.8,4.1s2.7,2.8,3.9,4.2s0.1,2.6-2.5,2.5
		c-0.7,0.1-1.4-0.4-1.5-1.1c0-0.1,0-0.1,0-0.2c0-0.4-0.2-0.7-0.4-1c-0.6-1-1.4-1.9-2.3-2.6l-6.8-7.1l0,0L49.4,23l0,0l-0.5-0.7h-0.2
		c-0.8-1-0.8-1.2-0.8-1.2c0-0.1,0-0.1-0.1-0.1c-1.2-0.9-2.8-0.7-3.8,0.3c-1,0.8-1.9,1.7-2.7,2.6c-0.5,0.5-0.8,0.5-1.2,0.1
		c-1.3-0.9-2.5-1.9-3.7-3c-4.2-4.1-8.1-8.5-11.7-13.1c-1.5-2-1.2-1.7,0.6-2.6s4.4-2,6.6-3.1c0.5-0.3,1.2-0.2,1.6,0.3l12.6,12.8
		l3.9,3.8c0.5,0.4,0.3,0.7,0,1l-0.7,0.7l0.8-0.5c0.3-0.4,0.9-0.4,1.3-0.1c0.1,0.1,0.2,0.2,0.2,0.3c0.9,1,0.9,0.9,1.8,0
		s0.7-0.7,1.6-0.1l0.8,0.5l0,0c-0.2-0.3-0.4-0.6-0.7-0.8c-0.5-0.4-0.4-0.6,0-1L71.5,2.5c0.4-0.5,1.1-0.6,1.6-0.3l7.7,3.6
		c0.8,0.4,0.8,0.5,0.3,1.1S77.9,11,76.2,13C73,16.7,69.6,20.1,66,23.3l-0.6,0.5c-0.3,0.2-0.6,0.5-0.9,0.5s-0.6-0.4-0.8-0.7l-2.6-2.4
		c-0.8-0.8-2.1-0.9-3.1-0.4l-0.6,0.3C57.6,21,57.1,21.9,56.3,22.2z M32.7,4.8c-0.3-0.1-0.6,0-0.8,0.2l-0.2,0.3
		c-0.2,0.5,0.5,1.1,1,1.1c0.3,0.1,0.6-0.2,0.7-0.5c0-0.1,0-0.1,0-0.2C33.5,5.3,33.2,4.9,32.7,4.8C32.7,4.8,32.7,4.8,32.7,4.8z
		 M71.8,5.8C72,6.2,72.6,6.4,73,6.2c0.3-0.2,0.5-0.5,0.5-0.8c0-0.5-0.2-0.7-0.7-0.7c-0.5-0.1-0.9,0.3-1,0.8c0,0.1,0,0.1,0,0.2V5.8z
		 M59.4,31.1c0.1-0.1,0.2-0.3,0.1-0.4c0,0-0.1-0.1-0.1-0.1h-0.2c-0.1,0-0.2,0-0.3,0.1c0,0.1,0,0.2,0.2,0.3l0,0l0.3,0.2V31.1z
		 M52.8,24.3c0.2,0,0.2-0.3,0.1-0.4l-0.4-0.2c-0.1,0-0.1,0-0.1,0.1c-0.1,0.1-0.1,0.3,0,0.4h0.4V24.3z M56,27.7
		c0.2,0,0.3-0.3,0.1-0.5h-0.2c-0.2,0.1-0.2,0.2-0.2,0.4c0,0,0,0.1,0.1,0.1H56z"/>
</g>
<g class="st0">
	<path class="st1" d="M48.4,30.5c-0.6,0.4-1.1,0.9-1.6,1.5c-0.4,0.5-0.7,1.1-0.8,1.7c-0.4,1.5-1,1.9-2.6,1.7l-0.7-0.2
		c-1.3-0.4-1.7-1.5-0.7-2.5l7.5-8.1c0.4-0.4,0.6-0.4,0.9,0s0.5,0.4,0.7,0.6l0,0l1.4,1.6l0,0l0.2,0.2c1.3,1.5,2.7,2.9,4.2,4.2
		c1,0.9,1.7,2,2,3.3c0,0.5,0.4,0.9,0.9,0.9c0.4,0.2,0.9,0.2,1.3,0.2c0.7,0.1,1.4-0.1,2-0.4h0.1l0.2-0.2c0.2-0.2,0.5-0.3,0.4-0.7l0,0
		c0.4,0.7,0.2,1.2-0.6,1.5c-0.7,0.3-1.5,0.4-2.3,0.4h-0.8c-0.9-0.1-1.6-0.7-1.7-1.6c-0.2-1.1-0.9-2.2-1.8-2.9L53,28.1
		c-0.4-0.4-0.6-0.5-1-0.1l-4.2,3.9c-0.6,0.6-1,1.3-1.2,2.1c-0.2,1.5-0.8,2-2.3,2.1c-0.8,0-1.6-0.2-2.4-0.4c-0.3-0.2-0.6-0.5-0.8-0.8
		C41,34.8,41,34.5,41,34.3s0.2,0.3,0.4,0.4c1.1,1.1,2.7,1.3,4.1,0.7c0.3-0.2,0.5-0.5,0.6-0.9c0.1-1.4,1-2.7,2.2-3.5l0.2-0.3l1.8-1.6
		l0.5-0.4l0.2-0.3l0.2-0.2l0.5-0.5c0.1-0.1,0.1-0.1,0.1-0.2c-0.1,0-0.2-0.1-0.3,0S49,30,48.4,30.5z M46.1,30.9
		c0.1-0.1,0.1-0.2,0-0.3c0,0,0,0,0,0c-0.1-0.1-0.1-0.2-0.2-0.2c0,0.1-0.1,0.2-0.2,0.2l0,0c-0.2,0.1-0.2,0.3,0,0.5l0,0L46.1,30.9z
		 M49.4,27.6c0.1-0.1,0.1-0.3,0-0.4h-0.2L49,27.4c-0.1,0-0.2,0.1-0.2,0.3c0,0.1,0.1,0.2,0.3,0.1l0,0h0.3L49.4,27.6z"/>
</g>
<path class="st2" d="M66.4,26.4l-1.5-1.3l0.3-0.4c2-1.8,4.1-3.6,6-5.5c3.8-3.6,7.3-7.6,10.4-11.8l0.7-0.7c0.5,0.2,1,0.5,1.4,0.9
	c0.1,0,0,0.3-0.1,0.5L83,9c-4.5,6-9.6,11.5-15.3,16.4C67.7,25.4,66.4,26.4,66.4,26.4z"/>
<path class="st2" d="M23,6.6l0.4,0.5l2,2.8c3.6,4.6,7.6,8.8,11.9,12.7l2.3,2c0.3,0.3,0.4,0.5,0.1,0.7s-0.2,0.1-0.2,0.2s-1.2,1-2.3,0
	c-4.5-4-8.6-8.3-12.4-13c-1.1-1.3-2-2.7-3-4.1s-0.6-0.8,0.3-1.3C22.1,7.1,23,6.6,23,6.6z"/>
<g>
	<path class="st1" d="M5.4,51.1v0.5c-0.8,0-1.8,0-2.6,0v-0.5l0.7-0.4c0-3.3,0-6.7,0-10l-0.7-0.4v-0.5h2.5c0.6,0,0.9,0.1,1,0.8
		c0.6,3.3,1,5.6,1.4,8.9h0l1.5-9c0.1-0.6,0.4-0.7,1-0.7c1,0,1.5,0,2.5,0v0.5L12,40.6c0,3.3,0,6.6,0,10l0.7,0.5v0.5c-1,0-2.3,0-3.2,0
		v-0.5l0.7-0.5c0-2.7,0-5.3,0-8l0.1-1.7h-0.1L8.4,51.4H7c-0.4,0-0.5-0.2-0.6-0.5c-0.6-3.4-1.1-6.6-1.7-9.9H4.6l0.1,2.2
		c0,2.5,0,4.9,0,7.4L5.4,51.1z"/>
	<path class="st1" d="M16.6,50c-0.3,0.9-0.4,1.7-1.5,1.7c-0.4,0-0.9-0.1-1.2-0.2v-0.7c0.5,0.1,0.8-0.5,1-1l0.8-2.2
		c0.2-0.5,0.4-0.8,0.9-1.1c-1.1-0.2-1.9-1-1.9-2.5v-1.5c0-2.1,1.5-2.8,3.3-2.8h3.5v0.5l-0.6,0.4c0,3.3,0,6.7,0,10l0.7,0.5v0.5
		c-1,0-2.2,0-3.2,0v-0.5l0.7-0.5c0-1.1,0-2.8,0-3.9c-1,0-1.3,0.2-1.6,1.2L16.6,50z M18,40.7c-1.2,0-1.6,0.6-1.6,1.7V44
		c0,1.1,0.4,1.7,1.6,1.7h1.1c0-1.9,0-3.1,0-5H18z"/>
	<path class="st1" d="M30,43h-1.8v-0.3c0-1.1-0.3-2-1.5-2c-0.8,0-1.5,0.5-1.5,2c0,0.7,0,5.2,0,5.9c0,1.4,0.6,2,1.6,2
		c1.2,0,1.6-0.7,1.6-1.9v-0.6h1.8v0.6c0,2.1-1.4,3-3.3,3s-3.4-1-3.4-3.2c0-0.7,0-5.2,0-5.9c0-2,1.2-3.2,3.2-3.2c0.7,0,1.5,0.2,2,0.7
		h0.1l0.1-0.6H30V43z"/>
	<path class="st1" d="M31.6,40.2v-0.5h3v0.5L34,40.6V45h2.8c0-0.9,0-3.5,0-4.4l-0.6-0.4v-0.5h3v0.5l-0.6,0.4c0,3.3,0,6.7,0,10.1
		l0.8,0.4v0.5c-1,0-2.2,0-3.2,0v-0.5l0.7-0.4c0-1.5,0-3.2,0-4.7H34c0,1.5,0,3.2,0,4.7l0.8,0.4v0.5c-1,0-2.3,0-3.2,0v-0.5l0.8-0.4
		c0-3.3,0-6.7,0-10.1L31.6,40.2z"/>
	<path class="st1" d="M41.8,50.8l0.6,0.3v0.5H40v-0.5l0.6-0.3c0.9-3.5,1.8-7.6,2.7-11.1h1.8l2.7,11.1l0.6,0.4v0.5h-2.9v-0.4l0.5-0.4
		l-0.6-2.4h-3.1L41.8,50.8z M42.5,47.4h2.7l-1.3-5.7h0L42.5,47.4z"/>
	<path class="st1" d="M51.5,50c-0.3,0.9-0.4,1.7-1.5,1.7c-0.4,0-0.9-0.1-1.2-0.2v-0.7c0.5,0.1,0.8-0.5,1-1l0.8-2.2
		c0.2-0.5,0.4-0.8,0.9-1.1c-1.1-0.2-1.9-1-1.9-2.5v-1.5c0-2.1,1.5-2.8,3.3-2.8h3.5v0.5l-0.6,0.4c0,3.3,0,6.7,0,10l0.7,0.5v0.5
		c-1,0-2.2,0-3.2,0v-0.5l0.7-0.5c0-1.1,0-2.8,0-3.9c-1,0-1.3,0.2-1.6,1.2L51.5,50z M52.9,40.7c-1.2,0-1.6,0.6-1.6,1.7V44
		c0,1.1,0.4,1.7,1.6,1.7H54c0-1.9,0-3.1,0-5H52.9z"/>
	<path class="st1" d="M63.9,40.7l-0.9,9.2c-0.1,1.6-1.1,2.1-2.6,1.7l0.1-0.8c0.6,0.1,1.1,0.1,1.2-1l1-9.1l-0.7-0.5v-0.5h6.5v0.5
		l-0.6,0.4v10.1l0.8,0.4v0.5h-3.2v-0.5l0.7-0.4v-10H63.9z"/>
	<path class="st1" d="M71,50.8l0.6,0.3v0.5h-2.3v-0.5l0.6-0.3c0.8-3.5,1.8-7.6,2.7-11.1h1.8l2.7,11.1l0.6,0.4v0.5h-2.9v-0.4l0.5-0.4
		l-0.6-2.4h-3.1L71,50.8z M71.8,47.4h2.7l-1.3-5.7h0L71.8,47.4z"/>
	<path class="st1" d="M78.5,51.6v-0.5l0.8-0.5v-10l-0.6-0.4v-0.5h3.8c1.6,0,2.6,0.4,2.6,2.2v1.7c0,0.7-0.3,1.3-1,1.6
		c0.8,0.3,1.3,0.9,1.3,2v2c0,2-1.4,2.4-3.1,2.4H78.5z M83.6,47.2c0-1-0.4-1.5-1.4-1.5h-1.2v4.2c0,0.3-0.1,0.5-0.4,0.6v0.1h1.7
		c1,0,1.3-0.4,1.3-1.4V47.2z M83.3,41.9c0-0.6-0.4-1.2-1.1-1.2h-1.3v4.2h1.3c0.7,0,1.1-0.7,1.1-1.3V41.9z"/>
	<path class="st1" d="M94.4,40.4c-0.6,0-0.7,0.3-1,0.8c-0.4,0.9-0.9,3.7-1.7,3.9v0c0.9,0.1,1.4,1.1,1.6,2.2l0.5,2.5
		c0.1,0.6,0.5,1.1,1,1v0.7c-0.3,0.2-0.8,0.2-1.1,0.2c-1.1,0-1.5-0.7-1.7-1.7l-0.5-2.4c-0.2-1.1-0.6-1.9-1.7-1.9h-0.5
		c0,1.6,0,3.2,0,4.8l0.8,0.5v0.5c-1,0-2.3,0-3.2,0v-0.5l0.7-0.5c0-3.3,0-6.6,0-10l-0.6-0.4v-0.5h3v0.5l-0.6,0.4v4.2
		c2.2,0,1.5-3.8,3.1-4.8c0.5-0.4,1.3-0.3,1.9-0.3V40.4z"/>
	<path class="st1" d="M96.9,50.8l0.6,0.3v0.5h-2.3v-0.5l0.6-0.3c0.8-3.5,1.8-7.6,2.7-11.1h1.8l2.7,11.1l0.6,0.4v0.5h-2.9v-0.4
		l0.5-0.4l-0.6-2.4h-3.1L96.9,50.8z M97.7,47.4h2.7l-1.3-5.7h0L97.7,47.4z"/>
</g>
</svg>
