<?xml version="1.0" encoding="utf-8"?>
<!-- Generator: Adobe Illustrator 23.0.1, SVG Export Plug-In . SVG Version: 6.00 Build 0)  -->
<svg version="1.1" id="Layer_1" xmlns="http://www.w3.org/2000/svg" xmlns:xlink="http://www.w3.org/1999/xlink" x="0px" y="0px"
	 width="118.7px" height="60px" viewBox="0 0 118.7 60" enable-background="new 0 0 118.7 60" xml:space="preserve">
<path fill="#212C43" fill-opacity="0.8" d="M63.2,24.9c-0.8,0.3-1,1.1-1.5,1.8s0.2,0.6,0.5,0.8c0.2,0.2,2.8,3.2,4.3,4.7
	c1.5,1.5,3.1,3.2,4.4,4.8s0.1,3-2.8,2.8c-0.8,0.1-1.6-0.4-1.7-1.2c0-0.1,0-0.2,0-0.2c-0.1-0.4-0.2-0.8-0.5-1.1
	c-0.7-1.1-1.6-2.1-2.6-3l-7.7-8.1l0,0l-0.2-0.3l0,0L54.8,25h-0.2c-0.9-1.1-0.9-1.4-0.9-1.4c0-0.1-0.1-0.1-0.1-0.1
	c-1.3-1-3.2-0.8-4.3,0.3c-1.1,0.9-2.1,1.9-3.1,3c-0.6,0.6-0.9,0.6-1.4,0.1c-1.5-1-2.9-2.2-4.2-3.4c-4.8-4.6-9.2-9.6-13.3-14.9
	c-1.7-2.3-1.4-1.9,0.7-3s5-2.3,7.5-3.5c0.6-0.4,1.4-0.2,1.8,0.3l14.3,14.5l4.4,4.3c0.6,0.5,0.3,0.8,0,1.1l-0.8,0.8l0.9-0.6
	c0.4-0.4,1-0.5,1.4-0.1c0.1,0.1,0.2,0.2,0.3,0.3c1,1.1,1,1,2,0c1-1,0.8-0.8,1.8-0.1l0.9,0.6l0,0c-0.2-0.4-0.5-0.7-0.8-0.9
	c-0.6-0.5-0.5-0.7,0-1.1L80.4,2.6c0.4-0.6,1.2-0.7,1.8-0.3L91,6.3c0.9,0.5,0.9,0.6,0.3,1.2c-0.6,0.7-3.6,4.7-5.6,6.9
	c-3.6,4.1-7.5,8.1-11.6,11.7l-0.7,0.6c-0.3,0.2-0.7,0.6-1,0.6s-0.7-0.5-0.9-0.8l-3-2.7c-1-0.9-2.4-1.1-3.5-0.5l-0.7,0.3
	C64.6,23.6,64.1,24.6,63.2,24.9z M36.4,5.2c-0.3-0.1-0.7,0-0.9,0.2l-0.2,0.3C35,6.3,35.8,7,36.4,7c0.4,0.1,0.7-0.2,0.8-0.5
	c0-0.1,0-0.2,0-0.3C37.2,5.7,36.9,5.2,36.4,5.2C36.4,5.2,36.4,5.2,36.4,5.2z M80.7,6.3C81,6.8,81.6,7,82.1,6.8
	c0.3-0.2,0.5-0.5,0.6-0.9c0-0.6-0.2-0.8-0.8-0.8c-0.6-0.1-1.1,0.3-1.1,0.9c0,0.1,0,0.2,0,0.2V6.3z M66.7,35c0.2-0.1,0.2-0.3,0.1-0.5
	c0,0-0.1-0.1-0.1-0.1h-0.2c-0.1,0-0.3,0-0.3,0.2c0,0.1,0,0.3,0.2,0.3l0,0l0.3,0.2V35z M59.2,27.3c0.2,0,0.2-0.3,0.1-0.5l-0.5-0.2
	c-0.1,0-0.1,0-0.1,0.1c-0.1,0.1-0.1,0.3,0,0.5h0.5V27.3z M62.8,31.2c0.2,0,0.3-0.3,0.1-0.6h-0.2c-0.2,0.1-0.3,0.3-0.2,0.4
	c0,0,0,0.1,0.1,0.1H62.8z"/>
<path fill="#212C43" fill-opacity="0.8" d="M54.2,34.3c-0.7,0.5-1.3,1.1-1.8,1.7c-0.5,0.6-0.8,1.2-0.9,1.9c-0.5,1.7-1.1,2.2-3,1.9
	l-0.8-0.2c-1.5-0.5-1.9-1.7-0.8-2.8l8.5-9.2c0.5-0.5,0.7-0.5,1,0c0.3,0.5,0.6,0.5,0.8,0.7l0,0l1.6,1.8l0,0l0.2,0.2
	c1.5,1.7,3.1,3.3,4.8,4.8c1.1,1,1.9,2.3,2.3,3.7c0.1,0.5,0.5,1,1,1c0.5,0.2,1,0.3,1.5,0.2c0.8,0.1,1.6-0.1,2.3-0.5H71l0.2-0.2
	c0.2-0.2,0.6-0.3,0.5-0.8l0,0c0.5,0.8,0.2,1.3-0.7,1.7c-0.8,0.3-1.7,0.5-2.6,0.5h-0.9c-1-0.1-1.8-0.8-1.9-1.8c-0.3-1.3-1-2.5-2-3.3
	l-4.1-4.1c-0.5-0.5-0.7-0.6-1.1-0.1l-4.8,4.4c-0.7,0.6-1.2,1.5-1.4,2.4c-0.2,1.7-0.9,2.3-2.6,2.4c-0.9,0-1.8-0.2-2.7-0.5
	c-0.4-0.2-0.7-0.5-0.9-0.9c-0.1-0.1-0.1-0.5-0.1-0.7s0.2,0.3,0.5,0.5c1.2,1.2,3.1,1.5,4.7,0.8c0.4-0.2,0.6-0.6,0.7-1
	c0.2-1.6,1.1-3.1,2.5-4l0.2-0.3l2-1.8l0.6-0.5l0.2-0.3l0.2-0.2l0.6-0.6c0.1-0.1,0.1-0.1,0.1-0.2c-0.1,0-0.2-0.1-0.3,0
	C57.6,31,54.9,33.8,54.2,34.3z M51.6,34.8c0.1-0.1,0.1-0.2,0-0.3c0,0,0,0,0,0c-0.1-0.1-0.1-0.2-0.2-0.2c0,0.1-0.1,0.2-0.2,0.2l0,0
	c-0.2,0.1-0.2,0.3,0,0.6l0,0L51.6,34.8z M55.3,31c0.1-0.1,0.1-0.3,0-0.5h-0.2l-0.2,0.2c-0.1,0-0.2,0.2-0.2,0.3
	c0,0.1,0.2,0.2,0.3,0.2l0,0h0.3L55.3,31z"/>
<path fill="#212C43" fill-opacity="0.8" d="M74.6,29.7l-1.7-1.5l0.3-0.5c2.3-2,4.7-4.1,6.8-6.2c4.3-4.1,8.3-8.6,11.8-13.4l0.8-0.8
	c0.6,0.3,1.1,0.6,1.6,1c0.1,0,0,0.3-0.1,0.6l-0.7,1C88.4,16.7,82.5,23,76.1,28.5C76.1,28.5,74.6,29.7,74.6,29.7z"/>
<path fill="#212C43" fill-opacity="0.8" d="M25.4,7.2l0.5,0.6l2.3,3.2c4.1,5.2,8.6,10,13.5,14.4l2.6,2.3c0.3,0.3,0.5,0.6,0.1,0.8
	c-0.3,0.2-0.2,0.1-0.2,0.2c0,0.1-1.4,1.1-2.6,0c-5.1-4.5-9.8-9.5-14.1-14.8c-1.2-1.5-2.3-3.1-3.4-4.7c-1.1-1.6-0.7-0.9,0.3-1.5
	C24.3,7.8,25.4,7.2,25.4,7.2z"/>
<g opacity="0.8">
	<path fill="#212C43" d="M5.4,57.7v0.6c-0.9,0-2,0-3,0v-0.6l0.8-0.5c0-3.8,0-7.6,0-11.4l-0.8-0.5v-0.5h2.8c0.7,0,1,0.2,1.2,0.9
		C7.1,49.5,7.6,52,8,55.8h0l1.7-10.2c0.2-0.7,0.4-0.8,1.1-0.8c1.1,0,1.7,0,2.8,0v0.5l-0.8,0.5c0,3.8,0,7.5,0,11.3l0.8,0.6v0.6
		c-1.1,0-2.6,0-3.7,0v-0.6l0.8-0.6c0-3,0-6.1,0-9.1l0.1-1.9h-0.1l-2.1,12H7.2c-0.4,0-0.6-0.2-0.7-0.5c-0.6-3.8-1.3-7.5-2-11.3H4.5
		l0.1,2.5c0,2.8,0,5.6,0,8.4L5.4,57.7z"/>
	<path fill="#212C43" d="M18.1,56.5c-0.4,1-0.5,1.9-1.7,1.9c-0.4,0-1-0.1-1.4-0.3v-0.8c0.6,0.1,1-0.6,1.2-1.1l0.9-2.5
		c0.2-0.6,0.5-1,1-1.3c-1.3-0.3-2.2-1.2-2.2-2.8v-1.8c0-2.4,1.7-3.1,3.8-3.1h3.9v0.6l-0.7,0.5c0,3.7,0,7.6,0,11.3l0.8,0.6v0.6
		c-1.1,0-2.5,0-3.7,0v-0.6l0.8-0.6c0-1.2,0-3.2,0-4.4c-1.1,0-1.5,0.3-1.9,1.3L18.1,56.5z M19.7,46c-1.3,0-1.8,0.7-1.8,1.9v1.8
		c0,1.2,0.5,1.9,1.8,1.9h1.2c0-2.1,0-3.5,0-5.7H19.7z"/>
	<path fill="#212C43" d="M33.3,48.5h-2v-0.4c0-1.2-0.4-2.2-1.8-2.2c-0.9,0-1.7,0.6-1.7,2.3c0,0.8,0,5.9,0,6.7c0,1.6,0.6,2.3,1.8,2.3
		c1.4,0,1.8-0.8,1.8-2.2v-0.7h2v0.7c0,2.4-1.6,3.4-3.8,3.4s-3.8-1.1-3.8-3.6c0-0.8,0-5.9,0-6.7c0-2.3,1.4-3.6,3.7-3.6
		c0.8,0,1.7,0.2,2.3,0.8h0.1l0.2-0.7h1.3V48.5z"/>
	<path fill="#212C43" d="M35.2,45.3v-0.6h3.4v0.6l-0.7,0.5v5H41c0-1,0-4,0-5l-0.7-0.5v-0.6h3.4v0.6l-0.7,0.5c0,3.8,0,7.7,0,11.4
		l0.9,0.5v0.6c-1.1,0-2.5,0-3.7,0v-0.6l0.8-0.5c0-1.7,0-3.6,0-5.3h-3.1c0,1.7,0,3.6,0,5.3l0.9,0.5v0.6c-1.1,0-2.6,0-3.7,0v-0.6
		l0.9-0.5c0-3.8,0-7.7,0-11.4L35.2,45.3z"/>
	<path fill="#212C43" d="M46.7,57.3l0.7,0.3v0.6h-2.6v-0.6l0.7-0.4c1-4,2-8.7,3-12.6h2l3.1,12.6l0.7,0.4v0.6h-3.3v-0.5l0.5-0.4
		l-0.6-2.7h-3.5L46.7,57.3z M47.5,53.5h3L49.1,47h0L47.5,53.5z"/>
	<path fill="#212C43" d="M57.7,56.5c-0.4,1-0.5,1.9-1.7,1.9c-0.4,0-1-0.1-1.4-0.3v-0.8c0.6,0.1,1-0.6,1.2-1.1l0.9-2.5
		c0.2-0.6,0.5-1,1-1.3c-1.3-0.3-2.2-1.2-2.2-2.8v-1.8c0-2.4,1.7-3.1,3.8-3.1h3.9v0.6l-0.7,0.5c0,3.7,0,7.6,0,11.3l0.8,0.6v0.6
		c-1.1,0-2.5,0-3.7,0v-0.6l0.8-0.6c0-1.2,0-3.2,0-4.4c-1.1,0-1.5,0.3-1.9,1.3L57.7,56.5z M59.3,46c-1.3,0-1.8,0.7-1.8,1.9v1.8
		c0,1.2,0.5,1.9,1.8,1.9h1.2c0-2.1,0-3.5,0-5.7H59.3z"/>
	<path fill="#212C43" d="M71.8,45.9l-1.1,10.4c-0.2,1.9-1.3,2.4-3,1.9l0.1-0.9c0.6,0.1,1.3,0.1,1.4-1.1l1.1-10.3l-0.8-0.6v-0.6h7.4
		v0.6l-0.7,0.5v11.4l0.9,0.5v0.6h-3.7v-0.6l0.8-0.5V45.9H71.8z"/>
	<path fill="#212C43" d="M79.9,57.3l0.7,0.3v0.6h-2.6v-0.6l0.7-0.4c1-4,2-8.7,3-12.6h2l3.1,12.6l0.7,0.4v0.6h-3.3v-0.5l0.5-0.4
		l-0.6-2.7h-3.5L79.9,57.3z M80.8,53.5h3L82.3,47h0L80.8,53.5z"/>
	<path fill="#212C43" d="M88.3,58.3v-0.6l0.9-0.6V45.8l-0.7-0.5v-0.6h4.3c1.8,0,3,0.5,3,2.5v1.9c0,0.8-0.4,1.5-1.1,1.8
		c0.9,0.3,1.5,1,1.5,2.3v2.3c0,2.2-1.6,2.7-3.5,2.7H88.3z M94.2,53.3c0-1.1-0.4-1.7-1.6-1.7h-1.4v4.8c0,0.3-0.1,0.5-0.4,0.6v0.1h2
		c1.1,0,1.5-0.5,1.5-1.6V53.3z M93.8,47.3c0-0.7-0.4-1.4-1.2-1.4h-1.4v4.7h1.4c0.8,0,1.2-0.8,1.2-1.4V47.3z"/>
	<path fill="#212C43" d="M106.4,45.5c-0.7,0-0.8,0.3-1.1,0.9c-0.4,1-1,4.1-1.9,4.4v0c1,0.1,1.5,1.3,1.8,2.5l0.6,2.8
		c0.1,0.6,0.5,1.3,1.1,1.1v0.8c-0.4,0.2-0.9,0.3-1.3,0.3c-1.2,0-1.7-0.8-1.9-1.9l-0.6-2.7c-0.3-1.2-0.7-2.2-1.9-2.2h-0.6
		c0,1.8,0,3.6,0,5.5l0.9,0.6v0.6c-1.1,0-2.6,0-3.7,0v-0.6l0.8-0.6c0-3.8,0-7.5,0-11.3l-0.7-0.5v-0.6h3.4v0.6l-0.7,0.5v4.8
		c2.5,0,1.7-4.3,3.5-5.5c0.6-0.4,1.5-0.3,2.2-0.3V45.5z"/>
	<path fill="#212C43" d="M109.3,57.3l0.7,0.3v0.6h-2.6v-0.6l0.7-0.4c1-4,2-8.7,3-12.6h2l3.1,12.6l0.7,0.4v0.6h-3.3v-0.5l0.5-0.4
		l-0.6-2.7h-3.5L109.3,57.3z M110.2,53.5h3l-1.5-6.5h0L110.2,53.5z"/>
</g>
</svg>
