<?xml version="1.0" encoding="UTF-8"?>
<svg data-name="Layer 1" viewBox="0 0 105 62" xmlns="http://www.w3.org/2000/svg">
<defs>
<style>.cls-1{fill:none;}.cls-2{clip-path:url(#a);}.cls-3{fill:#212c43;fill-opacity:0.8;}</style>
<clipPath id="a" transform="translate(0)">
<rect class="cls-1" width="105" height="62"/>
</clipPath>
</defs>
<title>lavka</title>
<g class="cls-2">
<path class="cls-3" transform="translate(0)" d="M56.3,20.2c-.7.3-.9,1-1.3,1.6s.2.5.4.7,2.5,2.8,3.8,4.1,2.7,2.8,3.9,4.2.1,2.6-2.5,2.5A1.3,1.3,0,0,1,59.1,32a2.1,2.1,0,0,0-.4-1,10.6,10.6,0,0,0-2.3-2.6l-6.8-7.1h0l-.2-.3h0l-.5-.7h-.2c-.8-1-.8-1.2-.8-1.2a.1.1,0,0,0-.1-.1,2.9,2.9,0,0,0-3.8.3,22.3,22.3,0,0,0-2.7,2.6c-.5.5-.8.5-1.2.1a37.2,37.2,0,0,1-3.7-3A121.5,121.5,0,0,1,24.7,5.9c-1.5-2-1.2-1.7.6-2.6s4.4-2,6.6-3.1a1.2,1.2,0,0,1,1.6.3L46.1,13.3,50,17.1c.5.4.3.7,0,1l-.7.7.8-.5a.9.9,0,0,1,1.5.2c.9,1,.9.9,1.8,0s.7-.7,1.6-.1l.8.5h0a2.7,2.7,0,0,0-.7-.8c-.5-.4-.4-.6,0-1L71.5.5A1.2,1.2,0,0,1,73.1.2l7.7,3.6c.8.4.8.5.3,1.1S77.9,9,76.2,11A110.1,110.1,0,0,1,66,21.3l-.6.5c-.3.2-.6.5-.9.5s-.6-.4-.8-.7l-2.6-2.4a2.7,2.7,0,0,0-3.1-.4l-.6.3c.2-.1-.3.8-1.1,1.1ZM32.7,2.8a.8.8,0,0,0-.8.2l-.2.3c-.2.5.5,1.1,1,1.1a.6.6,0,0,0,.7-.7A.8.8,0,0,0,32.7,2.8Zm39.1,1a.9.9,0,0,0,1.2.4,1,1,0,0,0,.5-.8c0-.5-.2-.7-.7-.7a.9.9,0,0,0-1,1ZM59.4,29.1a.3.3,0,0,0,0-.5h-.2a.2.2,0,0,0-.1.4l.3.2Zm-6.6-6.8c.2,0,.2-.3.1-.4l-.4-.2c-.1,0-.1,0-.1.1a.3.3,0,0,0,0,.4h.4ZM56,25.7c.2,0,.3-.3.1-.5h-.2a.3.3,0,0,0-.1.5H56Z"/>
<path class="cls-3" transform="translate(0)" d="M0,54.1V47.5c0-1.1,0-1.1,1-1.1s1.7-.2,2.2.2.4,1.3.5,2.1c.4,2.5.8,5.1,1.3,7.6,0,.2.1.3.2.5a.8.8,0,0,1,.2-.5L6,52.4c.2-1.7.5-3.4.8-5.1s.1-.9,1-.9H9.2c.9,0,.9.1.9,1V60.8c0,1,0,1-1,1H8.7c-.6.1-.8-.2-.7-.7V52.6a1.5,1.5,0,0,0-.1-.7c0-.1,0-.1-.1-.2s-.1.1-.1.2v.4c-.5,2.9-.9,5.9-1.4,8.8a.7.7,0,0,1-.8.8c-1.6-.1-1.5.3-1.7-1.4s-.9-5.3-1.4-8c0-.1-.1-.3-.1-.4a.8.8,0,0,0-.2.5v8.2c0,1-.1,1.1-1.1,1.1s-1-.1-1-1V54.1Z"/>
<path class="cls-3" transform="translate(0)" d="M81.4,46.4h2a2.5,2.5,0,0,1,2.5,2.4,8.8,8.8,0,0,1,0,2.8,7.6,7.6,0,0,1-1.2,1.9,3.6,3.6,0,0,1,1.4,1.8,11.9,11.9,0,0,1,0,4.2,2.5,2.5,0,0,1-2.3,2.1H79.4c-.4,0-.5-.2-.5-.6V47.1c0-.5.2-.7.6-.7Zm-.2,10.8v1.9a.7.7,0,0,0,.3.6,1.7,1.7,0,0,0,2.4-1.2,6.7,6.7,0,0,0,0-2c-.1-1.3-.6-1.7-2.2-1.7s-.5.2-.5.6v1.8Zm0-6.6v1.6a.8.8,0,0,0,.2.4c.7.4,2-.1,2.1-.8a4.9,4.9,0,0,0,0-2.4c-.1-.8-.7-1-1.8-.9s-.4.7-.5,1.1a3.4,3.4,0,0,0,0,1Z"/>
<path class="cls-3" transform="translate(0)" d="M36.5,54.2v6.6c0,1,0,1-1,1h-.3c-1.1,0-1.1,0-1.1-1V56.2c0-1,0-1-.9-1s-2-.4-2,2v3.7c0,.9,0,.9-.9.9s-.5,0-.8,0-.6-.2-.6-.7-.1-.2-.1-.4c.1-4.4.1-8.8.1-13.2,0-.4-.2-1,.3-1a3.7,3.7,0,0,1,1.8.1c.1,0,.2.5.2.8v4.5c0,1.1,0,1.2,1.1,1.2s1.8.1,1.8-1.8v-4c0-.8.1-.9.9-.9s1.5-.1,1.5,1.4v6.4Z"/>
<path class="cls-3" transform="translate(0)" d="M19.5,54.2v6.7c0,.9-.1.9-1,.9h-.2c-1.1,0-1.1-.1-1.2-1.1V59.6a14.1,14.1,0,0,0,0-2.9c0-.4.3-1-.4-1.2a1.6,1.6,0,0,0-1.8.7,3.1,3.1,0,0,0-.3,1.3c-.1.8,0,1.7-.1,2.5a2.2,2.2,0,0,1-2.9,1.8l-.3-.2a2.2,2.2,0,0,1,.4-1.9,1.3,1.3,0,0,0,.5-1.1c0-.7.1-1.4.1-2.1a2.4,2.4,0,0,1,1.1-1.9c.3-.2.2-.4,0-.6a3,3,0,0,1-1.1-2.6,24.4,24.4,0,0,1,.1-2.7,2.5,2.5,0,0,1,2.2-2.2h4.2a.5.5,0,0,1,.6.6v.8C19.5,50,19.5,52.1,19.5,54.2Zm-2.3-3.3a9.1,9.1,0,0,0-.1-1.7c0-.2,0-.5-.2-.6s-1.9,0-2.1.6a5,5,0,0,0,0,3.4c.2.6,1,.9,1.9.7s.4-.7.4-1.1A6.2,6.2,0,0,0,17.2,50.9Z"/>
<path class="cls-3" transform="translate(0)" d="M54.9,54.2v6.6c0,1,0,1-1,1s-1.3,0-1.3-1.4V56.7c0-.5.3-1.1-.5-1.2a1.7,1.7,0,0,0-1.8.8,7.7,7.7,0,0,0-.2,1.5c-.1.6,0,1.3-.1,1.9a2.2,2.2,0,0,1-2.9,2.1h-.3c-.2-.3-.1-1.8.2-1.9s.7-.9.7-1.5a10.9,10.9,0,0,0,.1-1.8,3,3,0,0,1,1-1.9c.4-.2.4-.4.1-.6a3.1,3.1,0,0,1-1.1-2.2c0-1,0-2.1.1-3.2a2.5,2.5,0,0,1,2.4-2.1h4c.6,0,.6.4.6.9v6.9Zm-2.3-3.3V49.1c0-.2-.1-.5-.2-.5a1.5,1.5,0,0,0-2.2,1,7.4,7.4,0,0,0,0,2.1c0,1.3.5,1.7,1.7,1.7s.7-.3.7-.8Z"/>
<path class="cls-3" transform="translate(0)" d="M68.4,54.1v6.8c0,.9,0,.9-.9.9h-.3c-1.1,0-1.1,0-1.1-1.1V49.6c0-.3-.1-.9-.3-1a4.3,4.3,0,0,0-1.6,0c-.1,0-.2.5-.2.7,0,1.9,0,3.8-.1,5.7a19.9,19.9,0,0,1-.4,4.2,3.2,3.2,0,0,1-3.3,2.6c-.7.1-.8,0-.8-.7v-.8c0-.3.1-.5.5-.6s1.5-1.2,1.7-2.2a24.6,24.6,0,0,0,.2-2.6V47.5c0-1.1,0-1.1,1.1-1.1h4.4c1.1,0,1.1,0,1.1,1v6.7Z"/>
<path class="cls-3" transform="translate(0)" d="M87.5,54.2V47.4c0-.4-.1-.9.4-.9a3.2,3.2,0,0,1,1.7.1c.2.1.2.7.2,1v4c0,.5-.3,1.1.5,1.3a1.7,1.7,0,0,0,2.1-.9,5.2,5.2,0,0,0,.2-1.1V48.4a2.2,2.2,0,0,1,2.9-1.9c.2,0,.3.3.4.4a3.3,3.3,0,0,1,0,1,.8.8,0,0,1-.4.6c-.7.1-.8.6-.8,1.2a9.7,9.7,0,0,1-.1,1.7,2.5,2.5,0,0,1-1,2.1q-.4.3,0,.6c1,.7,1,1.8,1.1,2.9v1.6c0,.5.1,1,.8,1.1a1.6,1.6,0,0,1,.4,1.7c-.1.5-.5.4-.9.4a2.1,2.1,0,0,1-2.4-2.3V56.9a1.8,1.8,0,0,0-2-1.9c-.6,0-.8.2-.8.8v4.5c0,1.6-.1,1.6-1.6,1.5s-.7-.2-.7-.8V54.2Z"/>
<path class="cls-3" transform="translate(0)" d="M41.7,46.4c1.8,0,1.8,0,2.1,1.8.6,4,1.3,8.1,1.9,12.2.2,1.5.3,1.5-1.3,1.4s-.8,0-1-.9.1-1.8-2.2-1.9-1.1.1-1.3,1.2a1.7,1.7,0,0,0-.1.7c-.1.9-.2.9-1.1,1s-1.2,0-1-1.2l2.1-13.1c.2-1.2.2-1.2,1.5-1.2ZM41.5,57h.4c.9-.1.9-.1.8-1s-.3-1.7-.4-2.5-.3-2.3-.5-3.4l-.3-.3a.4.4,0,0,0-.1.3L41,52.6c-.2,1.2-.4,2.4-.5,3.7s0,.8.6.7Z"/>
<path class="cls-3" transform="translate(0)" d="M73.6,46.4c1.9,0,1.8,0,2.1,1.8.6,4.1,1.3,8.1,1.9,12.1.3,1.6.3,1.6-1.3,1.5s-.8,0-.9-.8.1-1.9-2.3-2-1.1,0-1.3,1.1v.4c-.2,1.3-.7,1.6-2,1.3s-.3-.3-.3-.5l.6-3.5c.5-3.4,1-6.7,1.6-10.1.2-1.3.2-1.3,1.5-1.3ZM73.4,57h.2c1.2,0,1.1,0,1-1.1a2,2,0,0,1-.1-.7c-.3-1.6-.5-3.3-.8-4.9s-.1-.3-.2-.5-.2.3-.2.5-.5,2.7-.7,4a12.3,12.3,0,0,1-.2,1.9c-.1.5,0,.9.7.8Z"/>
<path class="cls-3" transform="translate(0)" d="M103.9,61.8c-1,.1-1.1,0-1.3-1s.1-1.8-2-1.8h-.1c-1.2,0-1.2,0-1.4,1.3a1.7,1.7,0,0,0-.1.7c-.1.6-.3.8-.9.8s-1.4,0-1.2-1.3c.7-4.2,1.4-8.5,2-12.7a2.4,2.4,0,0,0,.2-.8c0-.4.3-.6.7-.6H102c.6,0,.7.2.8.7.4,2.3.7,4.5,1.1,6.7s.7,4.2,1,6.4c0,.2.1.3.1.5s0,1.1-1.1,1.1ZM100.8,57c1.1-.1,1.4.2,1-1.3v-.5c-.3-1.7-.5-3.3-.8-4.9l-.3-.4c0,.2-.1.3-.1.4a21.7,21.7,0,0,0-.4,2.5c-.2,1.2-.4,2.3-.5,3.4s0,.8.6.8Z"/>
<path class="cls-3" transform="translate(0)" d="M20.6,54V49.9c.1-3.2,2.1-4.1,4.8-3.6a2.5,2.5,0,0,1,2.1,2.1,21.3,21.3,0,0,1,.3,2.5c0,.4-.1.6-.6.6h-.4c-1.2,0-1.2,0-1.3-1.2v-.9a1.3,1.3,0,0,0-1.1-1.1,1.3,1.3,0,0,0-1.4.9V50c-.1,2.7,0,5.5,0,8.2v.7a1.2,1.2,0,0,0,1.4,1,1.1,1.1,0,0,0,1.1-1.1,9.6,9.6,0,0,0,0-1.7c.1-.8.2-.9,1-.9h.6c.5-.1.8.2.7.7a24.5,24.5,0,0,1-.2,2.7,2.7,2.7,0,0,1-2.7,2.3h-.5a3.3,3.3,0,0,1-3.8-3.5Z"/>
<path class="cls-3" transform="translate(0)" d="M48.4,28.5A11.4,11.4,0,0,0,46.8,30a3.8,3.8,0,0,0-.8,1.7c-.4,1.5-1,1.9-2.6,1.7l-.7-.2c-1.3-.4-1.7-1.5-.7-2.5l7.5-8.1c.4-.4.6-.4.9,0s.5.4.7.6h0l1.4,1.6h0l.2.2a40.3,40.3,0,0,0,4.2,4.2,6.3,6.3,0,0,1,2,3.3,1,1,0,0,0,.9.9,3.2,3.2,0,0,0,1.3.2,3.4,3.4,0,0,0,2-.4h.1l.2-.2c.2-.2.5-.3.4-.7h0q.6,1-.6,1.5a5.9,5.9,0,0,1-2.3.4h-.8a1.9,1.9,0,0,1-1.7-1.6,5,5,0,0,0-1.8-2.9L53,26.1c-.4-.4-.6-.5-1-.1l-4.2,3.9A4,4,0,0,0,46.6,32c-.2,1.5-.8,2-2.3,2.1a10,10,0,0,1-2.4-.4,2,2,0,0,1-.8-.8c-.1-.1-.1-.4-.1-.6s.2.3.4.4a3.7,3.7,0,0,0,4.1.7,1.3,1.3,0,0,0,.6-.9A4.6,4.6,0,0,1,48.3,29l.2-.3,1.8-1.6.5-.4.2-.3.2-.2.5-.5a.3.3,0,0,0,.1-.2c-.1,0-.2-.1-.3,0S49,28,48.4,28.5Zm-2.3.4a.2.2,0,0,0,0-.3c-.1-.1-.1-.2-.2-.2a.2.2,0,0,1-.2.2c-.2.1-.2.3,0,.5h0Zm3.3-3.3a.3.3,0,0,0,0-.4h-.2l-.2.2a.2.2,0,0,0,.1.4h.3Z"/>
<path class="cls-3" transform="translate(0)" d="M66.4,24.4l-1.5-1.3.3-.4c2-1.8,4.1-3.6,6-5.5A89.6,89.6,0,0,0,81.6,5.4l.7-.7a6.7,6.7,0,0,1,1.4.9c.1,0,0,.3-.1.5L83,7A103.3,103.3,0,0,1,67.7,23.4l-1.3,1Z"/>
<path class="cls-3" transform="translate(0)" d="M23,4.6l.4.5,2,2.8A102.2,102.2,0,0,0,37.3,20.6l2.3,2c.3.3.4.5.1.7s-.2.1-.2.2-1.2,1-2.3,0a108.9,108.9,0,0,1-12.4-13c-1.1-1.3-2-2.7-3-4.1s-.6-.8.3-1.3l.9-.5Z"/>
<path class="cls-3" transform="translate(0)" d="m48.9 20.4z"/>
<path class="cls-3" transform="translate(0)" d="m49.6 21.3"/>
</g>
</svg>
