<svg width="18" height="18" viewBox="0 0 18 18" fill="none" xmlns="http://www.w3.org/2000/svg">
<path d="M8.99988 0C12.5944 0 15.5188 2.92437 15.5188 6.51888C15.5188 10.9798 9.68501 17.5287 9.43663 17.8053C9.20333 18.0651 8.79601 18.0647 8.56313 17.8053C8.31476 17.5287 2.48096 10.9798 2.48096 6.51888C2.48103 2.92437 5.40536 0 8.99988 0ZM8.99988 9.79871C10.8084 9.79871 12.2797 8.32739 12.2797 6.51888C12.2797 4.71037 10.8084 3.23909 8.99988 3.23909C7.19141 3.23909 5.72012 4.71041 5.72012 6.51892C5.72012 8.32743 7.19141 9.79871 8.99988 9.79871Z" fill="#7A9E24"/>
</svg>
