<svg width="300" height="105" viewBox="0 0 300 105" fill="none" xmlns="http://www.w3.org/2000/svg">
<path d="M46.8615 0C28.8342 0 14.252 14.5833 14.252 32.5538C14.252 51.7944 46.9087 88.9113 46.9087 88.9113C46.9087 88.9113 79.5654 53.2056 79.5654 32.5538C79.5182 14.5833 64.936 0 46.8615 0ZM46.8615 51.2298C35.7714 51.2298 26.7578 42.2446 26.7578 31.1895C26.7578 20.1344 35.7714 11.1492 46.8615 11.1492C57.9516 11.1492 66.9652 20.1344 66.9652 31.1895C66.9652 42.2917 57.9988 51.2298 46.8615 51.2298Z" fill="#9FC033"/>
<path d="M18.971 63.2728L19.1598 63.0847L14.8181 58.7567L14.7237 58.8508L13.5911 59.9798C12.8361 60.7325 13.2136 62.2849 14.4406 63.461C15.6204 64.6371 17.2249 65.0134 17.9328 64.3078L18.971 63.2728Z" fill="white"/>
<path d="M20.1037 62.0497L15.7621 57.7218L14.7239 58.8038L19.0655 63.1317L19.2071 62.9906L20.1037 62.0497Z" fill="#7A9E24"/>
<path d="M63.8975 31.1895C63.8975 21.875 56.3469 14.3481 47.0029 14.3481C37.6589 14.3481 30.1082 21.875 30.1082 31.1895C30.1082 34.6237 31.1464 37.8226 32.9397 40.504L15.8091 57.7218L20.1507 62.0497L37.2342 44.879C40.0185 46.8548 43.3691 48.0309 47.0501 48.0309C56.2997 48.0309 63.8975 40.504 63.8975 31.1895ZM35.1105 31.4247C35.1105 24.8858 40.4432 19.5699 47.0029 19.5699C53.5625 19.5699 58.8952 24.8858 58.8952 31.4247C58.8952 37.9637 53.5625 43.2796 47.0029 43.2796C40.396 43.2796 35.1105 37.9637 35.1105 31.4247Z" fill="white"/>
<path d="M49.174 32.9771C50.1178 32.3656 50.7313 31.2836 50.7313 30.0605C50.7313 28.1317 49.174 26.5793 47.2391 26.5793C45.3043 26.5793 43.7469 28.1317 43.7469 30.0605C43.7469 31.2836 44.3604 32.3656 45.3043 32.9771C43.1806 33.7769 41.6233 35.7997 41.6233 38.1989H42.5671C42.5671 35.6116 44.6436 33.5417 47.2391 33.5417C49.8347 33.5417 51.9111 35.6116 51.9111 38.1989H52.8549C52.8549 35.7997 51.2976 33.7298 49.174 32.9771ZM44.6436 30.0605C44.6436 28.6492 45.7762 27.5202 47.1919 27.5202C48.6077 27.5202 49.7403 28.6492 49.7403 30.0605C49.7403 31.4718 48.6077 32.6008 47.1919 32.6008C45.8234 32.6008 44.6436 31.4718 44.6436 30.0605Z" fill="white"/>
<path d="M53.8458 30.625C54.7896 30.0134 55.4031 28.9315 55.4031 27.7083C55.4031 25.7796 53.8458 24.2271 51.9109 24.2271C50.9671 24.2271 50.1176 24.6035 49.5041 25.2151C49.2682 25.4503 49.0794 25.6855 48.8906 25.9677C49.1738 26.0618 49.4569 26.25 49.7401 26.3911C49.9288 26.1089 50.1176 25.8737 50.3536 25.6855C50.7783 25.3562 51.3446 25.168 51.9109 25.168C53.3267 25.168 54.4593 26.297 54.4593 27.7083C54.4593 28.8844 53.657 29.8723 52.5716 30.1546C52.3356 30.2016 52.0997 30.2487 51.8637 30.2487C51.7693 30.2487 51.7221 30.2487 51.6277 30.2487C51.6277 30.578 51.5806 30.9073 51.4862 31.2366C51.6277 31.2366 51.7693 31.1895 51.9109 31.1895C52.0997 31.1895 52.2884 31.1895 52.4772 31.2366C54.7896 31.5188 56.5829 33.0242 56.5829 35.3763H57.5267C57.5267 32.9771 55.9694 31.4247 53.8458 30.625Z" fill="#7A9E24"/>
<path d="M42.567 31.1895C42.7086 31.1895 42.8501 31.1895 42.9917 31.2366C42.8973 30.9073 42.8501 30.578 42.8501 30.2487C42.7558 30.2487 42.7086 30.2487 42.6142 30.2487C42.3782 30.2487 42.1423 30.2016 41.9063 30.1546C40.8209 29.8723 40.0186 28.8844 40.0186 27.7083C40.0186 26.297 41.1512 25.168 42.567 25.168C43.1333 25.168 43.6996 25.3562 44.1243 25.6855C44.3603 25.8737 44.5962 26.1089 44.7378 26.3911C44.9738 26.203 45.2569 26.0618 45.5873 25.9677C45.4457 25.6855 45.2097 25.4503 44.9738 25.2151C44.3603 24.6035 43.5108 24.2271 42.567 24.2271C40.6321 24.2271 39.0748 25.7796 39.0748 27.7083C39.0748 28.9315 39.6883 30.0134 40.6321 30.625C38.5085 31.4247 36.9512 33.4476 36.9512 35.8468H37.895C37.895 33.4476 39.6883 31.5188 42.0007 31.2366C42.1895 31.2366 42.3782 31.1895 42.567 31.1895Z" fill="#7A9E24"/>
<path d="M115.559 32.0578C113.556 31.408 111.981 31.0831 110.833 31.0831C109.989 31.0831 109.241 31.2568 108.588 31.604C107.946 31.9513 107.406 32.4106 106.967 32.982C106.528 33.5533 106.196 34.2143 105.971 34.9649C105.746 35.7043 105.634 36.466 105.634 37.2502C105.634 38.1241 105.758 38.9475 106.005 39.7205C106.264 40.4822 106.618 41.1488 107.069 41.7202C107.53 42.2803 108.081 42.7284 108.723 43.0645C109.364 43.3894 110.068 43.5518 110.833 43.5518C111.249 43.5518 111.711 43.5182 112.217 43.451V37.872L118.193 37.1998V47.9545C115.503 49.142 112.735 49.7357 109.888 49.7357C106.579 49.7357 103.76 48.5146 101.431 46.0724C99.101 43.619 97.9363 40.6503 97.9363 37.1662C97.9363 33.7718 99.1235 30.8927 101.498 28.5289C103.839 26.1763 106.624 25 109.854 25C112.802 25 115.469 25.5713 117.855 26.714L115.559 32.0578Z" fill="#7A9E24"/>
<path d="M120.775 37.4015C120.775 33.9846 121.867 31.1055 124.05 28.7641C126.38 26.2659 129.531 25.0168 133.503 25.0168C135.439 25.0168 137.189 25.3305 138.753 25.9578C140.317 26.574 141.651 27.431 142.754 28.5289C143.857 29.6267 144.706 30.9375 145.303 32.4611C145.899 33.9734 146.197 35.6202 146.197 37.4015C146.197 38.4769 146.074 39.53 145.826 40.5607C145.578 41.5913 145.207 42.566 144.712 43.4846C144.228 44.392 143.626 45.2322 142.906 46.0052C142.185 46.767 141.353 47.428 140.407 47.9881C139.473 48.537 138.427 48.9628 137.268 49.2652C136.12 49.5789 134.865 49.7357 133.503 49.7357C132.108 49.7357 130.825 49.5789 129.655 49.2652C128.495 48.9515 127.443 48.5146 126.498 47.9545C125.553 47.3944 124.72 46.7278 124 45.9548C123.291 45.1818 122.694 44.3416 122.21 43.4342C121.738 42.5155 121.378 41.5465 121.13 40.5271C120.894 39.5076 120.775 38.4657 120.775 37.4015ZM133.503 43.4846C134.392 43.4846 135.146 43.2997 135.765 42.9301C136.395 42.5492 136.908 42.0674 137.301 41.4849C137.707 40.8911 137.999 40.2302 138.179 39.502C138.37 38.7738 138.466 38.0624 138.466 37.3679C138.466 36.4604 138.348 35.6314 138.112 34.8809C137.887 34.1191 137.555 33.4637 137.116 32.9148C136.688 32.3546 136.165 31.9121 135.546 31.5872C134.938 31.2624 134.257 31.0831 133.503 31.0495C132.603 31.0719 131.838 31.2736 131.208 31.6545C130.577 32.0353 130.06 32.5283 129.655 33.1332C129.261 33.727 128.968 34.3991 128.777 35.1497C128.597 35.8891 128.507 36.6285 128.507 37.3679C128.507 38.2417 128.619 39.0539 128.844 39.8045C129.081 40.5439 129.413 41.188 129.84 41.737C130.279 42.2747 130.808 42.7004 131.427 43.0141C132.046 43.3278 132.738 43.4846 133.503 43.4846Z" fill="#7A9E24"/>
<path d="M148.358 37.4015C148.358 33.9846 149.45 31.1055 151.633 28.7641C153.962 26.2659 157.113 25.0168 161.086 25.0168C163.022 25.0168 164.771 25.3305 166.336 25.9578C167.9 26.574 169.233 27.431 170.336 28.5289C171.439 29.6267 172.289 30.9375 172.885 32.4611C173.482 33.9734 173.78 35.6202 173.78 37.4015C173.78 38.4769 173.656 39.53 173.409 40.5607C173.161 41.5913 172.79 42.566 172.294 43.4846C171.811 44.392 171.209 45.2322 170.488 46.0052C169.768 46.767 168.935 47.428 167.99 47.9881C167.056 48.537 166.009 48.9628 164.85 49.2652C163.702 49.5789 162.448 49.7357 161.086 49.7357C159.69 49.7357 158.408 49.5789 157.237 49.2652C156.078 48.9515 155.026 48.5146 154.081 47.9545C153.135 47.3944 152.302 46.7278 151.582 45.9548C150.873 45.1818 150.277 44.3416 149.793 43.4342C149.32 42.5155 148.96 41.5465 148.713 40.5271C148.476 39.5076 148.358 38.4657 148.358 37.4015ZM161.086 43.4846C161.975 43.4846 162.729 43.2997 163.348 42.9301C163.978 42.5492 164.49 42.0674 164.884 41.4849C165.289 40.8911 165.582 40.2302 165.762 39.502C165.953 38.7738 166.049 38.0624 166.049 37.3679C166.049 36.4604 165.931 35.6314 165.694 34.8809C165.469 34.1191 165.137 33.4637 164.698 32.9148C164.271 32.3546 163.747 31.9121 163.128 31.5872C162.521 31.2624 161.84 31.0831 161.086 31.0495C160.186 31.0719 159.42 31.2736 158.79 31.6545C158.16 32.0353 157.642 32.5283 157.237 33.1332C156.843 33.727 156.551 34.3991 156.359 35.1497C156.179 35.8891 156.089 36.6285 156.089 37.3679C156.089 38.2417 156.202 39.0539 156.427 39.8045C156.663 40.5439 156.995 41.188 157.423 41.737C157.862 42.2747 158.391 42.7004 159.01 43.0141C159.629 43.3278 160.321 43.4846 161.086 43.4846Z" fill="#7A9E24"/>
<path d="M177.122 25.5377H187.453C189.377 25.5377 191.122 25.829 192.686 26.4116C194.25 26.9829 195.584 27.7839 196.687 28.8145C197.801 29.8452 198.662 31.0775 199.269 32.5115C199.877 33.9342 200.181 35.497 200.181 37.1998C200.181 38.9923 199.877 40.6279 199.269 42.1066C198.673 43.5742 197.818 44.8345 196.704 45.8876C195.589 46.9406 194.25 47.7585 192.686 48.341C191.122 48.9123 189.377 49.198 187.453 49.198H177.122V25.5377ZM187.453 43.0141C188.32 43.0141 189.062 42.8292 189.681 42.4595C190.311 42.0898 190.829 41.6193 191.234 41.048C191.639 40.4766 191.938 39.8437 192.129 39.1491C192.32 38.4545 192.416 37.7824 192.416 37.1326C192.416 36.3484 192.292 35.6258 192.045 34.9649C191.808 34.3039 191.471 33.7326 191.032 33.2508C190.593 32.7691 190.07 32.3938 189.462 32.125C188.854 31.8561 188.185 31.7217 187.453 31.7217H184.752V43.0141H187.453Z" fill="#7A9E24"/>
<path d="M209.009 44.224L217.146 30.5454H209.347V25.5377H224.877V30.5454L216.943 44.224H225.231V49.198H209.009V44.224Z" fill="#7A9E24"/>
<path d="M227.156 37.4015C227.156 33.9846 228.247 31.1055 230.431 28.7641C232.76 26.2659 235.911 25.0168 239.884 25.0168C241.819 25.0168 243.569 25.3305 245.133 25.9578C246.698 26.574 248.031 27.431 249.134 28.5289C250.237 29.6267 251.087 30.9375 251.683 32.4611C252.279 33.9734 252.578 35.6202 252.578 37.4015C252.578 38.4769 252.454 39.53 252.206 40.5607C251.959 41.5913 251.587 42.566 251.092 43.4846C250.608 44.392 250.006 45.2322 249.286 46.0052C248.566 46.767 247.733 47.428 246.788 47.9881C245.854 48.537 244.807 48.9628 243.648 49.2652C242.5 49.5789 241.245 49.7357 239.884 49.7357C238.488 49.7357 237.205 49.5789 236.035 49.2652C234.876 48.9515 233.824 48.5146 232.878 47.9545C231.933 47.3944 231.1 46.7278 230.38 45.9548C229.671 45.1818 229.075 44.3416 228.591 43.4342C228.118 42.5155 227.758 41.5465 227.51 40.5271C227.274 39.5076 227.156 38.4657 227.156 37.4015ZM239.884 43.4846C240.773 43.4846 241.527 43.2997 242.146 42.9301C242.776 42.5492 243.288 42.0674 243.682 41.4849C244.087 40.8911 244.379 40.2302 244.56 39.502C244.751 38.7738 244.846 38.0624 244.846 37.3679C244.846 36.4604 244.728 35.6314 244.492 34.8809C244.267 34.1191 243.935 33.4637 243.496 32.9148C243.068 32.3546 242.545 31.9121 241.926 31.5872C241.318 31.2624 240.638 31.0831 239.884 31.0495C238.983 31.0719 238.218 31.2736 237.588 31.6545C236.958 32.0353 236.44 32.5283 236.035 33.1332C235.641 33.727 235.348 34.3991 235.157 35.1497C234.977 35.8891 234.887 36.6285 234.887 37.3679C234.887 38.2417 235 39.0539 235.225 39.8045C235.461 40.5439 235.793 41.188 236.221 41.737C236.659 42.2747 237.188 42.7004 237.807 43.0141C238.426 43.3278 239.118 43.4846 239.884 43.4846Z" fill="#7A9E24"/>
<path d="M255.92 25.5377H262.841L272.328 38.2753V25.5377H278.506V49.198H271.585L262.064 36.8637V49.198H255.92V25.5377Z" fill="#7A9E24"/>
<path d="M283.03 25.5377H299.708V30.747H291.403V35.0489H298.999V39.3844H291.403V44.0223H299.708V49.198H283.03V25.5377Z" fill="#7A9E24"/>
<path d="M66.8708 31.9422L77.6306 42.2446C77.6306 42.2446 76.4508 46.7137 70.5046 57.1573C65.0776 66.754 58.4707 75.2688 46.8143 88.8643C32.1377 71.5995 24.0679 58.0981 24.0679 58.0981L34.8276 47.2782C34.8276 47.2782 40.7266 52.3589 49.7402 50.9946C66.5405 47.4664 66.8237 33.1183 66.8708 31.9422Z" fill="#7A9E24"/>
<path d="M101.495 60.2415H103.675V71.269H101.495V60.2415ZM102.545 64.6686H106.501V66.7614H102.545V64.6686ZM104.725 64.9101L107.713 60.2415H110.297L105.694 66.8419L104.725 64.9101ZM104.806 66.6004L106.501 65.4735L111.023 71.269H108.116L104.806 66.6004Z" fill="#FAFCFE"/>
<path d="M113.203 70.5445C112.557 69.9811 112.154 69.0957 112.154 67.9688C112.154 66.8419 112.477 66.037 113.042 65.554C113.607 65.071 114.576 64.7491 115.868 64.7491H119.017L119.179 66.5199H115.868C115.303 66.5199 114.899 66.6809 114.576 66.9224C114.334 67.1639 114.172 67.5663 114.172 68.0493C114.172 68.6127 114.334 69.0152 114.737 69.2567C115.141 69.4981 115.706 69.6591 116.433 69.6591C117.241 69.6591 117.887 69.5786 118.29 69.4176C118.694 69.2567 118.936 68.9347 118.936 68.6127L119.179 70.1421C119.017 70.4641 118.775 70.7055 118.452 70.8665C118.129 71.0275 117.806 71.1885 117.483 71.269C117.079 71.3495 116.675 71.43 116.272 71.43C114.899 71.43 113.849 71.108 113.203 70.5445ZM118.936 64.2661C118.936 63.5417 118.775 62.9782 118.371 62.5758C117.967 62.1733 117.402 62.0123 116.756 62.0123C116.352 62.0123 115.868 62.0928 115.464 62.2538C115.06 62.4148 114.657 62.5758 114.334 62.8172L112.719 61.7708C113.123 61.2879 113.688 60.8854 114.334 60.5634C114.98 60.322 115.787 60.161 116.595 60.161C117.483 60.161 118.29 60.322 118.936 60.6439C119.582 60.9659 120.067 61.4489 120.39 62.0123C120.713 62.6563 120.874 63.3807 120.874 64.1856V71.269H118.936V64.2661Z" fill="#FAFCFE"/>
<path d="M123.62 69.2567H134.279V71.1885H123.62V69.2567ZM123.62 69.2567H125.801V74.0057H123.62V69.2567ZM123.943 69.2567H124.186C124.589 69.2567 124.993 69.1762 125.155 68.9347C125.397 68.6932 125.558 68.2908 125.639 67.8078C125.72 67.3248 125.801 66.6004 125.801 65.7955V60.2415H127.981V66.5199C127.981 67.8078 127.738 68.7737 127.173 69.4176C126.689 70.0616 125.881 70.3836 124.912 70.3836H124.67L123.943 69.2567ZM127.173 60.2415H132.099V62.1733H127.173V60.2415ZM131.372 60.2415H133.552V71.269H131.372V60.2415ZM133.31 69.2567H135.49V74.0057H133.31V69.2567Z" fill="#FAFCFE"/>
<path d="M138.074 60.2415H140.254V75.6961H138.074V60.2415ZM141.223 70.947C140.738 70.625 140.335 70.1421 140.092 69.5786L140.254 67.2443C140.254 67.7273 140.335 68.1298 140.496 68.4517C140.658 68.7737 140.9 69.0152 141.223 69.1762C141.546 69.3372 141.95 69.4176 142.434 69.4176C143.161 69.4176 143.726 69.1762 144.13 68.7737C144.533 68.3712 144.695 67.7273 144.695 66.9224V64.5076C144.695 63.7027 144.533 63.0587 144.13 62.6563C143.726 62.1733 143.161 62.0123 142.434 62.0123C141.95 62.0123 141.546 62.0928 141.223 62.2538C140.9 62.4148 140.658 62.6563 140.496 62.9782C140.335 63.3002 140.254 63.7027 140.254 64.1856L140.012 62.0928C140.335 61.4489 140.819 60.9659 141.304 60.5634C141.869 60.2415 142.434 60 143.08 60C143.887 60 144.533 60.161 145.099 60.5634C145.664 60.8854 146.068 61.4489 146.391 62.0928C146.714 62.7368 146.794 63.5417 146.794 64.5076V66.9224C146.794 67.8883 146.633 68.6932 146.31 69.3372C145.987 69.9811 145.583 70.5445 145.018 70.8665C144.453 71.1885 143.726 71.43 142.919 71.43C142.353 71.43 141.707 71.269 141.223 70.947Z" fill="#FAFCFE"/>
<path d="M151.72 70.8665C151.074 70.4641 150.509 69.9811 150.186 69.2567C149.863 68.5322 149.621 67.6468 149.621 66.6809V64.9101C149.621 63.9441 149.782 63.0587 150.186 62.3343C150.509 61.6099 151.074 61.0464 151.72 60.7244C152.366 60.322 153.254 60.161 154.142 60.161C155.031 60.161 155.919 60.322 156.565 60.7244C157.211 61.1269 157.776 61.6099 158.099 62.3343C158.422 63.0587 158.664 63.8637 158.664 64.9101V66.7614C158.664 67.7273 158.503 68.6127 158.099 69.3372C157.776 70.0616 157.211 70.625 156.565 70.947C155.919 71.269 155.031 71.5105 154.142 71.5105C153.254 71.5105 152.366 71.1885 151.72 70.8665ZM155.919 68.6127C156.323 68.1298 156.565 67.4858 156.565 66.6004V64.7491C156.565 63.8637 156.323 63.2197 155.919 62.7368C155.515 62.2538 154.95 62.0123 154.142 62.0123C153.335 62.0123 152.77 62.2538 152.366 62.7368C151.962 63.2197 151.72 63.8637 151.72 64.7491V66.6004C151.72 67.4858 151.962 68.1298 152.366 68.6127C152.77 69.0957 153.335 69.3372 154.142 69.3372C154.95 69.3372 155.515 69.0957 155.919 68.6127Z" fill="#FAFCFE"/>
<path d="M161.813 60.2415H163.994V71.269H161.813V60.2415ZM163.105 69.2567H167.224C167.627 69.2567 167.95 69.1762 168.192 68.9347C168.435 68.6932 168.515 68.3712 168.515 67.8883C168.515 67.4053 168.435 67.0834 168.192 66.8419C167.95 66.6004 167.627 66.4394 167.224 66.4394H163.105V64.5076H167.224C167.627 64.5076 167.87 64.4271 168.112 64.2661C168.354 64.1051 168.435 63.7832 168.435 63.4612C168.435 63.0587 168.354 62.7367 168.112 62.5758C167.95 62.3343 167.627 62.2538 167.304 62.2538H163.186V60.322H167.385C168.435 60.322 169.242 60.5634 169.807 61.0464C170.373 61.5294 170.696 62.1733 170.696 63.0587C170.696 63.7027 170.453 64.2661 170.05 64.7491C169.646 65.1515 169.081 65.4735 168.273 65.554C169.081 65.715 169.727 66.037 170.211 66.5199C170.696 67.0029 170.857 67.6468 170.857 68.4517C170.857 69.3372 170.534 70.0616 169.969 70.5445C169.323 71.0275 168.515 71.269 167.385 71.269H163.267V69.2567H163.105Z" fill="#FAFCFE"/>
<path d="M175.379 70.8665C174.733 70.4641 174.168 69.9811 173.845 69.2567C173.522 68.5322 173.28 67.6468 173.28 66.6809V64.9101C173.28 63.9441 173.441 63.0587 173.845 62.3343C174.168 61.6099 174.733 61.0464 175.379 60.7244C176.025 60.322 176.913 60.161 177.802 60.161C178.69 60.161 179.578 60.322 180.224 60.7244C180.87 61.1269 181.435 61.6099 181.758 62.3343C182.081 63.0587 182.323 63.8637 182.323 64.9101V66.7614C182.323 67.7273 182.162 68.6127 181.758 69.3372C181.435 70.0616 180.87 70.625 180.224 70.947C179.578 71.269 178.69 71.5105 177.802 71.5105C176.913 71.5105 176.025 71.1885 175.379 70.8665ZM179.578 68.6127C179.982 68.1298 180.224 67.4858 180.224 66.6004V64.7491C180.224 63.8637 179.982 63.2197 179.578 62.7368C179.174 62.2538 178.609 62.0123 177.802 62.0123C176.994 62.0123 176.429 62.2538 176.025 62.7368C175.621 63.2197 175.379 63.8637 175.379 64.7491V66.6004C175.379 67.4858 175.621 68.1298 176.025 68.6127C176.429 69.0957 176.994 69.3372 177.802 69.3372C178.609 69.3372 179.174 69.0957 179.578 68.6127Z" fill="#FAFCFE"/>
<path d="M188.46 71.4299C188.46 71.4299 188.137 71.269 187.411 70.8665C186.684 70.464 186.119 69.9006 185.796 69.1762C185.392 68.4517 185.23 67.5663 185.23 66.5199V65.3125C185.23 64.1856 185.392 63.3002 185.796 62.4953C186.199 61.6903 186.684 61.1269 187.411 60.7244C188.137 60.322 188.945 60.0805 189.914 60.0805C190.802 60.0805 191.609 60.322 192.255 60.8049C192.901 61.2879 193.386 61.9318 193.79 62.8172C194.113 63.7026 194.274 64.7491 194.274 65.9565V66.6809H186.845V64.91H192.255C192.175 64.0246 191.932 63.3002 191.529 62.8172C191.125 62.3343 190.56 62.0928 189.914 62.0928C189.106 62.0928 188.46 62.3343 187.976 62.8977C187.491 63.4612 187.33 64.1856 187.33 65.1515V66.5199C187.33 67.4053 187.572 68.1297 188.057 68.6127C188.541 69.0957 189.187 69.3371 190.075 69.3371C190.479 69.3371 190.964 69.2566 191.367 69.0957C191.771 68.9347 192.175 68.6932 192.498 68.3712L193.951 69.8201C193.386 70.3835 192.821 70.786 192.094 71.0275C191.448 71.3495 190.721 71.4299 190.075 71.4299C188.945 71.4299 188.46 71.4299 188.46 71.4299Z" fill="#FAFCFE"/>
<path d="M201.38 70.5445C200.734 69.9811 200.33 69.0957 200.33 67.9688C200.33 66.8419 200.653 66.037 201.218 65.554C201.864 64.9906 202.752 64.7491 204.044 64.7491H207.193L207.355 66.5199H204.044C203.479 66.5199 203.075 66.6809 202.752 66.9224C202.51 67.1639 202.349 67.5663 202.349 68.0493C202.349 68.6127 202.51 69.0152 202.914 69.2567C203.317 69.4981 203.883 69.6591 204.609 69.6591C205.417 69.6591 206.063 69.5786 206.467 69.4176C206.87 69.2567 207.113 68.9347 207.113 68.6127L207.355 70.1421C207.193 70.4641 206.951 70.7055 206.628 70.8665C206.386 71.0275 205.982 71.1885 205.659 71.269C205.255 71.3495 204.852 71.43 204.448 71.43C203.075 71.43 202.026 71.108 201.38 70.5445ZM207.113 64.2661C207.113 63.5417 206.951 62.9782 206.547 62.5758C206.144 62.1733 205.578 62.0123 204.932 62.0123C204.529 62.0123 204.044 62.0928 203.64 62.2538C203.237 62.4148 202.833 62.5758 202.51 62.8172L200.895 61.7708C201.299 61.2879 201.864 60.8854 202.51 60.5634C203.156 60.322 203.963 60.161 204.771 60.161C205.659 60.161 206.467 60.322 207.113 60.6439C207.759 60.9659 208.243 61.4489 208.566 62.0123C208.889 62.6563 209.051 63.3807 209.051 64.1856V71.269H206.951V64.2661H207.113Z" fill="#FAFCFE"/>
<path d="M212.442 60.2415H214.622V71.269H212.442V60.2415ZM213.573 60.2415H219.548V62.3343H213.573V60.2415Z" fill="#FAFCFE"/>
<path d="M224.797 71.4299C224.797 71.4299 224.474 71.269 223.747 70.8665C223.02 70.464 222.455 69.9006 222.132 69.1762C221.728 68.4517 221.567 67.5663 221.567 66.5199V65.3125C221.567 64.1856 221.728 63.3002 222.132 62.4953C222.536 61.6903 223.02 61.1269 223.747 60.7244C224.474 60.322 225.281 60.0805 226.25 60.0805C227.138 60.0805 227.946 60.322 228.592 60.8049C229.238 61.2879 229.722 61.9318 230.126 62.8172C230.449 63.7026 230.61 64.7491 230.61 65.9565V66.6809H223.182V64.91H228.592C228.511 64.0246 228.269 63.3002 227.865 62.8172C227.461 62.3343 226.896 62.0928 226.25 62.0928C225.443 62.0928 224.797 62.3343 224.312 62.8977C223.828 63.4612 223.666 64.1856 223.666 65.1515V66.5199C223.666 67.4053 223.908 68.1297 224.393 68.6127C224.877 69.0957 225.523 69.3371 226.411 69.3371C226.815 69.3371 227.3 69.2566 227.703 69.0957C228.107 68.9347 228.511 68.6932 228.834 68.3712L230.287 69.8201C229.722 70.3835 229.157 70.786 228.43 71.0275C227.784 71.3495 227.057 71.4299 226.411 71.4299C225.281 71.4299 224.797 71.4299 224.797 71.4299Z" fill="#FAFCFE"/>
<path d="M233.518 60.2415H235.698V71.269H233.518V60.2415ZM234.81 64.8296H241.592V66.7614H234.81V64.8296ZM240.462 60.2415H242.642V71.269H240.462V60.2415Z" fill="#FAFCFE"/>
<path d="M245.548 60.2415H254.108V62.1733H245.548V60.2415ZM248.698 61.3684H250.878V71.1885H248.698V61.3684Z" fill="#FAFCFE"/>
<path d="M259.921 71.43C259.921 71.43 259.598 71.269 258.872 70.8665C258.145 70.4641 257.58 69.9811 257.257 69.2567C256.934 68.5322 256.691 67.6468 256.691 66.6809V64.8296C256.691 63.8636 256.853 62.9782 257.257 62.2538C257.66 61.5294 258.145 61.0464 258.872 60.6439C259.598 60.2415 260.406 60.0805 261.455 60.0805C262.021 60.0805 262.586 60.161 263.07 60.322C263.555 60.4829 264.039 60.6439 264.443 60.8854C264.847 61.1269 265.17 61.4489 265.493 61.8513L263.959 63.2197C263.636 62.8977 263.313 62.5758 262.828 62.4148C262.424 62.2538 261.94 62.0928 261.536 62.0928C260.729 62.0928 260.083 62.3343 259.598 62.8172C259.114 63.3002 258.872 63.9441 258.872 64.8296V66.6809C258.872 67.5663 259.114 68.2103 259.598 68.6932C260.083 69.1762 260.729 69.4176 261.536 69.4176C262.021 69.4176 262.424 69.3372 262.828 69.0957C263.232 68.8542 263.636 68.6127 263.878 68.2103L265.412 69.7396C265.17 70.1421 264.766 70.3836 264.362 70.7055C263.959 70.947 263.474 71.1885 262.99 71.269C262.505 71.43 261.94 71.5105 261.375 71.5105C260.406 71.43 259.921 71.43 259.921 71.43Z" fill="#FAFCFE"/>
<path d="M267.269 60.2415H275.829V62.1733H267.269V60.2415ZM270.499 61.3684H272.679V71.1885H270.499V61.3684Z" fill="#FAFCFE"/>
<path d="M278.736 60.2415H280.916V71.269H278.736V60.2415ZM280.028 69.2567H284.146C284.549 69.2567 284.872 69.1762 285.115 68.9347C285.357 68.6932 285.438 68.3712 285.438 67.8883C285.438 67.4053 285.357 67.0834 285.115 66.8419C284.872 66.6004 284.549 66.4394 284.146 66.4394H280.028V64.5076H284.146C284.549 64.5076 284.792 64.4271 285.034 64.2661C285.276 64.1051 285.357 63.7832 285.357 63.4612C285.357 63.0587 285.276 62.7367 285.034 62.5758C284.872 62.3343 284.549 62.2538 284.226 62.2538H280.108V60.322H284.307C285.357 60.322 286.164 60.5634 286.73 61.0464C287.295 61.5294 287.618 62.1733 287.618 63.0587C287.618 63.7027 287.376 64.2661 286.972 64.7491C286.568 65.1515 286.003 65.4735 285.195 65.554C286.003 65.715 286.649 66.037 287.133 66.5199C287.618 67.0029 287.779 67.6468 287.779 68.4517C287.779 69.3372 287.456 70.0616 286.891 70.5445C286.245 71.0275 285.438 71.269 284.307 71.269H280.189V69.2567H280.028Z" fill="#FAFCFE"/>
<path d="M292.301 70.8665C291.655 70.4641 291.09 69.9811 290.767 69.2567C290.444 68.5322 290.202 67.6468 290.202 66.6809V64.9101C290.202 63.9441 290.363 63.0587 290.767 62.3343C291.09 61.6099 291.655 61.0464 292.301 60.7244C292.947 60.322 293.835 60.161 294.723 60.161C295.612 60.161 296.5 60.322 297.146 60.7244C297.792 61.1269 298.357 61.6099 298.68 62.3343C299.003 63.0587 299.245 63.8637 299.245 64.9101V66.7614C299.245 67.7273 299.084 68.6127 298.68 69.3372C298.357 70.0616 297.792 70.625 297.146 70.947C296.5 71.269 295.612 71.5105 294.723 71.5105C293.835 71.5105 293.028 71.1885 292.301 70.8665ZM296.5 68.6127C296.904 68.1298 297.146 67.4858 297.146 66.6004V64.7491C297.146 63.8637 296.904 63.2197 296.5 62.7368C296.096 62.2538 295.531 62.0123 294.723 62.0123C293.916 62.0123 293.351 62.2538 292.947 62.7368C292.543 63.2197 292.301 63.8637 292.301 64.7491V66.6004C292.301 67.4858 292.543 68.1298 292.947 68.6127C293.351 69.0957 293.916 69.3372 294.723 69.3372C295.531 69.3372 296.096 69.0957 296.5 68.6127Z" fill="#FAFCFE"/>
<path d="M57.4325 37.0229L56.583 37.4933V35.4234H57.5268L57.4325 37.0229Z" fill="#77B219"/>
<path d="M37.895 35.6116H36.9512V37.2581H37.895V35.6116Z" fill="#77B219"/>
<path d="M42.5671 41.7272L41.6233 41.2567V38.1989H42.5671V41.7272Z" fill="white"/>
<path d="M52.8547 38.1989H51.9109V41.2567H52.8547V38.1989Z" fill="white"/>
<path d="M47.0974 42.8091C53.3266 42.8091 58.3763 37.7753 58.3763 31.5659C58.3763 25.3564 53.3266 20.3226 47.0974 20.3226C40.8683 20.3226 35.8186 25.3564 35.8186 31.5659C35.8186 37.7753 40.8683 42.8091 47.0974 42.8091Z" stroke="#212C43" stroke-width="2" stroke-miterlimit="10"/>
</svg>
