<?xml version="1.0" encoding="utf-8"?>
<!-- Generator: Adobe Illustrator 23.0.1, SVG Export Plug-In . SVG Version: 6.00 Build 0)  -->
<svg version="1.1" id="Layer_1" xmlns="http://www.w3.org/2000/svg" xmlns:xlink="http://www.w3.org/1999/xlink" x="0px" y="0px"
	 width="215px" height="75px" viewBox="0 0 215 75" enable-background="new 0 0 215 75" xml:space="preserve">
<path fill="#9FC033" d="M29.3,0.7c-12.7,0-23,10.3-23,22.9c0,13.6,23,39.7,23,39.7s23-25.1,23-39.7C52.3,11,42,0.7,29.3,0.7z
	 M29.3,36.8c-7.8,0-14.2-6.3-14.2-14.1S21.5,8.5,29.3,8.5s14.2,6.3,14.2,14.1C43.4,30.5,37.1,36.8,29.3,36.8z"/>
<path fill="#FFFFFF" d="M9.6,45.3l0.1-0.1l-3.1-3l-0.1,0.1l-0.8,0.8c-0.5,0.5-0.3,1.6,0.6,2.5c0.8,0.8,2,1.1,2.5,0.6L9.6,45.3z"/>
<path fill="#7A9E24" d="M10.4,44.4l-3.1-3l-0.7,0.8l3.1,3l0.1-0.1L10.4,44.4z"/>
<path fill="#FFFFFF" d="M41.3,22.7c0-6.6-5.3-11.9-11.9-11.9s-11.9,5.3-11.9,11.9c0,2.4,0.7,4.7,2,6.6L7.4,41.3l3.1,3l12-12.1
	c2,1.4,4.3,2.2,6.9,2.2C35.9,34.5,41.3,29.2,41.3,22.7z M21,22.8c0-4.6,3.8-8.3,8.4-8.3c4.6,0,8.4,3.7,8.4,8.3
	c0,4.6-3.8,8.3-8.4,8.3C24.7,31.2,21,27.4,21,22.8z"/>
<path fill="#FFFFFF" d="M30.9,23.9c0.7-0.4,1.1-1.2,1.1-2.1c0-1.4-1.1-2.5-2.5-2.5c-1.4,0-2.5,1.1-2.5,2.5c0,0.9,0.4,1.6,1.1,2.1
	c-1.5,0.6-2.6,2-2.6,3.7h0.7c0-1.8,1.5-3.3,3.3-3.3c1.8,0,3.3,1.5,3.3,3.3h0.7C33.5,25.9,32.4,24.5,30.9,23.9z M27.7,21.9
	c0-1,0.8-1.8,1.8-1.8c1,0,1.8,0.8,1.8,1.8c0,1-0.8,1.8-1.8,1.8C28.5,23.7,27.7,22.9,27.7,21.9z"/>
<path fill="#7A9E24" d="M34.2,22.3c0.7-0.4,1.1-1.2,1.1-2.1c0-1.4-1.1-2.5-2.5-2.5c-0.7,0-1.3,0.3-1.7,0.7c-0.2,0.2-0.3,0.3-0.4,0.5
	c0.2,0.1,0.4,0.2,0.6,0.3c0.1-0.2,0.3-0.4,0.4-0.5c0.3-0.2,0.7-0.4,1.1-0.4c1,0,1.8,0.8,1.8,1.8c0,0.8-0.6,1.5-1.3,1.7
	C33.1,22,33,22,32.8,22c-0.1,0-0.1,0-0.2,0c0,0.2,0,0.5-0.1,0.7c0.1,0,0.2,0,0.3,0c0.1,0,0.3,0,0.4,0c1.6,0.2,2.9,1.3,2.9,2.9h0.7
	C36.8,23.9,35.7,22.8,34.2,22.3z"/>
<path fill="#7A9E24" d="M26.2,22.7c0.1,0,0.2,0,0.3,0c-0.1-0.2-0.1-0.5-0.1-0.7c-0.1,0-0.1,0-0.2,0c-0.2,0-0.3,0-0.5-0.1
	c-0.8-0.2-1.3-0.9-1.3-1.7c0-1,0.8-1.8,1.8-1.8c0.4,0,0.8,0.1,1.1,0.4c0.2,0.1,0.3,0.3,0.4,0.5c0.2-0.1,0.4-0.2,0.6-0.3
	c-0.1-0.2-0.3-0.4-0.4-0.5c-0.4-0.4-1-0.7-1.7-0.7c-1.4,0-2.5,1.1-2.5,2.5c0,0.9,0.4,1.6,1.1,2.1c-1.5,0.6-2.6,2-2.6,3.7H23
	c0-1.7,1.3-3,2.9-3.2C26,22.7,26.1,22.7,26.2,22.7z"/>
<path fill="#7A9E24" d="M77.7,23.3c-1.4-0.5-2.5-0.7-3.3-0.7c-0.6,0-1.1,0.1-1.6,0.4c-0.5,0.2-0.8,0.6-1.1,1
	c-0.3,0.4-0.5,0.9-0.7,1.4c-0.2,0.5-0.2,1.1-0.2,1.6c0,0.6,0.1,1.2,0.3,1.7c0.2,0.5,0.4,1,0.7,1.4c0.3,0.4,0.7,0.7,1.2,0.9
	c0.5,0.2,0.9,0.3,1.5,0.3c0.3,0,0.6,0,1-0.1v-3.9l4.2-0.5v7.6c-1.9,0.8-3.8,1.3-5.8,1.3c-2.3,0-4.3-0.9-6-2.6
	c-1.6-1.7-2.5-3.8-2.5-6.3c0-2.4,0.8-4.4,2.5-6.1c1.6-1.7,3.6-2.5,5.9-2.5c2.1,0,4,0.4,5.6,1.2L77.7,23.3z"/>
<path fill="#7A9E24" d="M81.3,27c0-2.4,0.8-4.4,2.3-6.1c1.6-1.8,3.9-2.6,6.7-2.6c1.4,0,2.6,0.2,3.7,0.7c1.1,0.4,2,1,2.8,1.8
	c0.8,0.8,1.4,1.7,1.8,2.8c0.4,1.1,0.6,2.2,0.6,3.5c0,0.8-0.1,1.5-0.3,2.2c-0.2,0.7-0.4,1.4-0.8,2.1c-0.3,0.6-0.8,1.2-1.3,1.8
	c-0.5,0.5-1.1,1-1.8,1.4c-0.7,0.4-1.4,0.7-2.2,0.9c-0.8,0.2-1.7,0.3-2.7,0.3c-1,0-1.9-0.1-2.7-0.3c-0.8-0.2-1.6-0.5-2.2-0.9
	s-1.3-0.9-1.8-1.4c-0.5-0.5-0.9-1.1-1.3-1.8c-0.3-0.6-0.6-1.3-0.8-2C81.4,28.5,81.3,27.8,81.3,27z M90.3,31.3c0.6,0,1.2-0.1,1.6-0.4
	c0.4-0.3,0.8-0.6,1.1-1c0.3-0.4,0.5-0.9,0.6-1.4c0.1-0.5,0.2-1,0.2-1.5c0-0.6-0.1-1.2-0.2-1.8c-0.2-0.5-0.4-1-0.7-1.4
	c-0.3-0.4-0.7-0.7-1.1-0.9c-0.4-0.2-0.9-0.4-1.4-0.4c-0.6,0-1.2,0.2-1.6,0.4c-0.4,0.3-0.8,0.6-1.1,1c-0.3,0.4-0.5,0.9-0.6,1.4
	c-0.1,0.5-0.2,1-0.2,1.6c0,0.6,0.1,1.2,0.2,1.7c0.2,0.5,0.4,1,0.7,1.4c0.3,0.4,0.7,0.7,1.1,0.9S89.8,31.3,90.3,31.3z"/>
<path fill="#7A9E24" d="M100.8,27c0-2.4,0.8-4.4,2.3-6.1c1.6-1.8,3.9-2.6,6.7-2.6c1.4,0,2.6,0.2,3.7,0.7c1.1,0.4,2,1,2.8,1.8
	c0.8,0.8,1.4,1.7,1.8,2.8c0.4,1.1,0.6,2.2,0.6,3.5c0,0.8-0.1,1.5-0.3,2.2c-0.2,0.7-0.4,1.4-0.8,2.1c-0.3,0.6-0.8,1.2-1.3,1.8
	c-0.5,0.5-1.1,1-1.8,1.4c-0.7,0.4-1.4,0.7-2.2,0.9c-0.8,0.2-1.7,0.3-2.7,0.3c-1,0-1.9-0.1-2.7-0.3c-0.8-0.2-1.6-0.5-2.2-0.9
	c-0.7-0.4-1.3-0.9-1.8-1.4c-0.5-0.5-0.9-1.1-1.3-1.8c-0.3-0.6-0.6-1.3-0.8-2C100.8,28.5,100.8,27.8,100.8,27z M109.7,31.3
	c0.6,0,1.2-0.1,1.6-0.4c0.4-0.3,0.8-0.6,1.1-1c0.3-0.4,0.5-0.9,0.6-1.4c0.1-0.5,0.2-1,0.2-1.5c0-0.6-0.1-1.2-0.3-1.8
	c-0.2-0.5-0.4-1-0.7-1.4c-0.3-0.4-0.7-0.7-1.1-0.9c-0.4-0.2-0.9-0.4-1.4-0.4c-0.6,0-1.2,0.2-1.6,0.4c-0.4,0.3-0.8,0.6-1.1,1
	c-0.3,0.4-0.5,0.9-0.6,1.4c-0.1,0.5-0.2,1-0.2,1.6c0,0.6,0.1,1.2,0.2,1.7c0.2,0.5,0.4,1,0.7,1.4c0.3,0.4,0.7,0.7,1.1,0.9
	C108.7,31.2,109.2,31.3,109.7,31.3z"/>
<path fill="#7A9E24" d="M121,18.7h7.3c1.4,0,2.6,0.2,3.7,0.6c1.1,0.4,2,1,2.8,1.7c0.8,0.7,1.4,1.6,1.8,2.6c0.4,1,0.6,2.1,0.6,3.3
	c0,1.3-0.2,2.4-0.6,3.5c-0.4,1-1,1.9-1.8,2.7c-0.8,0.7-1.7,1.3-2.8,1.7c-1.1,0.4-2.3,0.6-3.7,0.6H121V18.7z M128.3,31
	c0.6,0,1.1-0.1,1.6-0.4c0.4-0.3,0.8-0.6,1.1-1c0.3-0.4,0.5-0.8,0.6-1.3c0.1-0.5,0.2-1,0.2-1.4c0-0.6-0.1-1.1-0.3-1.5
	c-0.2-0.5-0.4-0.9-0.7-1.2c-0.3-0.3-0.7-0.6-1.1-0.8c-0.4-0.2-0.9-0.3-1.4-0.3h-1.9v8H128.3z"/>
<path fill="#7A9E24" d="M143.5,31.8l5.7-9.6h-5.5v-3.5h10.9v3.5l-5.6,9.6h5.8v3.5h-11.4V31.8z"/>
<path fill="#7A9E24" d="M156.3,27c0-2.4,0.8-4.4,2.3-6.1c1.6-1.8,3.9-2.6,6.7-2.6c1.4,0,2.6,0.2,3.7,0.7c1.1,0.4,2,1,2.8,1.8
	c0.8,0.8,1.4,1.7,1.8,2.8c0.4,1.1,0.6,2.2,0.6,3.5c0,0.8-0.1,1.5-0.3,2.2c-0.2,0.7-0.4,1.4-0.8,2.1c-0.3,0.6-0.8,1.2-1.3,1.8
	c-0.5,0.5-1.1,1-1.8,1.4c-0.7,0.4-1.4,0.7-2.2,0.9c-0.8,0.2-1.7,0.3-2.7,0.3c-1,0-1.9-0.1-2.7-0.3c-0.8-0.2-1.6-0.5-2.2-0.9
	c-0.7-0.4-1.3-0.9-1.8-1.4c-0.5-0.5-0.9-1.1-1.3-1.8c-0.3-0.6-0.6-1.3-0.8-2C156.3,28.5,156.3,27.8,156.3,27z M165.2,31.3
	c0.6,0,1.2-0.1,1.6-0.4c0.4-0.3,0.8-0.6,1.1-1c0.3-0.4,0.5-0.9,0.6-1.4c0.1-0.5,0.2-1,0.2-1.5c0-0.6-0.1-1.2-0.2-1.8
	c-0.2-0.5-0.4-1-0.7-1.4c-0.3-0.4-0.7-0.7-1.1-0.9c-0.4-0.2-0.9-0.4-1.4-0.4c-0.6,0-1.2,0.2-1.6,0.4c-0.4,0.3-0.8,0.6-1.1,1
	c-0.3,0.4-0.5,0.9-0.6,1.4c-0.1,0.5-0.2,1-0.2,1.6c0,0.6,0.1,1.2,0.2,1.7c0.2,0.5,0.4,1,0.7,1.4c0.3,0.4,0.7,0.7,1.1,0.9
	S164.7,31.3,165.2,31.3z"/>
<path fill="#7A9E24" d="M176.5,18.7h4.9l6.7,9v-9h4.4v16.7h-4.9l-6.7-8.7v8.7h-4.3V18.7z"/>
<path fill="#7A9E24" d="M195.6,18.7h11.7v3.7h-5.8v3h5.4v3.1h-5.4v3.3h5.8v3.6h-11.7V18.7z"/>
<path fill="#7A9E24" d="M43.4,23.2l7.6,7.3c0,0-0.8,3.1-5,10.5c-3.8,6.8-8.5,12.8-16.7,22.3c-10.3-12.2-16-21.7-16-21.7l7.6-7.6
	c0,0,4.2,3.6,10.5,2.6C43.1,34.1,43.3,24,43.4,23.2z"/>
<path fill="#FAFCFE" d="M67.8,43.1h1.5v7.8h-1.5V43.1z M68.5,46.2h2.8v1.5h-2.8V46.2z M70,46.4l2.1-3.3H74l-3.2,4.6L70,46.4z
	 M70.1,47.6l1.2-0.8l3.2,4.1h-2L70.1,47.6z"/>
<path fill="#FAFCFE" d="M76,50.4c-0.5-0.4-0.7-1-0.7-1.8c0-0.8,0.2-1.4,0.6-1.7c0.4-0.3,1.1-0.6,2-0.6h2.2l0.1,1.2h-2.3
	c-0.4,0-0.7,0.1-0.9,0.3c-0.2,0.2-0.3,0.5-0.3,0.8c0,0.4,0.1,0.7,0.4,0.9c0.3,0.2,0.7,0.3,1.2,0.3c0.6,0,1-0.1,1.3-0.2
	c0.3-0.1,0.5-0.3,0.5-0.6l0.2,1.1c-0.1,0.2-0.3,0.4-0.5,0.5c-0.2,0.1-0.5,0.2-0.7,0.3c-0.3,0.1-0.6,0.1-0.9,0.1
	C77.2,51,76.5,50.8,76,50.4z M80,46c0-0.5-0.1-0.9-0.4-1.2c-0.3-0.3-0.7-0.4-1.1-0.4c-0.3,0-0.6,0.1-0.9,0.2
	c-0.3,0.1-0.6,0.2-0.8,0.4l-1.1-0.7c0.3-0.3,0.7-0.6,1.1-0.9c0.5-0.2,1-0.3,1.6-0.3c0.6,0,1.2,0.1,1.6,0.3c0.5,0.2,0.8,0.6,1,1
	c0.2,0.5,0.3,1,0.3,1.5v5H80V46z"/>
<path fill="#FAFCFE" d="M83.3,49.5h7.5v1.4h-7.5V49.5z M83.3,49.5h1.5v3.3h-1.5V49.5z M83.6,49.5h0.2c0.3,0,0.6-0.1,0.7-0.2
	c0.2-0.2,0.3-0.5,0.3-0.8s0.1-0.9,0.1-1.4v-3.9h1.5v4.4c0,0.9-0.2,1.6-0.6,2c-0.3,0.5-0.9,0.7-1.6,0.7h-0.2L83.6,49.5z M85.8,43.1
	h3.5v1.4h-3.5V43.1z M88.8,43.1h1.5v7.8h-1.5V43.1z M90.2,49.5h1.5v3.3h-1.5V49.5z"/>
<path fill="#FAFCFE" d="M93.5,43.1h1.5V54h-1.5V43.1z M95.7,50.7c-0.3-0.2-0.6-0.6-0.8-1l0.1-1.6c0,0.3,0.1,0.6,0.2,0.9
	c0.1,0.2,0.3,0.4,0.5,0.5c0.2,0.1,0.5,0.2,0.9,0.2c0.5,0,0.9-0.2,1.2-0.5c0.3-0.3,0.4-0.7,0.4-1.3v-1.7c0-0.6-0.1-1-0.4-1.3
	c-0.3-0.3-0.7-0.5-1.2-0.5c-0.3,0-0.6,0.1-0.9,0.2c-0.2,0.1-0.4,0.3-0.5,0.5c-0.1,0.2-0.2,0.5-0.2,0.9l-0.2-1.5
	c0.2-0.5,0.6-0.8,0.9-1.1c0.4-0.2,0.8-0.4,1.3-0.4c0.6,0,1,0.1,1.4,0.4c0.4,0.2,0.7,0.6,0.9,1.1c0.2,0.5,0.3,1,0.3,1.7v1.7
	c0,0.7-0.1,1.2-0.3,1.7c-0.2,0.5-0.5,0.9-0.9,1.1C98,50.8,97.5,51,96.9,51C96.5,51,96.1,50.9,95.7,50.7z"/>
<path fill="#FAFCFE" d="M103.1,50.6c-0.5-0.3-0.9-0.6-1.1-1.1c-0.2-0.5-0.4-1.1-0.4-1.8v-1.2c0-0.7,0.1-1.3,0.4-1.8
	c0.2-0.5,0.6-0.9,1.1-1.1c0.5-0.3,1.1-0.4,1.7-0.4c0.6,0,1.3,0.1,1.7,0.4c0.5,0.3,0.9,0.6,1.1,1.1s0.4,1.1,0.4,1.8v1.3
	c0,0.7-0.1,1.3-0.4,1.8c-0.2,0.5-0.6,0.9-1.1,1.1c-0.5,0.2-1.1,0.4-1.7,0.4C104.2,51.1,103.6,50.8,103.1,50.6z M106.1,49
	c0.3-0.3,0.5-0.8,0.5-1.4v-1.3c0-0.6-0.2-1.1-0.5-1.4c-0.3-0.3-0.7-0.5-1.3-0.5c-0.6,0-1,0.2-1.3,0.5c-0.3,0.3-0.5,0.8-0.5,1.4v1.3
	c0,0.6,0.2,1.1,0.5,1.4c0.3,0.3,0.7,0.5,1.3,0.5C105.4,49.5,105.8,49.4,106.1,49z"/>
<path fill="#FAFCFE" d="M110.2,43.1h1.5v7.8h-1.5V43.1z M111.1,49.5h2.9c0.3,0,0.5-0.1,0.7-0.2c0.2-0.2,0.2-0.4,0.2-0.7
	c0-0.3-0.1-0.6-0.2-0.7c-0.2-0.2-0.4-0.3-0.7-0.3h-2.9v-1.4h2.9c0.3,0,0.5-0.1,0.6-0.2c0.2-0.1,0.2-0.3,0.2-0.6
	c0-0.3-0.1-0.5-0.2-0.6c-0.1-0.2-0.3-0.2-0.6-0.2h-2.9v-1.4h3c0.7,0,1.3,0.2,1.7,0.5c0.4,0.3,0.6,0.8,0.6,1.4c0,0.5-0.2,0.9-0.5,1.2
	c-0.3,0.3-0.7,0.5-1.3,0.6c0.6,0.1,1,0.3,1.4,0.7c0.3,0.3,0.5,0.8,0.5,1.4c0,0.6-0.2,1.1-0.6,1.5c-0.5,0.3-1,0.5-1.8,0.5h-2.9v-1.4
	H111.1z"/>
<path fill="#FAFCFE" d="M119.8,50.6c-0.5-0.3-0.9-0.6-1.1-1.1c-0.2-0.5-0.4-1.1-0.4-1.8v-1.2c0-0.7,0.1-1.3,0.4-1.8
	c0.2-0.5,0.6-0.9,1.1-1.1c0.5-0.3,1.1-0.4,1.7-0.4c0.6,0,1.3,0.1,1.7,0.4c0.5,0.3,0.9,0.6,1.1,1.1c0.2,0.5,0.4,1.1,0.4,1.8v1.3
	c0,0.7-0.1,1.3-0.4,1.8c-0.2,0.5-0.6,0.9-1.1,1.1c-0.5,0.2-1.1,0.4-1.7,0.4C120.9,51.1,120.2,50.8,119.8,50.6z M122.8,49
	c0.3-0.3,0.5-0.8,0.5-1.4v-1.3c0-0.6-0.2-1.1-0.5-1.4c-0.3-0.3-0.7-0.5-1.3-0.5c-0.6,0-1,0.2-1.3,0.5c-0.3,0.3-0.5,0.8-0.5,1.4v1.3
	c0,0.6,0.2,1.1,0.5,1.4c0.3,0.3,0.7,0.5,1.3,0.5C122.1,49.5,122.5,49.4,122.8,49z"/>
<path fill="#FAFCFE" d="M129,51c0,0-0.2-0.1-0.7-0.4c-0.5-0.3-0.9-0.7-1.1-1.2c-0.3-0.5-0.4-1.1-0.4-1.9v-0.9c0-0.8,0.1-1.4,0.4-2
	c0.3-0.6,0.6-1,1.1-1.2c0.5-0.3,1.1-0.5,1.8-0.5c0.6,0,1.2,0.2,1.6,0.5c0.5,0.3,0.8,0.8,1.1,1.4c0.2,0.6,0.3,1.4,0.3,2.2v0.5h-5.2
	v-1.2h3.8c-0.1-0.6-0.2-1.1-0.5-1.5c-0.3-0.3-0.7-0.5-1.1-0.5c-0.6,0-1,0.2-1.4,0.6c-0.3,0.4-0.5,0.9-0.5,1.6v1
	c0,0.6,0.2,1.1,0.5,1.5c0.3,0.3,0.8,0.5,1.4,0.5c0.3,0,0.6-0.1,0.9-0.2c0.3-0.1,0.6-0.3,0.8-0.5l1,1c-0.4,0.4-0.8,0.7-1.3,0.9
	c-0.5,0.2-1,0.3-1.4,0.3C129.3,51,129,51,129,51z"/>
<path fill="#FAFCFE" d="M138.1,50.4c-0.5-0.4-0.7-1-0.7-1.8c0-0.8,0.2-1.4,0.6-1.7c0.5-0.4,1.1-0.6,2-0.6h2.2l0.1,1.2H140
	c-0.4,0-0.7,0.1-0.9,0.3c-0.2,0.2-0.3,0.5-0.3,0.8c0,0.4,0.1,0.7,0.4,0.9c0.3,0.2,0.7,0.3,1.2,0.3c0.6,0,1-0.1,1.3-0.2
	c0.3-0.1,0.5-0.3,0.5-0.6l0.2,1.1c-0.1,0.2-0.3,0.4-0.5,0.5c-0.2,0.1-0.5,0.2-0.7,0.3c-0.3,0.1-0.6,0.1-0.9,0.1
	C139.3,51,138.6,50.8,138.1,50.4z M142.1,46c0-0.5-0.1-0.9-0.4-1.2c-0.3-0.3-0.7-0.4-1.1-0.4c-0.3,0-0.6,0.1-0.9,0.2
	c-0.3,0.1-0.6,0.2-0.8,0.4l-1.1-0.7c0.3-0.3,0.7-0.6,1.1-0.9c0.5-0.2,1-0.3,1.6-0.3c0.6,0,1.2,0.1,1.6,0.3c0.5,0.2,0.8,0.6,1,1
	c0.2,0.5,0.3,1,0.3,1.5v5H142V46H142.1z"/>
<path fill="#FAFCFE" d="M145.9,43.1h1.5v7.8h-1.5V43.1z M146.7,43.1h4.2v1.5h-4.2V43.1z"/>
<path fill="#FAFCFE" d="M154.6,51c0,0-0.2-0.1-0.7-0.4c-0.5-0.3-0.9-0.7-1.1-1.2c-0.3-0.5-0.4-1.1-0.4-1.9v-0.9c0-0.8,0.1-1.4,0.4-2
	c0.3-0.6,0.6-1,1.1-1.2c0.5-0.3,1.1-0.5,1.8-0.5c0.6,0,1.2,0.2,1.6,0.5c0.5,0.3,0.8,0.8,1.1,1.4c0.2,0.6,0.3,1.4,0.3,2.2v0.5h-5.2
	v-1.2h3.8c-0.1-0.6-0.2-1.1-0.5-1.5c-0.3-0.3-0.7-0.5-1.1-0.5c-0.6,0-1,0.2-1.4,0.6c-0.3,0.4-0.5,0.9-0.5,1.6v1
	c0,0.6,0.2,1.1,0.5,1.5c0.3,0.3,0.8,0.5,1.4,0.5c0.3,0,0.6-0.1,0.9-0.2c0.3-0.1,0.6-0.3,0.8-0.5l1,1c-0.4,0.4-0.8,0.7-1.3,0.9
	c-0.5,0.2-1,0.3-1.4,0.3C154.9,51,154.6,51,154.6,51z"/>
<path fill="#FAFCFE" d="M160.7,43.1h1.5v7.8h-1.5V43.1z M161.7,46.4h4.8v1.4h-4.8V46.4z M165.6,43.1h1.5v7.8h-1.5V43.1z"/>
<path fill="#FAFCFE" d="M169.2,43.1h6v1.4h-6V43.1z M171.4,43.9h1.5v6.9h-1.5V43.9z"/>
<path fill="#FAFCFE" d="M179.3,51c0,0-0.2-0.1-0.7-0.4c-0.5-0.3-0.9-0.6-1.1-1.1c-0.2-0.5-0.4-1.1-0.4-1.8v-1.3
	c0-0.7,0.1-1.3,0.4-1.8c0.3-0.5,0.6-0.9,1.1-1.1c0.5-0.3,1.1-0.4,1.8-0.4c0.4,0,0.8,0.1,1.1,0.2c0.3,0.1,0.7,0.2,1,0.4
	s0.5,0.4,0.7,0.7l-1.1,1c-0.2-0.2-0.5-0.5-0.8-0.6c-0.3-0.1-0.6-0.2-0.9-0.2c-0.6,0-1,0.2-1.4,0.5c-0.3,0.3-0.5,0.8-0.5,1.4v1.3
	c0,0.6,0.2,1.1,0.5,1.4c0.3,0.3,0.8,0.5,1.4,0.5c0.3,0,0.6-0.1,0.9-0.2c0.3-0.2,0.6-0.3,0.7-0.6l1.1,1.1c-0.2,0.3-0.5,0.5-0.7,0.7
	c-0.3,0.2-0.6,0.3-1,0.4c-0.3,0.1-0.7,0.2-1.1,0.2C179.7,51,179.3,51,179.3,51z"/>
<path fill="#FAFCFE" d="M184.5,43.1h6v1.4h-6V43.1z M186.8,43.9h1.5v6.9h-1.5V43.9z"/>
<path fill="#FAFCFE" d="M192.6,43.1h1.5v7.8h-1.5V43.1z M193.5,49.5h2.9c0.3,0,0.5-0.1,0.7-0.2c0.2-0.2,0.2-0.4,0.2-0.7
	c0-0.3-0.1-0.6-0.2-0.7c-0.2-0.2-0.4-0.3-0.7-0.3h-2.9v-1.4h2.9c0.3,0,0.5-0.1,0.6-0.2c0.2-0.1,0.2-0.3,0.2-0.6
	c0-0.3-0.1-0.5-0.2-0.6c-0.1-0.2-0.3-0.2-0.6-0.2h-2.9v-1.4h3c0.7,0,1.3,0.2,1.7,0.5c0.4,0.3,0.6,0.8,0.6,1.4c0,0.5-0.2,0.9-0.5,1.2
	c-0.3,0.3-0.7,0.5-1.3,0.6c0.6,0.1,1,0.3,1.4,0.7c0.3,0.3,0.5,0.8,0.5,1.4c0,0.6-0.2,1.1-0.6,1.5c-0.5,0.3-1,0.5-1.8,0.5h-2.9v-1.4
	H193.5z"/>
<path fill="#FAFCFE" d="M202.1,50.6c-0.5-0.3-0.9-0.6-1.1-1.1c-0.2-0.5-0.4-1.1-0.4-1.8v-1.2c0-0.7,0.1-1.3,0.4-1.8
	c0.2-0.5,0.6-0.9,1.1-1.1c0.5-0.3,1.1-0.4,1.7-0.4c0.6,0,1.3,0.1,1.7,0.4c0.5,0.3,0.9,0.6,1.1,1.1c0.2,0.5,0.4,1.1,0.4,1.8v1.3
	c0,0.7-0.1,1.3-0.4,1.8c-0.2,0.5-0.6,0.9-1.1,1.1c-0.5,0.2-1.1,0.4-1.7,0.4C203.2,51.1,202.7,50.8,202.1,50.6z M205.1,49
	c0.3-0.3,0.5-0.8,0.5-1.4v-1.3c0-0.6-0.2-1.1-0.5-1.4c-0.3-0.3-0.7-0.5-1.3-0.5c-0.6,0-1,0.2-1.3,0.5c-0.3,0.3-0.5,0.8-0.5,1.4v1.3
	c0,0.6,0.2,1.1,0.5,1.4c0.3,0.3,0.7,0.5,1.3,0.5C204.4,49.5,204.8,49.4,205.1,49z"/>
<path fill="#77B219" d="M36.7,26.8l-0.6,0.3v-1.5h0.7L36.7,26.8z"/>
<path fill="#77B219" d="M23,25.8h-0.7v1.2H23V25.8z"/>
<path fill="#FFFFFF" d="M26.2,30.1l-0.7-0.3v-2.2h0.7V30.1z"/>
<path fill="#FFFFFF" d="M33.5,27.6h-0.7v2.2h0.7V27.6z"/>
<path fill="none" stroke="#212C43" stroke-width="1.4087" stroke-miterlimit="10" d="M29.4,30.8c4.4,0,7.9-3.5,7.9-7.9
	c0-4.4-3.6-7.9-7.9-7.9c-4.4,0-7.9,3.5-7.9,7.9C21.5,27.3,25.1,30.8,29.4,30.8z"/>
</svg>
