<svg width="11" height="10" viewBox="0 0 11 10" fill="none" xmlns="http://www.w3.org/2000/svg">
<path fill-rule="evenodd" clip-rule="evenodd" d="M5.41833 3.87689C4.5376 3.87689 0 1.30374 0 1.30374V0.901928C0 0.404064 0.404064 0 0.90283 0H9.93384C10.4331 0 10.8371 0.404064 10.8371 0.901928L10.8299 1.35289C10.8299 1.35289 6.34146 3.87689 5.41833 3.87689Z" fill="#FAFCFE"/>
<path fill-rule="evenodd" clip-rule="evenodd" d="M5.41833 5.11702C6.38385 5.11702 10.8299 2.70576 10.8299 2.70576L10.8371 8.11733C10.8371 8.6152 10.4331 9.01926 9.93384 9.01926H0.90283C0.404515 9.01926 0 8.6152 0 8.11733L0.00721542 2.70576C0.00676446 2.70576 4.5376 5.11702 5.41833 5.11702Z" fill="#FAFCFE"/>
</svg>
