<svg width="160" height="30" viewBox="0 0 160 30" fill="none" xmlns="http://www.w3.org/2000/svg">
<path d="M17.0028 1.14453V15.4497C17.0028 16.1037 16.5123 16.5941 15.8584 16.5941H14.1418C14.06 16.5941 13.9783 16.6759 13.9783 16.7576V28.774C14.387 28.774 14.7957 28.8557 15.2862 28.8557C22.9701 28.8557 29.1826 22.6432 29.1826 14.9592C29.1826 7.84753 23.8693 1.96197 17.0028 1.14453ZM16.6758 22.5614C15.6949 22.5614 14.9592 21.744 14.9592 20.8448C14.9592 19.8639 15.7766 19.1282 16.6758 19.1282C17.6567 19.1282 18.3924 19.9456 18.3924 20.8448C18.4742 21.744 17.6567 22.5614 16.6758 22.5614ZM20.763 22.5614C19.7821 22.5614 19.0464 21.744 19.0464 20.8448C19.0464 19.8639 19.8638 19.1282 20.763 19.1282C21.7439 19.1282 22.4796 19.9456 22.4796 20.8448C22.4796 21.744 21.7439 22.5614 20.763 22.5614ZM24.8502 22.5614C23.8693 22.5614 23.1336 21.744 23.1336 20.8448C23.1336 19.8639 23.951 19.1282 24.8502 19.1282C25.8311 19.1282 26.5668 19.9456 26.5668 20.8448C26.5668 21.744 25.8311 22.5614 24.8502 22.5614Z" fill="#212C43" fill-opacity="0.8"/>
<path d="M15.2861 1.06274C7.60218 1.06274 1.38965 7.27528 1.38965 14.9592C1.38965 21.6622 6.04905 27.2208 12.3433 28.5287V16.0219C12.3433 15.4497 12.8338 14.9592 13.406 14.8775H13.9782H15.1226C15.2044 14.8775 15.2861 14.7957 15.2861 14.714V1.06274ZM12.5886 12.5069C11.6076 12.5069 10.8719 11.6894 10.8719 10.7903C10.8719 9.80934 11.6894 9.07364 12.5886 9.07364C13.5695 9.07364 14.3052 9.89108 14.3052 10.7903C14.3052 11.6894 13.5695 12.5069 12.5886 12.5069Z" fill="#212C43" fill-opacity="0.8"/>
<path d="M154.414 8.66479V13.8964H147.384V8.66479H143.869V22.5613H147.384V16.9209H154.414V22.5613H157.847V8.66479H154.414Z" fill="#212C43" fill-opacity="0.8"/>
<path d="M96.5394 10.218C95.9672 8.99184 94.8228 8.33789 93.6784 8.33789C92.534 8.33789 91.3895 8.99184 90.8173 10.218L85.177 22.5613H88.8555L90.0816 19.6185H97.2751L98.5013 22.5613H102.18L96.5394 10.218ZM91.2261 16.8393L93.3514 11.7711C93.4331 11.6076 93.5149 11.6076 93.5966 11.6076C93.6784 11.6076 93.8419 11.6076 93.8419 11.7711L95.9672 16.8393H91.2261Z" fill="#212C43" fill-opacity="0.8"/>
<path d="M55.177 6.13086C53.5421 6.13086 52.4794 7.03004 51.7437 8.74666L47.2478 19.2099L42.7519 8.74666C42.0162 7.03004 40.9535 6.13086 39.3187 6.13086C37.7655 6.13086 36.2124 7.19353 36.2124 9.5641V22.4796H39.6456V9.97282L44.2233 20.3543C44.7955 21.8257 45.8582 22.7249 47.2478 22.7249C48.7192 22.7249 49.7001 21.8257 50.2723 20.3543L54.85 9.97282V22.5614H58.2832V9.64585C58.2832 7.27527 56.7301 6.13086 55.177 6.13086Z" fill="#212C43" fill-opacity="0.8"/>
<path d="M64.414 19.6187C64.2505 19.6187 64.0871 19.4552 64.0871 19.2917V16.8394H72.7519V13.9783H64.0871V11.853C64.0871 11.6895 64.2505 11.526 64.414 11.526H72.9971V8.58325H62.6974C61.4712 8.58325 60.6538 9.56418 60.6538 10.6268V20.3544C60.6538 21.417 61.553 22.398 62.6974 22.398H72.9971V19.4552H64.414V19.6187Z" fill="#212C43" fill-opacity="0.8"/>
<path d="M78.8009 22.5613V11.9345C78.8009 11.7711 78.9644 11.6076 79.1279 11.6076H87.711V8.66479H77.4113C76.1851 8.66479 75.3677 9.64572 75.3677 10.7084V22.4795H78.8009V22.5613Z" fill="#212C43" fill-opacity="0.8"/>
<path d="M141.58 15.6132C141.58 10.7903 139.455 8.50146 134.223 8.50146H132.997C127.765 8.50146 125.64 10.7903 125.64 15.6132C125.64 20.3543 127.765 22.7249 132.997 22.7249H134.142C139.455 22.6432 141.58 20.3543 141.58 15.6132ZM134.142 19.7821H132.997C130.136 19.7821 128.992 18.4742 128.992 15.6132C128.992 12.8339 129.973 11.4442 132.997 11.4442H134.142C137.084 11.4442 138.147 12.8339 138.147 15.6132C138.147 18.4742 137.084 19.7821 134.142 19.7821Z" fill="#212C43" fill-opacity="0.8"/>
<path d="M115.995 6.45776H109.128C103.978 6.45776 101.935 9.07357 101.935 13.5695C101.935 14.3052 102.016 14.9591 102.098 15.5313C102.67 18.7193 104.55 20.6812 109.373 20.6812H110.926V22.4796H114.36V20.6812H115.831C120.654 20.6812 122.534 18.7193 123.106 15.5313C123.188 14.9591 123.27 14.3052 123.27 13.5695C123.188 9.07357 121.063 6.45776 115.995 6.45776ZM110.763 17.8202H109.21C106.839 17.8202 106.022 16.921 105.531 15.5313C105.368 15.0409 105.368 14.3052 105.368 13.5695C105.368 10.6267 106.757 9.40054 108.719 9.40054H110.845V17.8202H110.763ZM119.591 15.6131C119.101 17.0027 118.202 17.9019 115.913 17.9019H114.36V9.40054H116.485C118.447 9.40054 119.836 10.6267 119.836 13.5695C119.755 14.3869 119.755 15.0409 119.591 15.6131Z" fill="#212C43" fill-opacity="0.8"/>
</svg>
