<svg width="11" height="11" viewBox="0 0 11 11" fill="none" xmlns="http://www.w3.org/2000/svg">
<path fill-rule="evenodd" clip-rule="evenodd" d="M2.27857 0.0223897C2.41215 0.0111948 2.52664 0.0436598 2.60072 0.165683C2.76685 0.434359 2.93409 0.703035 3.09236 0.978428C3.27532 1.29636 3.44369 1.62325 3.62329 1.94454C3.66931 2.03074 3.73329 2.10911 3.78717 2.19195C3.83656 2.27031 3.8837 2.35091 3.92972 2.42928C4.02401 2.60728 4.01952 2.78639 3.87921 2.92857C3.67941 3.13231 3.45941 3.32151 3.24726 3.51518C3.06991 3.6775 2.88583 3.83311 2.71297 3.99879C2.57827 4.12865 2.54348 4.29098 2.6344 4.46226C2.7747 4.72422 2.91389 4.98618 3.06767 5.24254C3.63788 6.19074 4.36636 6.99677 5.28679 7.61808C5.64149 7.85877 6.01078 8.07931 6.38344 8.28977C6.73477 8.48792 6.87171 8.45433 7.14447 8.15095C7.39815 7.86996 7.64285 7.5845 7.8954 7.30127C7.95602 7.23298 8.02898 7.17253 8.09969 7.11431C8.24337 6.99341 8.40051 6.97998 8.56552 7.06282C8.61154 7.08521 8.66093 7.10536 8.70133 7.13446C9.1391 7.4468 9.62849 7.66734 10.091 7.93266C10.339 8.07483 10.5803 8.22708 10.8239 8.37261C10.9553 8.44986 11.008 8.56292 10.999 8.71853C10.9743 9.15625 10.9014 9.58613 10.6466 9.95556C10.5399 10.1089 10.3884 10.2433 10.2357 10.3519C9.81258 10.6474 9.34002 10.8299 8.83715 10.9418C8.38031 11.0437 7.92459 11.0068 7.48682 10.8702C6.64161 10.6105 5.80873 10.3127 5.04209 9.86152C4.34616 9.45067 3.71309 8.95474 3.12716 8.4006C2.38521 7.69644 1.72295 6.92848 1.18753 6.05416C0.838446 5.48658 0.589258 4.87535 0.363642 4.2518C0.226701 3.87565 0.0920051 3.50286 0.0313918 3.10433C-0.0382012 2.65317 0.010065 2.21881 0.154863 1.79117C0.28507 1.40495 0.447827 1.03552 0.693648 0.705274C0.886712 0.448913 1.12804 0.260839 1.44009 0.176878C1.6904 0.110829 1.94295 0.0582131 2.19439 0C2.22694 0.0257481 2.25276 0.0257481 2.27857 0.0223897Z" fill="#FAFCFE"/>
</svg>
