<svg width="180" height="45" viewBox="0 0 180 45" fill="none" xmlns="http://www.w3.org/2000/svg">
<path fill-rule="evenodd" clip-rule="evenodd" d="M172.8 6.47989H176.94C176.22 6.92989 175.23 7.73989 173.88 8.90989L169.74 13.2299L172.08 16.4699C174.51 19.8899 176.58 22.4999 178.38 24.2999H172.44C171.72 22.5899 170.73 20.7899 169.47 18.9899L166.77 14.9399L169.11 11.9699C171.18 9.17989 172.44 7.37989 172.8 6.47989ZM166.41 8.45989V22.2299L166.59 23.2199C166.68 23.3999 166.95 23.5799 167.4 23.6699V24.2999H161.64V23.7599L162.45 23.3099C162.54 23.1299 162.63 22.7699 162.63 22.3199V8.45989L162.45 7.46989C162.36 7.28989 162.09 7.10989 161.64 7.10989V6.47989H167.4V7.10989C166.95 7.19989 166.68 7.28989 166.59 7.55989L166.41 8.45989ZM157.86 8.45989V22.2299L158.04 23.2199L158.85 23.6699V24.2999H153V23.7599C153.45 23.6699 153.72 23.4899 153.9 23.3099L153.99 22.3199V15.1199H147.15V22.3199L147.33 23.3099C147.42 23.4899 147.69 23.6699 148.14 23.7599V24.2999H142.2V23.7599C142.65 23.6699 143.01 23.4899 143.1 23.3099L143.28 22.3199V8.45989L143.1 7.46989C143.01 7.28989 142.65 7.10989 142.2 7.10989V6.47989H148.14V7.10989C147.69 7.19989 147.42 7.28989 147.33 7.55989L147.15 8.54989V14.0399H153.99V8.45989L153.9 7.46989C153.72 7.28989 153.45 7.10989 153 7.10989V6.47989H158.85V7.10989C158.4 7.19989 158.13 7.28989 158.04 7.55989L157.86 8.45989ZM155.7 36.0899H158.49L157.32 42.0299H156.6L157.14 39.3299H155.7L153.81 42.0299H152.91L154.89 39.2399C154.08 38.9699 153.63 38.5199 153.63 37.7099C153.63 37.2599 153.81 36.8999 154.17 36.6299C154.53 36.2699 155.07 36.0899 155.7 36.0899ZM155.52 38.6099H157.23L157.59 36.7199H155.7C155.25 36.7199 154.98 36.8099 154.71 37.0799C154.53 37.2599 154.44 37.5299 154.44 37.7999C154.44 38.3399 154.8 38.6099 155.52 38.6099ZM148.59 37.6199L148.05 40.5899C148.5 41.1299 149.04 41.4899 149.58 41.4899C150.12 41.4899 150.66 41.2199 151.02 40.5899C151.47 39.9599 151.65 39.2399 151.65 38.4299C151.65 37.8899 151.56 37.4399 151.29 37.0799C151.02 36.8099 150.75 36.6299 150.3 36.6299C149.58 36.6299 149.04 36.9899 148.59 37.6199ZM148.86 36.0899L148.68 36.8099L149.49 36.1799L150.48 35.9099C151.11 35.9099 151.65 36.0899 151.92 36.5399C152.28 36.9899 152.46 37.5299 152.46 38.3399C152.46 39.4199 152.19 40.3199 151.65 41.0399C151.11 41.7599 150.39 42.0299 149.58 42.0299L148.59 41.8499L147.87 41.3099L147.33 44.2799H146.52L148.14 35.9099L148.86 36.0899ZM162.99 36.0899L163.71 41.3099H164.25L163.89 43.1099H163.26L163.35 41.9399H159.39L159.03 43.1099H158.49L158.85 41.3099H159.39L161.91 36.0899H162.99ZM162.27 36.8999L160.2 41.3999H162.81L162.45 36.8999H162.27ZM165.06 39.5999C165.06 38.6099 165.33 37.7099 165.96 36.9899C166.5 36.2699 167.13 35.9999 167.94 35.9999C168.57 35.9999 169.11 36.2699 169.47 36.7199C169.83 37.1699 170.01 37.7999 170.01 38.6099C170.01 39.5999 169.74 40.4099 169.2 41.1299C168.66 41.8499 167.94 42.1199 167.22 42.1199C166.59 42.1199 166.05 41.8499 165.6 41.3999C165.24 40.9499 165.06 40.3199 165.06 39.5999ZM178.38 30.4199H48.1499V28.7099H178.38V30.4199ZM173.34 36.0899L174.06 41.2199L176.58 36.0899H177.84L176.67 42.0299H175.86L176.85 36.8099L174.24 42.0299H173.43L172.62 36.8099L171.63 42.0299H170.82L171.99 36.0899H173.34ZM168.84 37.1699C168.57 36.8099 168.21 36.7199 167.85 36.7199C167.31 36.7199 166.86 36.9899 166.5 37.6199C166.05 38.2499 165.87 38.9699 165.87 39.7799C165.87 40.3199 165.96 40.7699 166.23 41.1299C166.5 41.3999 166.77 41.5799 167.22 41.5799C167.76 41.5799 168.21 41.3099 168.66 40.6799C169.02 40.0499 169.2 39.3299 169.2 38.5199C169.29 37.8899 169.11 37.4399 168.84 37.1699ZM129.51 7.01989V6.47989H134.64C134.73 7.28989 134.91 8.18989 135.27 9.08989L139.05 19.7099C139.68 21.5999 140.31 23.1299 140.94 24.2099H136.44L134.55 17.8199H128.7L127.44 22.0499L127.08 24.2099H123.84L129.6 10.8899C130.14 9.44989 130.41 8.54989 130.41 8.00989C130.59 7.46989 130.23 7.10989 129.51 7.01989ZM131.67 9.44989L129.24 16.6499H134.1L131.67 9.44989ZM122.49 10.3499H121.5L121.23 9.53989C120.96 8.63989 120.6 8.09989 120.15 7.82989L117.63 7.46989H115.29C114.75 7.46989 114.39 7.55989 114.21 7.73989C114.03 7.91989 113.94 8.18989 113.94 8.54989V12.7799H114.93C117.81 12.7799 119.79 13.0499 120.96 13.5899C122.58 14.3999 123.3 15.9299 123.3 18.1799C123.3 20.4299 122.67 21.9599 121.41 22.9499C120.33 23.7599 118.62 24.1199 116.19 24.1199H109.08V23.5799L109.89 23.1299L110.07 22.1399V8.45989L109.89 7.46989C109.8 7.28989 109.53 7.10989 109.08 7.10989V6.47989H122.31V10.3499H122.49ZM114.12 14.0399V21.5999C114.12 22.2299 114.21 22.5899 114.39 22.7699C114.66 23.0399 115.02 23.1299 115.65 23.1299H116.19C117.36 23.1299 118.17 22.7699 118.71 21.9599C119.16 21.2399 119.43 20.0699 119.43 18.4499C119.43 16.9199 119.16 15.7499 118.62 15.1199C118.08 14.3099 117.09 13.9499 115.56 13.9499C115.65 13.9499 114.12 13.9499 114.12 14.0399ZM115.2 34.1999C115.56 34.5599 115.74 35.0999 115.74 35.6399C115.74 36.1799 115.56 36.6299 115.2 36.9899C114.93 37.3499 114.39 37.6199 113.76 37.7999C114.66 38.1599 115.11 38.7899 115.11 39.5999C115.11 40.4099 114.84 40.9499 114.3 41.3999C113.76 41.8499 113.04 42.0299 111.96 42.0299H109.17L110.79 33.5699H113.4C114.21 33.5699 114.84 33.7499 115.2 34.1999ZM111.51 34.3799L110.88 37.3499H112.59C113.31 37.3499 113.85 37.1699 114.21 36.8999C114.57 36.5399 114.84 36.1799 114.84 35.6399C114.84 35.1899 114.75 34.9199 114.48 34.7399C114.21 34.5599 113.76 34.4699 113.31 34.4699L111.51 34.3799ZM117.09 39.5999C117.09 40.2299 117.27 40.6799 117.54 40.9499C117.81 41.3099 118.17 41.3999 118.71 41.3999L119.7 41.1299L120.24 40.3199L120.87 40.5899L119.97 41.7599C119.61 42.0299 119.07 42.2099 118.53 42.2099C117.81 42.2099 117.27 41.9399 116.82 41.4899C116.37 41.0399 116.19 40.3199 116.19 39.5099C116.19 38.5199 116.46 37.7099 117 36.9899C117.54 36.2699 118.26 35.9999 119.07 35.9999C119.61 35.9999 120.06 36.1799 120.42 36.4499C120.78 36.7199 121.05 37.1699 121.23 37.7099L120.51 37.8899C120.33 37.0799 119.79 36.7199 119.07 36.7199C118.53 36.7199 118.08 36.9899 117.63 37.5299C117.27 37.9799 117.09 38.6999 117.09 39.5999ZM112.32 38.0699H110.79L110.16 41.3099H112.14C112.77 41.3099 113.31 41.1299 113.67 40.8599C114.03 40.5899 114.21 40.1399 114.21 39.6899C114.21 39.3299 114.03 38.9699 113.67 38.6099C113.4 38.1599 112.95 38.0699 112.32 38.0699ZM126.99 39.0599H122.85L122.76 39.5099C122.76 40.1399 122.94 40.5899 123.21 40.8599C123.48 41.2199 123.84 41.3099 124.38 41.3099C124.83 41.3099 125.19 41.2199 125.46 40.8599L126.27 39.8699L126.99 40.2299L125.82 41.3999C125.37 41.7599 124.92 41.8499 124.29 41.8499C123.57 41.8499 123.03 41.5799 122.67 41.1299C122.31 40.6799 122.13 40.0499 122.13 39.2399C122.13 38.1599 122.4 37.3499 122.94 36.6299C123.48 35.9099 124.2 35.6399 125.1 35.6399C125.82 35.6399 126.36 35.8199 126.72 36.2699C127.08 36.6299 127.26 37.2599 127.26 37.9799L126.99 39.0599ZM125.91 37.0799C125.64 36.8099 125.28 36.6299 124.92 36.6299C124.38 36.6299 123.93 36.8099 123.66 37.0799C123.39 37.3499 123.12 37.7999 122.94 38.3399H126.18L126.27 37.9799C126.27 37.6199 126.18 37.3499 125.91 37.0799ZM127.89 42.0299L129.06 36.0899H132.39L132.3 36.8099H129.78L128.7 42.1199H127.89V42.0299ZM134.64 36.8999L132.57 41.3999H135.18L134.82 36.8999H134.64ZM135.36 36.0899L136.08 41.3099H136.62L136.26 43.1099H135.72L135.81 41.9399H131.76L131.4 43.1999H130.86L131.22 41.3999H131.76L134.28 36.1799H135.36V36.0899ZM137.52 40.4999C137.52 39.8699 137.79 39.4199 138.33 39.0599C138.87 38.6999 139.68 38.5199 140.67 38.5199H141.48L141.57 37.8899C141.57 37.5299 141.48 37.1699 141.21 36.9899C140.94 36.8099 140.67 36.7199 140.22 36.7199C139.86 36.7199 139.41 36.9899 138.96 37.4399L138.42 36.9899C139.05 36.4499 139.68 36.0899 140.31 36.0899C140.94 36.0899 141.39 36.2699 141.75 36.5399C142.11 36.8999 142.29 37.2599 142.29 37.7999L142.2 38.6999L141.84 40.6799C141.75 41.1299 141.75 41.5799 141.75 42.1199H140.94L140.85 41.3999L140.04 41.9399L139.05 42.2099C138.6 42.2099 138.15 42.0299 137.88 41.7599C137.7 41.3099 137.52 40.9499 137.52 40.4999ZM140.76 39.1499C139.14 39.1499 138.24 39.5999 138.24 40.4099C138.24 40.6799 138.33 40.9499 138.51 41.2199C138.69 41.3999 138.96 41.4899 139.32 41.4899C139.77 41.4899 140.31 41.2199 141.03 40.7699L141.39 39.1499H140.76ZM107.73 11.6099C107.73 13.6799 107.1 15.2099 105.84 16.0199C104.76 16.8299 103.05 17.1899 100.8 17.1899H98.9999V22.2299L99.1799 23.2199C99.2699 23.3999 99.5399 23.5799 99.9899 23.6699V24.2099H94.1399V23.6699L94.9499 23.2199L95.1299 22.2299V8.45989L94.9499 7.46989C94.8599 7.28989 94.5899 7.10989 94.1399 7.10989V6.47989H101.52C103.5 6.47989 105.03 6.74989 105.93 7.37989C107.1 8.18989 107.73 9.53989 107.73 11.6099ZM99.2699 7.73989C99.0899 7.82989 98.9999 8.09989 98.9999 8.54989V16.1099H100.8C101.88 16.1099 102.69 15.6599 103.14 14.8499C103.5 14.1299 103.77 12.9599 103.77 11.4299C103.77 8.90989 102.69 7.55989 100.53 7.55989H100.08L99.2699 7.73989ZM91.4399 10.3499H90.4499L90.1799 9.53989C89.9999 8.72989 89.5499 8.09989 89.0999 7.91989L86.6699 7.55989H84.6899L83.9699 7.73989L83.7899 8.45989V13.9499H86.1299C87.7499 13.9499 88.8299 13.7699 89.3699 13.4099V15.6599C88.8299 15.2999 87.7499 15.1199 86.1299 15.1199H83.7899V21.7799C83.7899 22.3199 83.9699 22.6799 84.3299 22.9499L86.5799 23.2199H87.1199L89.5499 22.8599C89.9999 22.5899 90.2699 21.9599 90.5399 20.8799L90.7199 20.1599H91.8899V24.2999H79.0199V23.7599C79.4699 23.6699 79.7399 23.4899 79.8299 23.3099L80.0099 22.3199V8.45989L79.8299 7.46989C79.7399 7.28989 79.4699 7.10989 79.0199 7.10989V6.47989H91.4399V10.3499ZM76.1399 10.3499H75.1499L74.8799 9.53989C74.6099 8.63989 74.2499 8.09989 73.7099 7.82989L71.2799 7.46989H68.7599C68.2199 7.46989 67.8599 7.55989 67.6799 7.73989C67.5899 7.91989 67.4999 8.18989 67.4999 8.54989V12.7799H68.4899C71.3699 12.7799 73.3499 13.0499 74.5199 13.5899C76.0499 14.3999 76.8599 15.9299 76.8599 18.1799C76.8599 20.4299 76.2299 21.9599 74.9699 22.9499C73.8899 23.7599 72.1799 24.1199 69.7499 24.1199H62.6399V23.5799C63.0899 23.4899 63.4499 23.3099 63.5399 23.1299L63.7199 22.1399V8.45989L63.5399 7.46989C63.4499 7.28989 63.0899 7.10989 62.6399 7.10989V6.47989H75.9599V10.3499H76.1399ZM58.2299 7.91989C57.6899 7.55989 56.8799 7.37989 55.7099 7.37989C53.9099 7.37989 52.6499 8.00989 51.8399 9.35989C51.2099 10.5299 50.9399 12.3299 50.9399 14.9399C50.9399 17.5499 51.2999 19.4399 52.0199 20.6999C52.8299 22.2299 54.2699 22.9499 56.3399 22.9499C57.8699 22.9499 59.3099 22.5899 60.8399 21.8699L61.3799 23.0399C59.6699 24.1199 57.6899 24.6599 55.3499 24.6599C49.6799 24.6599 46.8899 21.6899 46.8899 15.7499C46.8899 9.44989 49.8599 6.38989 55.7099 6.38989C57.9599 6.38989 59.6699 6.65989 60.9299 7.19989V10.8899H59.7599L59.4899 9.80989C59.0399 8.81989 58.6799 8.27989 58.2299 7.91989ZM67.7699 14.0399V21.5999C67.7699 22.2299 67.8599 22.5899 68.0399 22.7699C68.3099 23.0399 68.7599 23.1299 69.2999 23.1299H69.8399C71.9999 23.1299 73.0799 21.5999 73.0799 18.5399C73.0799 17.0099 72.8099 15.8399 72.3599 15.2099C71.8199 14.3999 70.7399 14.0399 69.2999 14.0399C69.2099 13.9499 67.7699 13.9499 67.7699 14.0399Z" fill="#212C43" fill-opacity="0.8"/>
<path fill-rule="evenodd" clip-rule="evenodd" d="M31.3199 3.6901L32.9399 5.1301L12.9599 16.5601L3.32991 10.9801L4.22991 9.1801L12.9599 14.2201L31.3199 3.6901ZM27.2699 1.3501L29.3399 2.4301L12.9599 11.8801L5.30991 7.5601L6.56991 5.9401L12.8699 9.5401L27.2699 1.3501ZM34.1999 6.5701L35.3699 8.1901L12.9599 21.0601L2.15991 14.8501L2.60991 12.8701L12.9599 18.8101L34.1999 6.5701Z" fill="#212C43" fill-opacity="0.8"/>
<path fill-rule="evenodd" clip-rule="evenodd" d="M37.5301 12.4199C38.16 14.3099 38.5201 16.1999 38.5201 18.2699C38.5201 20.3399 38.16 22.3199 37.5301 24.2099L37.0801 25.4699C36.18 27.6299 34.8301 29.6099 33.2101 31.3199C31.5001 33.0299 29.5201 34.2899 27.3601 35.1899C25.0201 36.1799 22.68 36.7199 20.16 36.7199C17.64 36.7199 15.3 36.1799 13.05 35.1899C10.8 34.1999 8.91005 32.9399 7.20005 31.2299C5.49005 29.5199 4.23005 27.5399 3.33005 25.3799C2.25005 23.0399 1.80005 20.6999 1.80005 18.2699V17.0099L12.96 23.3999L36.4501 9.8999L37.5301 12.4199Z" fill="#212C43" fill-opacity="0.8"/>
</svg>
