<?xml version="1.0" encoding="utf-8"?>
<!-- Generator: Adobe Illustrator 23.0.1, SVG Export Plug-In . SVG Version: 6.00 Build 0)  -->
<svg version="1.1" id="Layer_1" xmlns="http://www.w3.org/2000/svg" xmlns:xlink="http://www.w3.org/1999/xlink" x="0px" y="0px"
	 width="79px" height="60px" viewBox="0 0 79 60" enable-background="new 0 0 79 60" xml:space="preserve">
<g opacity="0.8">
	<path fill="#212C43" d="M3.8,54.2l1.5,0.1c0,0.8-0.3,1.4-0.7,1.9c-0.4,0.5-1,0.7-1.8,0.7c-0.9,0-1.6-0.3-2-1
		C0.2,55.3,0,54.4,0,53.2c0-1.2,0.2-2.1,0.7-2.7c0.5-0.7,1.2-1,2-1c1.5,0,2.3,0.9,2.5,2.8l-1.4,0.1c0-1.1-0.4-1.6-1-1.6
		c-0.3,0-0.6,0.2-0.8,0.5s-0.3,1-0.3,2c0,0.9,0.1,1.5,0.3,1.8c0.2,0.3,0.5,0.5,0.8,0.5C3.3,55.6,3.7,55.2,3.8,54.2z"/>
	<path fill="#212C43" d="M11.2,53.2c0,2.5-0.9,3.7-2.6,3.7c-0.9,0-1.5-0.3-2-1C6.2,55.4,6,54.4,6,53.2c0-2.5,0.9-3.7,2.6-3.7
		c0.8,0,1.5,0.3,1.9,0.9C11,51.1,11.2,52,11.2,53.2z M9.6,53.2c0-1-0.1-1.6-0.2-1.9C9.2,51,9,50.8,8.6,50.8S8.1,51,7.9,51.3
		c-0.2,0.3-0.2,1-0.2,1.9s0.1,1.6,0.2,1.9c0.2,0.3,0.4,0.5,0.7,0.5s0.6-0.2,0.7-0.5C9.5,54.8,9.6,54.2,9.6,53.2z"/>
	<path fill="#212C43" d="M14.8,53.9h-0.9v2.9h-1.6v-7.2h1.6v2.9h0.9c0.2-2,1.1-3,2.6-3c0.9,0,1.5,0.3,2,1c0.4,0.6,0.7,1.5,0.7,2.8
		c0,2.5-0.9,3.7-2.6,3.7C15.8,56.9,15,55.9,14.8,53.9z M18.3,53.2c0-1-0.1-1.6-0.2-1.9c-0.2-0.3-0.4-0.5-0.7-0.5
		c-0.3,0-0.6,0.2-0.7,0.5c-0.2,0.3-0.2,1-0.2,1.9c0,1,0.1,1.6,0.2,1.9c0.2,0.3,0.4,0.5,0.7,0.5c0.3,0,0.6-0.2,0.7-0.5
		C18.3,54.8,18.3,54.2,18.3,53.2z"/>
	<path fill="#212C43" d="M22.2,51.8l-1.4-0.3c0.2-0.8,0.5-1.4,0.9-1.6c0.4-0.3,0.9-0.4,1.5-0.4c0.7,0,1.2,0.2,1.6,0.5
		c0.4,0.3,0.6,0.8,0.6,1.4c0,0.8-0.3,1.3-1.1,1.6c0.8,0.2,1.2,0.8,1.2,1.7c0,0.7-0.2,1.2-0.6,1.6c-0.4,0.4-1.1,0.6-1.9,0.6
		c-0.8,0-1.4-0.2-1.7-0.7c-0.3-0.4-0.5-1-0.7-1.7l1.4-0.2c0.1,0.6,0.2,1,0.4,1.1c0.2,0.1,0.4,0.2,0.6,0.2c0.3,0,0.5-0.1,0.6-0.3
		c0.2-0.2,0.2-0.4,0.2-0.7c0-0.7-0.4-1-1.1-1h-0.2v-1.2h0.2c0.2,0,0.4,0,0.5-0.1c0.1,0,0.2-0.1,0.3-0.3c0.1-0.1,0.1-0.3,0.1-0.6
		c0-0.6-0.2-0.9-0.7-0.9c-0.2,0-0.3,0-0.5,0.2C22.4,51,22.3,51.3,22.2,51.8z"/>
	<path fill="#212C43" d="M28.5,49.6h2.1c0.6,0,1.1,0,1.5,0.2c0.3,0.1,0.6,0.3,0.9,0.7s0.3,0.8,0.3,1.4c0,0.5-0.1,1-0.3,1.3
		c-0.2,0.3-0.5,0.6-0.8,0.7c-0.3,0.2-0.8,0.2-1.5,0.2h-0.6v2.7h-1.6L28.5,49.6L28.5,49.6z M30.1,50.8v2.1h0.5c0.4,0,0.7-0.1,0.8-0.3
		c0.1-0.2,0.2-0.5,0.2-0.8c0-0.3,0-0.5-0.2-0.7c-0.1-0.2-0.2-0.3-0.3-0.3c-0.1,0-0.3-0.1-0.5-0.1L30.1,50.8L30.1,50.8z"/>
	<path fill="#212C43" d="M35.6,56.1v0.7h-1.6v-7.2h1.6v4.1l0.2-0.4l1.6-2.8v-0.8h1.6v7.2h-1.6v-3.7v-0.3l-0.3,0.5L35.6,56.1z"/>
	<path fill="#212C43" d="M41.7,52.5h2.1c-0.1-1.1-0.5-1.7-1.2-1.7c-0.6,0-1,0.3-1.1,1l-1.5-0.3c0.1-0.5,0.3-1,0.8-1.4
		c0.4-0.4,1.1-0.6,1.9-0.6c0.9,0,1.6,0.3,2.1,1s0.7,1.6,0.7,2.8c0,0.7-0.1,1.3-0.3,1.9c-0.2,0.6-0.5,1-0.9,1.3
		c-0.4,0.3-1,0.5-1.6,0.5c-1.6,0-2.5-0.8-2.7-2.3l1.4-0.3c0.2,0.9,0.6,1.3,1.3,1.3c0.7,0,1.2-0.7,1.2-2h-2.1L41.7,52.5L41.7,52.5z"
		/>
	<path fill="#212C43" d="M47.1,56.8h-1.5l2-7.2h1.8l2.1,7.2h-1.6l-1.4-5.7L47.1,56.8z"/>
	<path fill="#212C43" d="M51.2,49.6h4.5V51h-1.5v5.9h-1.6V51h-1.4L51.2,49.6L51.2,49.6z"/>
	<path fill="#212C43" d="M61.3,53.2c0,2.5-0.9,3.7-2.6,3.7c-0.9,0-1.5-0.3-2-1c-0.4-0.6-0.7-1.5-0.7-2.8c0-2.5,0.9-3.7,2.6-3.7
		c0.8,0,1.5,0.3,1.9,0.9S61.3,52,61.3,53.2z M59.6,53.2c0-1-0.1-1.6-0.2-1.9c-0.2-0.3-0.4-0.5-0.7-0.5S58.1,51,58,51.3
		c-0.2,0.3-0.2,1-0.2,1.9s0.1,1.6,0.2,1.9c0.2,0.3,0.4,0.5,0.7,0.5s0.6-0.2,0.7-0.5C59.5,54.8,59.6,54.2,59.6,53.2z"/>
	<path fill="#212C43" d="M62.4,49.6h2.1c0.6,0,1.1,0,1.5,0.2s0.6,0.3,0.9,0.7c0.2,0.4,0.3,0.8,0.3,1.4c0,0.5-0.1,1-0.3,1.3
		s-0.5,0.6-0.8,0.7c-0.3,0.2-0.8,0.2-1.5,0.2H64v2.7h-1.6V49.6z M64,50.8v2.1h0.5c0.4,0,0.7-0.1,0.8-0.3c0.1-0.2,0.2-0.5,0.2-0.8
		c0-0.3,0-0.5-0.2-0.7c-0.1-0.2-0.2-0.3-0.3-0.3c-0.1,0-0.3-0.1-0.5-0.1L64,50.8L64,50.8z"/>
	<path fill="#212C43" d="M72.9,53.2c0,2.5-0.9,3.7-2.6,3.7c-0.9,0-1.5-0.3-2-1c-0.4-0.6-0.7-1.5-0.7-2.8c0-2.5,0.9-3.7,2.6-3.7
		c0.8,0,1.5,0.3,1.9,0.9S72.9,52,72.9,53.2z M71.2,53.2c0-1-0.1-1.6-0.2-1.9c-0.2-0.3-0.4-0.5-0.7-0.5c-0.3,0-0.6,0.2-0.7,0.5
		c-0.2,0.3-0.2,1-0.2,1.9s0.1,1.6,0.2,1.9c0.2,0.3,0.4,0.5,0.7,0.5c0.3,0,0.6-0.2,0.7-0.5C71.1,54.8,71.2,54.2,71.2,53.2z"/>
	<path fill="#212C43" d="M74,49.6h2.5c0.6,0,1,0,1.3,0.1c0.3,0.1,0.5,0.3,0.7,0.6c0.2,0.3,0.3,0.7,0.3,1.2c0,0.8-0.3,1.3-1,1.5
		c0.8,0.3,1.2,0.9,1.2,1.8c0,0.5-0.1,0.9-0.3,1.2c-0.2,0.3-0.5,0.5-0.8,0.7c-0.3,0.1-0.8,0.2-1.4,0.2H74V49.6z M75.5,52.5H76
		c0.5,0,0.8-0.1,1-0.3c0.1-0.2,0.2-0.4,0.2-0.6c0-0.2-0.1-0.4-0.2-0.6s-0.4-0.3-0.8-0.3h-0.6V52.5z M75.5,55.6h0.8
		c0.7,0,1.1-0.3,1.1-0.9c0-0.3-0.1-0.6-0.3-0.7c-0.2-0.2-0.5-0.2-0.8-0.2h-0.8V55.6z"/>
</g>
<g>
	<polygon opacity="0.8" fill="#212C43" points="39.8,1.2 36.8,3.2 36.8,10 39.8,8.4 	"/>
	<polygon opacity="0.8" fill="#212C43" points="35.8,3.8 33.2,5.5 33.2,11.9 35.8,10.5 	"/>
	<polygon opacity="0.8" fill="#212C43" points="32.4,6.1 30.1,7.6 30.1,13.6 32.4,12.3 	"/>
	<polygon opacity="0.5" fill="#212C43" points="40.7,1.3 40.7,8.4 43.7,10 43.7,3.2 	"/>
	<polygon opacity="0.8" fill="#212C43" points="29.3,8.1 27.3,9.4 27.3,15.1 29.3,14 	"/>
	<polygon opacity="0.8" fill="#212C43" points="26.6,9.8 24.8,11 24.8,16.4 26.6,15.4 	"/>
	<polygon opacity="0.8" fill="#212C43" points="24.8,17.7 26.6,16.8 26.6,22.3 24.8,23 	"/>
	<polygon opacity="0.8" fill="#212C43" points="24.8,24.4 26.6,23.7 26.6,29.3 24.8,29.7 	"/>
	<polygon opacity="0.8" fill="#212C43" points="27.3,16.5 29.3,15.4 29.3,21.3 27.3,22.1 	"/>
	<polygon opacity="0.8" fill="#212C43" points="27.3,23.5 29.3,22.8 29.3,28.7 27.3,29.2 	"/>
	<polygon opacity="0.8" fill="#212C43" points="24.8,31.1 26.6,30.7 26.6,36.2 24.8,36.4 	"/>
	<polygon opacity="0.8" fill="#212C43" points="24.7,37.7 26.5,37.6 26.5,43.2 24.7,43.1 	"/>
	<polygon opacity="0.8" fill="#212C43" points="27.3,30.6 29.3,30.2 29.3,36 27.3,36.2 	"/>
	<polygon opacity="0.8" fill="#212C43" points="27.2,37.6 29.2,37.5 29.2,43.4 27.2,43.3 	"/>
	<polygon opacity="0.8" fill="#212C43" points="30,37.5 32.3,37.4 32.3,43.7 30,43.5 	"/>
	<polygon opacity="0.8" fill="#212C43" points="33.1,37.4 35.7,37.3 35.7,43.9 33.1,43.7 	"/>
	<polygon opacity="0.8" fill="#212C43" points="36.7,37.2 39.7,37.1 39.7,44.3 36.7,44 	"/>
	<polygon opacity="0.8" fill="#212C43" points="30.1,30 32.4,29.6 32.4,35.8 30.1,36 	"/>
	<polygon opacity="0.8" fill="#212C43" points="33.1,29.4 35.7,28.9 35.7,35.6 33.1,35.8 	"/>
	<polygon opacity="0.8" fill="#212C43" points="36.7,28.7 39.7,28.1 39.7,35.3 36.7,35.5 	"/>
	<polygon opacity="0.8" fill="#212C43" points="30.1,21.1 32.4,20.2 32.4,13.9 30.1,15.1 	"/>
	<polygon opacity="0.8" fill="#212C43" points="33.2,19.9 33.2,13.5 35.8,12.2 35.8,18.9 	"/>
	<polygon opacity="0.8" fill="#212C43" points="36.8,18.5 36.8,11.7 39.8,10.2 39.8,17.4 	"/>
	<polygon opacity="0.5" fill="#212C43" points="40.7,10.2 43.7,11.7 43.7,18.5 40.7,17.4 	"/>
	<polygon opacity="0.5" fill="#212C43" points="40.7,19.2 43.7,20.2 43.7,27 40.7,26.4 	"/>
	<polygon opacity="0.5" fill="#212C43" points="40.7,28.1 43.7,28.7 43.7,35.5 40.7,35.3 	"/>
	<polygon opacity="0.5" fill="#212C43" points="40.7,37.1 40.7,44.3 43.7,44 43.7,37.2 	"/>
	<polygon opacity="0.5" fill="#212C43" points="44.6,27.2 44.6,20.6 47.1,21.5 47.1,27.8 	"/>
	<polygon opacity="0.5" fill="#212C43" points="47.9,21.8 47.9,28 50.1,28.5 50.1,22.6 	"/>
	<polygon opacity="0.5" fill="#212C43" points="50.8,22.8 52.8,23.5 52.8,29.2 50.8,28.7 	"/>
	<polygon opacity="0.5" fill="#212C43" points="53.4,23.8 55.2,24.4 55.2,29.7 53.4,29.3 	"/>
	<polygon opacity="0.5" fill="#212C43" points="53.4,22.4 55.2,23.1 55.2,17.7 53.4,16.8 	"/>
	<polygon opacity="0.5" fill="#212C43" points="53.4,15.4 55.2,16.4 55.2,11.1 53.4,9.9 	"/>
	<polygon opacity="0.5" fill="#212C43" points="52.8,15.1 52.8,9.4 50.8,8.1 50.8,14 	"/>
	<polygon opacity="0.5" fill="#212C43" points="50.1,13.6 50.1,7.6 47.9,6.1 47.9,12.4 	"/>
	<polygon opacity="0.5" fill="#212C43" points="47.1,11.9 47.1,5.6 44.6,3.8 44.6,10.5 	"/>
	<polygon opacity="0.5" fill="#212C43" points="44.6,18.9 44.6,12.2 47.1,13.5 47.1,19.9 	"/>
	<polygon opacity="0.5" fill="#212C43" points="50.8,21.3 52.8,22.1 52.8,16.5 50.8,15.5 	"/>
	<polygon opacity="0.2" fill="#212C43" points="47.9,13.9 50.1,15.1 50.1,21.1 47.9,20.2 	"/>
	<polygon opacity="0.5" fill="#212C43" points="44.6,43.9 47.1,43.7 47.1,37.4 44.6,37.3 	"/>
	<polygon opacity="0.2" fill="#212C43" points="47.9,43.7 50.1,43.5 50.1,37.5 47.9,37.4 	"/>
	<polygon opacity="0.2" fill="#212C43" points="50.8,43.4 52.8,43.3 52.8,37.6 50.8,37.5 	"/>
	<polygon opacity="0.2" fill="#212C43" points="53.4,43.2 55.2,43.1 55.2,37.7 53.4,37.6 	"/>
	<polygon opacity="0.2" fill="#212C43" points="53.4,30.7 55.2,31.1 55.2,36.4 53.4,36.3 	"/>
	<polygon opacity="0.2" fill="#212C43" points="52.8,30.6 50.8,30.2 50.8,36.1 52.8,36.2 	"/>
	<polygon opacity="0.2" fill="#212C43" points="50.1,36 50.1,30 47.9,29.6 47.9,35.8 	"/>
	<polygon opacity="0.5" fill="#212C43" points="47.1,35.8 47.1,29.4 44.6,28.9 44.6,35.6 	"/>
	<polygon opacity="0.2" fill="#212C43" points="30,22.5 32.3,21.7 32.3,28 30,28.5 	"/>
	<polygon opacity="0.2" fill="#212C43" points="33.1,27.8 35.7,27.2 35.7,20.5 33.1,21.5 	"/>
	<polygon opacity="0.2" fill="#212C43" points="36.7,27 39.7,26.3 39.7,19.2 36.7,20.2 	"/>
</g>
</svg>
