<svg width="67" height="89" viewBox="0 0 67 89" fill="none" xmlns="http://www.w3.org/2000/svg">
<path d="M33.6594 0C15.6321 0 1.0498 14.5833 1.0498 32.5538C1.0498 51.7944 33.7065 88.9113 33.7065 88.9113C33.7065 88.9113 66.3633 53.2056 66.3633 32.5538C66.3161 14.5833 51.7338 0 33.6594 0ZM33.6594 51.2298C22.5693 51.2298 13.5556 42.2446 13.5556 31.1895C13.5556 20.1344 22.5693 11.1492 33.6594 11.1492C44.7494 11.1492 53.7631 20.1344 53.7631 31.1895C53.7631 42.2917 44.7966 51.2298 33.6594 51.2298Z" fill="#9FC033"/>
<path d="M5.7686 63.273L5.95737 63.0848L1.61572 58.7568L1.52134 58.8509L0.388737 59.98C-0.366332 60.7326 0.0112035 62.2851 1.23819 63.4611C2.41799 64.6372 4.02251 65.0136 4.73038 64.3079L5.7686 63.273Z" fill="white"/>
<path d="M50.6954 31.1895C50.6954 21.875 43.1447 14.3481 33.8007 14.3481C24.4567 14.3481 16.9061 21.875 16.9061 31.1895C16.9061 34.6237 17.9443 37.8226 19.7376 40.5041L2.60693 57.7218L6.94858 62.0498L24.032 44.8791C26.8163 46.8549 30.167 48.0309 33.8479 48.0309C43.0975 48.0309 50.6954 40.5041 50.6954 31.1895ZM21.9084 31.4248C21.9084 24.8858 27.2411 19.5699 33.8007 19.5699C40.3604 19.5699 45.6931 24.8858 45.6931 31.4248C45.6931 37.9637 40.3604 43.2796 33.8007 43.2796C27.1939 43.2796 21.9084 37.9637 21.9084 31.4248Z" fill="white"/>
<path d="M53.6687 31.9424L64.4284 42.2448C64.4284 42.2448 63.2486 46.7139 57.3025 57.1574C51.8754 66.7542 45.2686 75.269 33.6122 88.8644C18.9355 71.5996 10.8657 58.0983 10.8657 58.0983L21.6255 47.2784C21.6255 47.2784 27.5244 52.3591 36.5381 50.9948C53.3384 47.4666 53.6215 33.1185 53.6687 31.9424Z" fill="#7A9E24"/>
</svg>
